%TF.GenerationSoftware,KiCad,Pcbnew,(6.0.2)*%
%TF.CreationDate,2022-02-22T18:51:34-06:00*%
%TF.ProjectId,rpi-cm4-carrier-template,7270692d-636d-4342-9d63-617272696572,v01*%
%TF.SameCoordinates,Original*%
%TF.FileFunction,Soldermask,Top*%
%TF.FilePolarity,Negative*%
%FSLAX46Y46*%
G04 Gerber Fmt 4.6, Leading zero omitted, Abs format (unit mm)*
G04 Created by KiCad (PCBNEW (6.0.2)) date 2022-02-22 18:51:34*
%MOMM*%
%LPD*%
G01*
G04 APERTURE LIST*
%ADD10R,2.209800X2.260600*%
%ADD11R,0.355600X0.833300*%
%ADD12R,1.380000X1.040000*%
%ADD13R,1.498600X0.990600*%
%ADD14R,1.040000X1.380000*%
%ADD15C,0.650000*%
%ADD16R,1.150000X0.600000*%
%ADD17R,1.150000X0.300000*%
%ADD18R,2.000000X2.180000*%
%ADD19R,0.700000X0.200000*%
G04 APERTURE END LIST*
D10*
%TO.C,CR1*%
X171455300Y-111500000D03*
X175544700Y-111500000D03*
%TD*%
D11*
%TO.C,U1*%
X166350001Y-86138949D03*
X167000000Y-86138949D03*
X167649999Y-86138949D03*
X167649999Y-84061051D03*
X166350001Y-84061051D03*
%TD*%
D12*
%TO.C,R2*%
X170000000Y-85260000D03*
X170000000Y-87140000D03*
%TD*%
D13*
%TO.C,LED1*%
X172700000Y-86254700D03*
X175300000Y-86254700D03*
%TD*%
D12*
%TO.C,R4*%
X170000000Y-81260000D03*
X170000000Y-83140000D03*
%TD*%
D14*
%TO.C,R3*%
X171940000Y-92750000D03*
X170060000Y-92750000D03*
%TD*%
D15*
%TO.C,J1*%
X171437500Y-98610000D03*
X171437500Y-104390000D03*
D16*
X170362500Y-104700000D03*
X170362500Y-103900000D03*
D17*
X170362500Y-102750000D03*
X170362500Y-101750000D03*
X170362500Y-101250000D03*
X170362500Y-100250000D03*
D16*
X170362500Y-98300000D03*
X170362500Y-99100000D03*
D17*
X170362500Y-99750000D03*
X170362500Y-100750000D03*
X170362500Y-102250000D03*
X170362500Y-103250000D03*
D18*
X170937500Y-106610000D03*
X170937500Y-96390000D03*
X174867500Y-106610000D03*
X174867500Y-96390000D03*
%TD*%
D14*
%TO.C,R1*%
X171940000Y-90500000D03*
X170060000Y-90500000D03*
%TD*%
D13*
%TO.C,LED2*%
X172700000Y-82721500D03*
X175300000Y-82721500D03*
%TD*%
D19*
%TO.C,Module1*%
X165040000Y-109700000D03*
X161960000Y-109700000D03*
X165040000Y-109300000D03*
X161960000Y-109300000D03*
X165040000Y-108900000D03*
X161960000Y-108900000D03*
X165040000Y-108500000D03*
X161960000Y-108500000D03*
X165040000Y-108100000D03*
X161960000Y-108100000D03*
X165040000Y-107700000D03*
X161960000Y-107700000D03*
X165040000Y-107300000D03*
X161960000Y-107300000D03*
X165040000Y-106900000D03*
X161960000Y-106900000D03*
X165040000Y-106500000D03*
X161960000Y-106500000D03*
X165040000Y-106100000D03*
X161960000Y-106100000D03*
X165040000Y-105700000D03*
X161960000Y-105700000D03*
X165040000Y-105300000D03*
X161960000Y-105300000D03*
X165040000Y-104900000D03*
X161960000Y-104900000D03*
X165040000Y-104500000D03*
X161960000Y-104500000D03*
X165040000Y-104100000D03*
X161960000Y-104100000D03*
X165040000Y-103700000D03*
X161960000Y-103700000D03*
X165040000Y-103300000D03*
X161960000Y-103300000D03*
X165040000Y-102900000D03*
X161960000Y-102900000D03*
X165040000Y-102500000D03*
X161960000Y-102500000D03*
X165040000Y-102100000D03*
X161960000Y-102100000D03*
X165040000Y-101700000D03*
X161960000Y-101700000D03*
X165040000Y-101300000D03*
X161960000Y-101300000D03*
X165040000Y-100900000D03*
X161960000Y-100900000D03*
X165040000Y-100500000D03*
X161960000Y-100500000D03*
X165040000Y-100100000D03*
X161960000Y-100100000D03*
X165040000Y-99700000D03*
X161960000Y-99700000D03*
X165040000Y-99300000D03*
X161960000Y-99300000D03*
X165040000Y-98900000D03*
X161960000Y-98900000D03*
X165040000Y-98500000D03*
X161960000Y-98500000D03*
X165040000Y-98100000D03*
X161960000Y-98100000D03*
X165040000Y-97700000D03*
X161960000Y-97700000D03*
X165040000Y-97300000D03*
X161960000Y-97300000D03*
X165040000Y-96900000D03*
X161960000Y-96900000D03*
X165040000Y-96500000D03*
X161960000Y-96500000D03*
X165040000Y-96100000D03*
X161960000Y-96100000D03*
X165040000Y-95700000D03*
X161960000Y-95700000D03*
X165040000Y-95300000D03*
X161960000Y-95300000D03*
X165040000Y-94900000D03*
X161960000Y-94900000D03*
X165040000Y-94500000D03*
X161960000Y-94500000D03*
X165040000Y-94100000D03*
X161960000Y-94100000D03*
X165040000Y-93700000D03*
X161960000Y-93700000D03*
X165040000Y-93300000D03*
X161960000Y-93300000D03*
X165040000Y-92900000D03*
X161960000Y-92900000D03*
X165040000Y-92500000D03*
X161960000Y-92500000D03*
X165040000Y-92100000D03*
X161960000Y-92100000D03*
X165040000Y-91700000D03*
X161960000Y-91700000D03*
X165040000Y-91300000D03*
X161960000Y-91300000D03*
X165040000Y-90900000D03*
X161960000Y-90900000D03*
X165040000Y-90500000D03*
X161960000Y-90500000D03*
X165040000Y-90100000D03*
X161960000Y-90100000D03*
%TD*%
M02*
