%TF.GenerationSoftware,KiCad,Pcbnew,(5.99.0-11661-g1332208ab1)*%
%TF.CreationDate,2021-08-26T20:26:43-05:00*%
%TF.ProjectId,rpi-cm4-carrier-template,7270692d-636d-4342-9d63-617272696572,v01*%
%TF.SameCoordinates,Original*%
%TF.FileFunction,Legend,Top*%
%TF.FilePolarity,Positive*%
%FSLAX46Y46*%
G04 Gerber Fmt 4.6, Leading zero omitted, Abs format (unit mm)*
G04 Created by KiCad (PCBNEW (5.99.0-11661-g1332208ab1)) date 2021-08-26 20:26:43*
%MOMM*%
%LPD*%
G01*
G04 APERTURE LIST*
%ADD10C,0.200000*%
%ADD11C,0.150000*%
%ADD12C,0.098425*%
%ADD13C,0.120000*%
%ADD14C,0.127000*%
G04 APERTURE END LIST*
D10*
X171242380Y-132431904D02*
X170242380Y-132431904D01*
X171242380Y-131860476D01*
X170242380Y-131860476D01*
X171242380Y-131384285D02*
X170575714Y-131384285D01*
X170242380Y-131384285D02*
X170290000Y-131431904D01*
X170337619Y-131384285D01*
X170290000Y-131336666D01*
X170242380Y-131384285D01*
X170337619Y-131384285D01*
X171194761Y-130479523D02*
X171242380Y-130574761D01*
X171242380Y-130765238D01*
X171194761Y-130860476D01*
X171147142Y-130908095D01*
X171051904Y-130955714D01*
X170766190Y-130955714D01*
X170670952Y-130908095D01*
X170623333Y-130860476D01*
X170575714Y-130765238D01*
X170575714Y-130574761D01*
X170623333Y-130479523D01*
X171242380Y-130050952D02*
X170242380Y-130050952D01*
X171242380Y-129622380D02*
X170718571Y-129622380D01*
X170623333Y-129670000D01*
X170575714Y-129765238D01*
X170575714Y-129908095D01*
X170623333Y-130003333D01*
X170670952Y-130050952D01*
X171242380Y-129003333D02*
X171194761Y-129098571D01*
X171147142Y-129146190D01*
X171051904Y-129193809D01*
X170766190Y-129193809D01*
X170670952Y-129146190D01*
X170623333Y-129098571D01*
X170575714Y-129003333D01*
X170575714Y-128860476D01*
X170623333Y-128765238D01*
X170670952Y-128717619D01*
X170766190Y-128670000D01*
X171051904Y-128670000D01*
X171147142Y-128717619D01*
X171194761Y-128765238D01*
X171242380Y-128860476D01*
X171242380Y-129003333D01*
X171242380Y-128098571D02*
X171194761Y-128193809D01*
X171099523Y-128241428D01*
X170242380Y-128241428D01*
X171242380Y-127289047D02*
X170718571Y-127289047D01*
X170623333Y-127336666D01*
X170575714Y-127431904D01*
X170575714Y-127622380D01*
X170623333Y-127717619D01*
X171194761Y-127289047D02*
X171242380Y-127384285D01*
X171242380Y-127622380D01*
X171194761Y-127717619D01*
X171099523Y-127765238D01*
X171004285Y-127765238D01*
X170909047Y-127717619D01*
X170861428Y-127622380D01*
X170861428Y-127384285D01*
X170813809Y-127289047D01*
X171194761Y-126860476D02*
X171242380Y-126765238D01*
X171242380Y-126574761D01*
X171194761Y-126479523D01*
X171099523Y-126431904D01*
X171051904Y-126431904D01*
X170956666Y-126479523D01*
X170909047Y-126574761D01*
X170909047Y-126717619D01*
X170861428Y-126812857D01*
X170766190Y-126860476D01*
X170718571Y-126860476D01*
X170623333Y-126812857D01*
X170575714Y-126717619D01*
X170575714Y-126574761D01*
X170623333Y-126479523D01*
X170290000Y-124717619D02*
X170242380Y-124812857D01*
X170242380Y-124955714D01*
X170290000Y-125098571D01*
X170385238Y-125193809D01*
X170480476Y-125241428D01*
X170670952Y-125289047D01*
X170813809Y-125289047D01*
X171004285Y-125241428D01*
X171099523Y-125193809D01*
X171194761Y-125098571D01*
X171242380Y-124955714D01*
X171242380Y-124860476D01*
X171194761Y-124717619D01*
X171147142Y-124670000D01*
X170813809Y-124670000D01*
X170813809Y-124860476D01*
X171242380Y-124241428D02*
X170575714Y-124241428D01*
X170766190Y-124241428D02*
X170670952Y-124193809D01*
X170623333Y-124146190D01*
X170575714Y-124050952D01*
X170575714Y-123955714D01*
X171194761Y-123241428D02*
X171242380Y-123336666D01*
X171242380Y-123527142D01*
X171194761Y-123622380D01*
X171099523Y-123670000D01*
X170718571Y-123670000D01*
X170623333Y-123622380D01*
X170575714Y-123527142D01*
X170575714Y-123336666D01*
X170623333Y-123241428D01*
X170718571Y-123193809D01*
X170813809Y-123193809D01*
X170909047Y-123670000D01*
X170575714Y-122336666D02*
X171385238Y-122336666D01*
X171480476Y-122384285D01*
X171528095Y-122431904D01*
X171575714Y-122527142D01*
X171575714Y-122670000D01*
X171528095Y-122765238D01*
X171194761Y-122336666D02*
X171242380Y-122431904D01*
X171242380Y-122622380D01*
X171194761Y-122717619D01*
X171147142Y-122765238D01*
X171051904Y-122812857D01*
X170766190Y-122812857D01*
X170670952Y-122765238D01*
X170623333Y-122717619D01*
X170575714Y-122622380D01*
X170575714Y-122431904D01*
X170623333Y-122336666D01*
X170575714Y-121431904D02*
X171385238Y-121431904D01*
X171480476Y-121479523D01*
X171528095Y-121527142D01*
X171575714Y-121622380D01*
X171575714Y-121765238D01*
X171528095Y-121860476D01*
X171194761Y-121431904D02*
X171242380Y-121527142D01*
X171242380Y-121717619D01*
X171194761Y-121812857D01*
X171147142Y-121860476D01*
X171051904Y-121908095D01*
X170766190Y-121908095D01*
X170670952Y-121860476D01*
X170623333Y-121812857D01*
X170575714Y-121717619D01*
X170575714Y-121527142D01*
X170623333Y-121431904D01*
X172852380Y-132431904D02*
X171852380Y-132431904D01*
X172328571Y-132431904D02*
X172328571Y-131860476D01*
X172852380Y-131860476D02*
X171852380Y-131860476D01*
X172852380Y-131241428D02*
X172804761Y-131336666D01*
X172757142Y-131384285D01*
X172661904Y-131431904D01*
X172376190Y-131431904D01*
X172280952Y-131384285D01*
X172233333Y-131336666D01*
X172185714Y-131241428D01*
X172185714Y-131098571D01*
X172233333Y-131003333D01*
X172280952Y-130955714D01*
X172376190Y-130908095D01*
X172661904Y-130908095D01*
X172757142Y-130955714D01*
X172804761Y-131003333D01*
X172852380Y-131098571D01*
X172852380Y-131241428D01*
X172852380Y-130479523D02*
X172185714Y-130479523D01*
X172280952Y-130479523D02*
X172233333Y-130431904D01*
X172185714Y-130336666D01*
X172185714Y-130193809D01*
X172233333Y-130098571D01*
X172328571Y-130050952D01*
X172852380Y-130050952D01*
X172328571Y-130050952D02*
X172233333Y-130003333D01*
X172185714Y-129908095D01*
X172185714Y-129765238D01*
X172233333Y-129670000D01*
X172328571Y-129622380D01*
X172852380Y-129622380D01*
X172804761Y-128765238D02*
X172852380Y-128860476D01*
X172852380Y-129050952D01*
X172804761Y-129146190D01*
X172709523Y-129193809D01*
X172328571Y-129193809D01*
X172233333Y-129146190D01*
X172185714Y-129050952D01*
X172185714Y-128860476D01*
X172233333Y-128765238D01*
X172328571Y-128717619D01*
X172423809Y-128717619D01*
X172519047Y-129193809D01*
X172804761Y-128336666D02*
X172852380Y-128193809D01*
X172852380Y-127955714D01*
X172804761Y-127860476D01*
X172757142Y-127812857D01*
X172661904Y-127765238D01*
X172566666Y-127765238D01*
X172471428Y-127812857D01*
X172423809Y-127860476D01*
X172376190Y-127955714D01*
X172328571Y-128146190D01*
X172280952Y-128241428D01*
X172233333Y-128289047D01*
X172138095Y-128336666D01*
X172042857Y-128336666D01*
X171947619Y-128289047D01*
X171900000Y-128241428D01*
X171852380Y-128146190D01*
X171852380Y-127908095D01*
X171900000Y-127765238D01*
X172804761Y-126955714D02*
X172852380Y-127050952D01*
X172852380Y-127241428D01*
X172804761Y-127336666D01*
X172709523Y-127384285D01*
X172328571Y-127384285D01*
X172233333Y-127336666D01*
X172185714Y-127241428D01*
X172185714Y-127050952D01*
X172233333Y-126955714D01*
X172328571Y-126908095D01*
X172423809Y-126908095D01*
X172519047Y-127384285D01*
X172852380Y-126479523D02*
X172185714Y-126479523D01*
X172376190Y-126479523D02*
X172280952Y-126431904D01*
X172233333Y-126384285D01*
X172185714Y-126289047D01*
X172185714Y-126193809D01*
X172185714Y-125955714D02*
X172852380Y-125717619D01*
X172185714Y-125479523D01*
X172804761Y-124717619D02*
X172852380Y-124812857D01*
X172852380Y-125003333D01*
X172804761Y-125098571D01*
X172709523Y-125146190D01*
X172328571Y-125146190D01*
X172233333Y-125098571D01*
X172185714Y-125003333D01*
X172185714Y-124812857D01*
X172233333Y-124717619D01*
X172328571Y-124670000D01*
X172423809Y-124670000D01*
X172519047Y-125146190D01*
X172852380Y-124241428D02*
X172185714Y-124241428D01*
X172376190Y-124241428D02*
X172280952Y-124193809D01*
X172233333Y-124146190D01*
X172185714Y-124050952D01*
X172185714Y-123955714D01*
X172328571Y-122527142D02*
X172376190Y-122384285D01*
X172423809Y-122336666D01*
X172519047Y-122289047D01*
X172661904Y-122289047D01*
X172757142Y-122336666D01*
X172804761Y-122384285D01*
X172852380Y-122479523D01*
X172852380Y-122860476D01*
X171852380Y-122860476D01*
X171852380Y-122527142D01*
X171900000Y-122431904D01*
X171947619Y-122384285D01*
X172042857Y-122336666D01*
X172138095Y-122336666D01*
X172233333Y-122384285D01*
X172280952Y-122431904D01*
X172328571Y-122527142D01*
X172328571Y-122860476D01*
X172852380Y-121717619D02*
X172804761Y-121812857D01*
X172757142Y-121860476D01*
X172661904Y-121908095D01*
X172376190Y-121908095D01*
X172280952Y-121860476D01*
X172233333Y-121812857D01*
X172185714Y-121717619D01*
X172185714Y-121574761D01*
X172233333Y-121479523D01*
X172280952Y-121431904D01*
X172376190Y-121384285D01*
X172661904Y-121384285D01*
X172757142Y-121431904D01*
X172804761Y-121479523D01*
X172852380Y-121574761D01*
X172852380Y-121717619D01*
X172852380Y-120527142D02*
X172328571Y-120527142D01*
X172233333Y-120574761D01*
X172185714Y-120670000D01*
X172185714Y-120860476D01*
X172233333Y-120955714D01*
X172804761Y-120527142D02*
X172852380Y-120622380D01*
X172852380Y-120860476D01*
X172804761Y-120955714D01*
X172709523Y-121003333D01*
X172614285Y-121003333D01*
X172519047Y-120955714D01*
X172471428Y-120860476D01*
X172471428Y-120622380D01*
X172423809Y-120527142D01*
X172852380Y-120050952D02*
X172185714Y-120050952D01*
X172376190Y-120050952D02*
X172280952Y-120003333D01*
X172233333Y-119955714D01*
X172185714Y-119860476D01*
X172185714Y-119765238D01*
X172852380Y-119003333D02*
X171852380Y-119003333D01*
X172804761Y-119003333D02*
X172852380Y-119098571D01*
X172852380Y-119289047D01*
X172804761Y-119384285D01*
X172757142Y-119431904D01*
X172661904Y-119479523D01*
X172376190Y-119479523D01*
X172280952Y-119431904D01*
X172233333Y-119384285D01*
X172185714Y-119289047D01*
X172185714Y-119098571D01*
X172233333Y-119003333D01*
X171852380Y-117908095D02*
X172852380Y-117574761D01*
X171852380Y-117241428D01*
X172852380Y-116384285D02*
X172852380Y-116955714D01*
X172852380Y-116670000D02*
X171852380Y-116670000D01*
X171995238Y-116765238D01*
X172090476Y-116860476D01*
X172138095Y-116955714D01*
X173557619Y-132479523D02*
X173510000Y-132431904D01*
X173462380Y-132336666D01*
X173462380Y-132098571D01*
X173510000Y-132003333D01*
X173557619Y-131955714D01*
X173652857Y-131908095D01*
X173748095Y-131908095D01*
X173890952Y-131955714D01*
X174462380Y-132527142D01*
X174462380Y-131908095D01*
X173462380Y-131289047D02*
X173462380Y-131193809D01*
X173510000Y-131098571D01*
X173557619Y-131050952D01*
X173652857Y-131003333D01*
X173843333Y-130955714D01*
X174081428Y-130955714D01*
X174271904Y-131003333D01*
X174367142Y-131050952D01*
X174414761Y-131098571D01*
X174462380Y-131193809D01*
X174462380Y-131289047D01*
X174414761Y-131384285D01*
X174367142Y-131431904D01*
X174271904Y-131479523D01*
X174081428Y-131527142D01*
X173843333Y-131527142D01*
X173652857Y-131479523D01*
X173557619Y-131431904D01*
X173510000Y-131384285D01*
X173462380Y-131289047D01*
X173557619Y-130574761D02*
X173510000Y-130527142D01*
X173462380Y-130431904D01*
X173462380Y-130193809D01*
X173510000Y-130098571D01*
X173557619Y-130050952D01*
X173652857Y-130003333D01*
X173748095Y-130003333D01*
X173890952Y-130050952D01*
X174462380Y-130622380D01*
X174462380Y-130003333D01*
X174462380Y-129050952D02*
X174462380Y-129622380D01*
X174462380Y-129336666D02*
X173462380Y-129336666D01*
X173605238Y-129431904D01*
X173700476Y-129527142D01*
X173748095Y-129622380D01*
D11*
%TO.C,CR1*%
X172533333Y-115357142D02*
X172485714Y-115404761D01*
X172342857Y-115452380D01*
X172247619Y-115452380D01*
X172104761Y-115404761D01*
X172009523Y-115309523D01*
X171961904Y-115214285D01*
X171914285Y-115023809D01*
X171914285Y-114880952D01*
X171961904Y-114690476D01*
X172009523Y-114595238D01*
X172104761Y-114500000D01*
X172247619Y-114452380D01*
X172342857Y-114452380D01*
X172485714Y-114500000D01*
X172533333Y-114547619D01*
X173533333Y-115452380D02*
X173200000Y-114976190D01*
X172961904Y-115452380D02*
X172961904Y-114452380D01*
X173342857Y-114452380D01*
X173438095Y-114500000D01*
X173485714Y-114547619D01*
X173533333Y-114642857D01*
X173533333Y-114785714D01*
X173485714Y-114880952D01*
X173438095Y-114928571D01*
X173342857Y-114976190D01*
X172961904Y-114976190D01*
X174485714Y-115452380D02*
X173914285Y-115452380D01*
X174200000Y-115452380D02*
X174200000Y-114452380D01*
X174104761Y-114595238D01*
X174009523Y-114690476D01*
X173914285Y-114738095D01*
X173500000Y-110952380D02*
X173500000Y-111190476D01*
X173261904Y-111095238D02*
X173500000Y-111190476D01*
X173738095Y-111095238D01*
X173357142Y-111380952D02*
X173500000Y-111190476D01*
X173642857Y-111380952D01*
D12*
%TO.C,R2*%
X171448102Y-85805616D02*
X171260626Y-85936850D01*
X171448102Y-86030588D02*
X171054401Y-86030588D01*
X171054401Y-85880607D01*
X171073149Y-85843112D01*
X171091897Y-85824364D01*
X171129392Y-85805616D01*
X171185635Y-85805616D01*
X171223130Y-85824364D01*
X171241878Y-85843112D01*
X171260626Y-85880607D01*
X171260626Y-86030588D01*
X171091897Y-85655635D02*
X171073149Y-85636887D01*
X171054401Y-85599392D01*
X171054401Y-85505654D01*
X171073149Y-85468158D01*
X171091897Y-85449411D01*
X171129392Y-85430663D01*
X171166887Y-85430663D01*
X171223130Y-85449411D01*
X171448102Y-85674383D01*
X171448102Y-85430663D01*
D11*
%TO.C,LED1*%
X174080952Y-88352380D02*
X173604761Y-88352380D01*
X173604761Y-87352380D01*
X174414285Y-87828571D02*
X174747619Y-87828571D01*
X174890476Y-88352380D02*
X174414285Y-88352380D01*
X174414285Y-87352380D01*
X174890476Y-87352380D01*
X175319047Y-88352380D02*
X175319047Y-87352380D01*
X175557142Y-87352380D01*
X175700000Y-87400000D01*
X175795238Y-87495238D01*
X175842857Y-87590476D01*
X175890476Y-87780952D01*
X175890476Y-87923809D01*
X175842857Y-88114285D01*
X175795238Y-88209523D01*
X175700000Y-88304761D01*
X175557142Y-88352380D01*
X175319047Y-88352380D01*
X176842857Y-88352380D02*
X176271428Y-88352380D01*
X176557142Y-88352380D02*
X176557142Y-87352380D01*
X176461904Y-87495238D01*
X176366666Y-87590476D01*
X176271428Y-87638095D01*
X173600000Y-84052380D02*
X173600000Y-84290476D01*
X173361904Y-84195238D02*
X173600000Y-84290476D01*
X173838095Y-84195238D01*
X173457142Y-84480952D02*
X173600000Y-84290476D01*
X173742857Y-84480952D01*
D12*
%TO.C,R4*%
X171448102Y-81805616D02*
X171260626Y-81936850D01*
X171448102Y-82030588D02*
X171054401Y-82030588D01*
X171054401Y-81880607D01*
X171073149Y-81843112D01*
X171091897Y-81824364D01*
X171129392Y-81805616D01*
X171185635Y-81805616D01*
X171223130Y-81824364D01*
X171241878Y-81843112D01*
X171260626Y-81880607D01*
X171260626Y-82030588D01*
X171185635Y-81468158D02*
X171448102Y-81468158D01*
X171035654Y-81561897D02*
X171316869Y-81655635D01*
X171316869Y-81411915D01*
%TO.C,R3*%
X172234383Y-94278102D02*
X172103149Y-94090626D01*
X172009411Y-94278102D02*
X172009411Y-93884401D01*
X172159392Y-93884401D01*
X172196887Y-93903149D01*
X172215635Y-93921897D01*
X172234383Y-93959392D01*
X172234383Y-94015635D01*
X172215635Y-94053130D01*
X172196887Y-94071878D01*
X172159392Y-94090626D01*
X172009411Y-94090626D01*
X172365616Y-93884401D02*
X172609336Y-93884401D01*
X172478102Y-94034383D01*
X172534345Y-94034383D01*
X172571841Y-94053130D01*
X172590588Y-94071878D01*
X172609336Y-94109373D01*
X172609336Y-94203112D01*
X172590588Y-94240607D01*
X172571841Y-94259355D01*
X172534345Y-94278102D01*
X172421859Y-94278102D01*
X172384364Y-94259355D01*
X172365616Y-94240607D01*
D11*
%TO.C,J1*%
X174952380Y-100833333D02*
X175666666Y-100833333D01*
X175809523Y-100880952D01*
X175904761Y-100976190D01*
X175952380Y-101119047D01*
X175952380Y-101214285D01*
X175952380Y-99833333D02*
X175952380Y-100404761D01*
X175952380Y-100119047D02*
X174952380Y-100119047D01*
X175095238Y-100214285D01*
X175190476Y-100309523D01*
X175238095Y-100404761D01*
D12*
%TO.C,R1*%
X172334383Y-89278102D02*
X172203149Y-89090626D01*
X172109411Y-89278102D02*
X172109411Y-88884401D01*
X172259392Y-88884401D01*
X172296887Y-88903149D01*
X172315635Y-88921897D01*
X172334383Y-88959392D01*
X172334383Y-89015635D01*
X172315635Y-89053130D01*
X172296887Y-89071878D01*
X172259392Y-89090626D01*
X172109411Y-89090626D01*
X172709336Y-89278102D02*
X172484364Y-89278102D01*
X172596850Y-89278102D02*
X172596850Y-88884401D01*
X172559355Y-88940644D01*
X172521859Y-88978140D01*
X172484364Y-88996887D01*
D11*
%TO.C,LED2*%
X173780952Y-81152380D02*
X173304761Y-81152380D01*
X173304761Y-80152380D01*
X174114285Y-80628571D02*
X174447619Y-80628571D01*
X174590476Y-81152380D02*
X174114285Y-81152380D01*
X174114285Y-80152380D01*
X174590476Y-80152380D01*
X175019047Y-81152380D02*
X175019047Y-80152380D01*
X175257142Y-80152380D01*
X175400000Y-80200000D01*
X175495238Y-80295238D01*
X175542857Y-80390476D01*
X175590476Y-80580952D01*
X175590476Y-80723809D01*
X175542857Y-80914285D01*
X175495238Y-81009523D01*
X175400000Y-81104761D01*
X175257142Y-81152380D01*
X175019047Y-81152380D01*
X175971428Y-80247619D02*
X176019047Y-80200000D01*
X176114285Y-80152380D01*
X176352380Y-80152380D01*
X176447619Y-80200000D01*
X176495238Y-80247619D01*
X176542857Y-80342857D01*
X176542857Y-80438095D01*
X176495238Y-80580952D01*
X175923809Y-81152380D01*
X176542857Y-81152380D01*
X172800000Y-79452380D02*
X172800000Y-79690476D01*
X172561904Y-79595238D02*
X172800000Y-79690476D01*
X173038095Y-79595238D01*
X172657142Y-79880952D02*
X172800000Y-79690476D01*
X172942857Y-79880952D01*
%TO.C,Module1*%
X167952380Y-102857142D02*
X166952380Y-102857142D01*
X167666666Y-102523809D01*
X166952380Y-102190476D01*
X167952380Y-102190476D01*
X167952380Y-101571428D02*
X167904761Y-101666666D01*
X167857142Y-101714285D01*
X167761904Y-101761904D01*
X167476190Y-101761904D01*
X167380952Y-101714285D01*
X167333333Y-101666666D01*
X167285714Y-101571428D01*
X167285714Y-101428571D01*
X167333333Y-101333333D01*
X167380952Y-101285714D01*
X167476190Y-101238095D01*
X167761904Y-101238095D01*
X167857142Y-101285714D01*
X167904761Y-101333333D01*
X167952380Y-101428571D01*
X167952380Y-101571428D01*
X167952380Y-100380952D02*
X166952380Y-100380952D01*
X167904761Y-100380952D02*
X167952380Y-100476190D01*
X167952380Y-100666666D01*
X167904761Y-100761904D01*
X167857142Y-100809523D01*
X167761904Y-100857142D01*
X167476190Y-100857142D01*
X167380952Y-100809523D01*
X167333333Y-100761904D01*
X167285714Y-100666666D01*
X167285714Y-100476190D01*
X167333333Y-100380952D01*
X167285714Y-99476190D02*
X167952380Y-99476190D01*
X167285714Y-99904761D02*
X167809523Y-99904761D01*
X167904761Y-99857142D01*
X167952380Y-99761904D01*
X167952380Y-99619047D01*
X167904761Y-99523809D01*
X167857142Y-99476190D01*
X167952380Y-98857142D02*
X167904761Y-98952380D01*
X167809523Y-99000000D01*
X166952380Y-99000000D01*
X167904761Y-98095238D02*
X167952380Y-98190476D01*
X167952380Y-98380952D01*
X167904761Y-98476190D01*
X167809523Y-98523809D01*
X167428571Y-98523809D01*
X167333333Y-98476190D01*
X167285714Y-98380952D01*
X167285714Y-98190476D01*
X167333333Y-98095238D01*
X167428571Y-98047619D01*
X167523809Y-98047619D01*
X167619047Y-98523809D01*
X167952380Y-97095238D02*
X167952380Y-97666666D01*
X167952380Y-97380952D02*
X166952380Y-97380952D01*
X167095238Y-97476190D01*
X167190476Y-97571428D01*
X167238095Y-97666666D01*
D13*
%TO.C,CR1*%
X168699400Y-111500000D02*
X169461400Y-111754000D01*
X169461400Y-110865000D02*
X169461400Y-112135000D01*
X175925700Y-109391800D02*
X171074300Y-109391800D01*
X171074300Y-109391800D02*
X171074300Y-110036960D01*
X171074300Y-112963040D02*
X171074300Y-113608200D01*
X168699400Y-111500000D02*
X169461400Y-111119000D01*
X168699400Y-111500000D02*
X169461400Y-112135000D01*
X168699400Y-111500000D02*
X169461400Y-110992000D01*
X171074300Y-113608200D02*
X175925700Y-113608200D01*
X175925700Y-113608200D02*
X175925700Y-112963040D01*
X168699400Y-111500000D02*
X169461400Y-110865000D01*
X169715400Y-111500000D02*
X168445400Y-111500000D01*
X168699400Y-111500000D02*
X169461400Y-111246000D01*
X168699400Y-111500000D02*
X169461400Y-111627000D01*
X168699400Y-111500000D02*
X169461400Y-111373000D01*
X168699400Y-110865000D02*
X168699400Y-112135000D01*
X168699400Y-111500000D02*
X169461400Y-112008000D01*
X168699400Y-111500000D02*
X169461400Y-111881000D01*
X175925700Y-110036960D02*
X175925700Y-109391800D01*
%TO.C,U1*%
X165869700Y-84616297D02*
X165869700Y-85583703D01*
X167139459Y-84350700D02*
X166860541Y-84350700D01*
X168130300Y-85583703D02*
X168130300Y-84616297D01*
D14*
%TO.C,R2*%
X170680000Y-86100000D02*
X170680000Y-86300000D01*
X169320000Y-86100000D02*
X169320000Y-86300000D01*
D13*
%TO.C,LED1*%
X173782040Y-86372300D02*
X174217960Y-86372300D01*
X175181100Y-85127700D02*
X172818900Y-85127700D01*
X175181100Y-85426660D02*
X175181100Y-85127700D01*
X172818900Y-85127700D02*
X172818900Y-85426660D01*
D14*
%TO.C,R4*%
X170680000Y-82100000D02*
X170680000Y-82300000D01*
X169320000Y-82100000D02*
X169320000Y-82300000D01*
%TO.C,R3*%
X171100000Y-93430000D02*
X170900000Y-93430000D01*
X171100000Y-92070000D02*
X170900000Y-92070000D01*
D10*
%TO.C,J1*%
X172297500Y-97030000D02*
X173507500Y-97030000D01*
X177717500Y-105970000D02*
X177717500Y-97030000D01*
X172297500Y-105970000D02*
X173507500Y-105970000D01*
X176227500Y-105970000D02*
X177717500Y-105970000D01*
X177717500Y-97030000D02*
X176227500Y-97030000D01*
X169307500Y-105280000D02*
G75*
G03*
X169307500Y-105280000I-100000J0D01*
G01*
D14*
%TO.C,R1*%
X171100000Y-89820000D02*
X170900000Y-89820000D01*
X171100000Y-91180000D02*
X170900000Y-91180000D01*
D13*
%TO.C,LED2*%
X175181100Y-81893460D02*
X175181100Y-81594500D01*
X172818900Y-81594500D02*
X172818900Y-81893460D01*
X173782040Y-82839100D02*
X174217960Y-82839100D01*
X175181100Y-81594500D02*
X172818900Y-81594500D01*
%TO.C,Module1*%
X161826655Y-88652982D02*
X161826655Y-89652982D01*
X165606655Y-88652982D02*
X165606655Y-89652982D01*
X165606655Y-111452982D02*
X161826655Y-111452982D01*
X165606655Y-88652982D02*
X161826655Y-88652982D01*
%TD*%
M02*
