%TF.GenerationSoftware,KiCad,Pcbnew,(5.99.0-11661-g1332208ab1)*%
%TF.CreationDate,2021-08-26T20:26:43-05:00*%
%TF.ProjectId,rpi-cm4-carrier-template,7270692d-636d-4342-9d63-617272696572,v01*%
%TF.SameCoordinates,Original*%
%TF.FileFunction,Copper,L1,Top*%
%TF.FilePolarity,Positive*%
%FSLAX46Y46*%
G04 Gerber Fmt 4.6, Leading zero omitted, Abs format (unit mm)*
G04 Created by KiCad (PCBNEW (5.99.0-11661-g1332208ab1)) date 2021-08-26 20:26:43*
%MOMM*%
%LPD*%
G01*
G04 APERTURE LIST*
%TA.AperFunction,SMDPad,CuDef*%
%ADD10R,2.209800X2.260600*%
%TD*%
%TA.AperFunction,SMDPad,CuDef*%
%ADD11R,0.355600X0.833300*%
%TD*%
%TA.AperFunction,SMDPad,CuDef*%
%ADD12R,1.380000X1.040000*%
%TD*%
%TA.AperFunction,SMDPad,CuDef*%
%ADD13R,1.498600X0.990600*%
%TD*%
%TA.AperFunction,SMDPad,CuDef*%
%ADD14R,1.040000X1.380000*%
%TD*%
%TA.AperFunction,SMDPad,CuDef*%
%ADD15R,1.150000X0.600000*%
%TD*%
%TA.AperFunction,SMDPad,CuDef*%
%ADD16R,1.150000X0.300000*%
%TD*%
%TA.AperFunction,SMDPad,CuDef*%
%ADD17R,2.000000X2.180000*%
%TD*%
%TA.AperFunction,SMDPad,CuDef*%
%ADD18R,0.700000X0.200000*%
%TD*%
%TA.AperFunction,ViaPad*%
%ADD19C,0.508000*%
%TD*%
%TA.AperFunction,Conductor*%
%ADD20C,0.508000*%
%TD*%
%TA.AperFunction,Conductor*%
%ADD21C,0.300000*%
%TD*%
%TA.AperFunction,Conductor*%
%ADD22C,0.152400*%
%TD*%
%TA.AperFunction,Conductor*%
%ADD23C,0.200000*%
%TD*%
%TA.AperFunction,Conductor*%
%ADD24C,0.600000*%
%TD*%
%TA.AperFunction,Conductor*%
%ADD25C,1.350000*%
%TD*%
G04 APERTURE END LIST*
D10*
%TO.P,CR1,1,1*%
%TO.N,+5V*%
X171455300Y-111500000D03*
%TO.P,CR1,2,2*%
%TO.N,GND*%
X175544700Y-111500000D03*
%TD*%
D11*
%TO.P,U1,1,NC*%
%TO.N,unconnected-(U1-Pad1)*%
X166350001Y-86138949D03*
%TO.P,U1,2,INA*%
%TO.N,/CM4 GPIO/nPWR_LED*%
X167000000Y-86138949D03*
%TO.P,U1,3,GND*%
%TO.N,GND*%
X167649999Y-86138949D03*
%TO.P,U1,4,OUTY*%
%TO.N,Net-(R4-Pad2)*%
X167649999Y-84061051D03*
%TO.P,U1,5,VCC*%
%TO.N,+3.3V*%
X166350001Y-84061051D03*
%TD*%
D12*
%TO.P,R2,1*%
%TO.N,Net-(LED1-Pad1)*%
X170000000Y-85260000D03*
%TO.P,R2,2*%
%TO.N,/CM4 GPIO/nLED_Activity*%
X170000000Y-87140000D03*
%TD*%
D13*
%TO.P,LED1,2,2*%
%TO.N,+3.3V*%
X175300000Y-86254700D03*
%TO.P,LED1,1,1*%
%TO.N,Net-(LED1-Pad1)*%
X172700000Y-86254700D03*
%TD*%
D12*
%TO.P,R4,1*%
%TO.N,Net-(LED2-Pad1)*%
X170000000Y-81260000D03*
%TO.P,R4,2*%
%TO.N,Net-(R4-Pad2)*%
X170000000Y-83140000D03*
%TD*%
D14*
%TO.P,R3,1*%
%TO.N,Net-(J1-PadB5)*%
X171940000Y-92750000D03*
%TO.P,R3,2*%
%TO.N,GND*%
X170060000Y-92750000D03*
%TD*%
D15*
%TO.P,J1,A1/B12,GND*%
%TO.N,GND*%
X170362500Y-104700000D03*
%TO.P,J1,A4/B9,VBUS*%
%TO.N,+5V*%
X170362500Y-103900000D03*
D16*
%TO.P,J1,A5,CC1*%
%TO.N,Net-(J1-PadA5)*%
X170362500Y-102750000D03*
%TO.P,J1,A6,DP1*%
%TO.N,unconnected-(J1-PadA6)*%
X170362500Y-101750000D03*
%TO.P,J1,A7,DN1*%
%TO.N,unconnected-(J1-PadA7)*%
X170362500Y-101250000D03*
%TO.P,J1,A8,SBU1*%
%TO.N,unconnected-(J1-PadA8)*%
X170362500Y-100250000D03*
D15*
%TO.P,J1,B1/A12,GND*%
%TO.N,GND*%
X170362500Y-98300000D03*
%TO.P,J1,B4/A9,VBUS*%
%TO.N,+5V*%
X170362500Y-99100000D03*
D16*
%TO.P,J1,B5,CC2*%
%TO.N,Net-(J1-PadB5)*%
X170362500Y-99750000D03*
%TO.P,J1,B6,DP2*%
%TO.N,unconnected-(J1-PadB6)*%
X170362500Y-100750000D03*
%TO.P,J1,B7,DN2*%
%TO.N,unconnected-(J1-PadB7)*%
X170362500Y-102250000D03*
%TO.P,J1,B8,SBU2*%
%TO.N,unconnected-(J1-PadB8)*%
X170362500Y-103250000D03*
D17*
%TO.P,J1,S1,GND*%
%TO.N,GND*%
X170937500Y-106610000D03*
%TO.P,J1,S2,GND*%
X170937500Y-96390000D03*
%TO.P,J1,S3,GND*%
X174867500Y-106610000D03*
%TO.P,J1,S4,GND*%
X174867500Y-96390000D03*
%TD*%
D14*
%TO.P,R1,1*%
%TO.N,Net-(J1-PadA5)*%
X171940000Y-90500000D03*
%TO.P,R1,2*%
%TO.N,GND*%
X170060000Y-90500000D03*
%TD*%
D13*
%TO.P,LED2,2,2*%
%TO.N,+3.3V*%
X175300000Y-82721500D03*
%TO.P,LED2,1,1*%
%TO.N,Net-(LED2-Pad1)*%
X172700000Y-82721500D03*
%TD*%
D18*
%TO.P,Module1,1,GND*%
%TO.N,GND*%
X165256655Y-109852982D03*
%TO.P,Module1,2,GND*%
X162176655Y-109852982D03*
%TO.P,Module1,3,Ethernet_Pair3_P*%
%TO.N,unconnected-(Module1-Pad3)*%
X165256655Y-109452982D03*
%TO.P,Module1,4,Ethernet_Pair1_P*%
%TO.N,unconnected-(Module1-Pad4)*%
X162176655Y-109452982D03*
%TO.P,Module1,5,Ethernet_Pair3_N*%
%TO.N,unconnected-(Module1-Pad5)*%
X165256655Y-109052982D03*
%TO.P,Module1,6,Ethernet_Pair1_N*%
%TO.N,unconnected-(Module1-Pad6)*%
X162176655Y-109052982D03*
%TO.P,Module1,7,GND*%
%TO.N,GND*%
X165256655Y-108652982D03*
%TO.P,Module1,8,GND*%
X162176655Y-108652982D03*
%TO.P,Module1,9,Ethernet_Pair2_N*%
%TO.N,unconnected-(Module1-Pad9)*%
X165256655Y-108252982D03*
%TO.P,Module1,10,Ethernet_Pair0_N*%
%TO.N,unconnected-(Module1-Pad10)*%
X162176655Y-108252982D03*
%TO.P,Module1,11,Ethernet_Pair2_P*%
%TO.N,unconnected-(Module1-Pad11)*%
X165256655Y-107852982D03*
%TO.P,Module1,12,Ethernet_Pair0_P*%
%TO.N,unconnected-(Module1-Pad12)*%
X162176655Y-107852982D03*
%TO.P,Module1,13,GND*%
%TO.N,GND*%
X165256655Y-107452982D03*
%TO.P,Module1,14,GND*%
X162176655Y-107452982D03*
%TO.P,Module1,15,Ethernet_nLED3(3.3v)*%
%TO.N,unconnected-(Module1-Pad15)*%
X165256655Y-107052982D03*
%TO.P,Module1,16,Ethernet_SYNC_IN(1.8v)*%
%TO.N,unconnected-(Module1-Pad16)*%
X162176655Y-107052982D03*
%TO.P,Module1,17,Ethernet_nLED2(3.3v)*%
%TO.N,unconnected-(Module1-Pad17)*%
X165256655Y-106652982D03*
%TO.P,Module1,18,Ethernet_SYNC_OUT(1.8v)*%
%TO.N,unconnected-(Module1-Pad18)*%
X162176655Y-106652982D03*
%TO.P,Module1,19,Ethernet_nLED1(3.3v)*%
%TO.N,unconnected-(Module1-Pad19)*%
X165256655Y-106252982D03*
%TO.P,Module1,20,EEPROM_nWP*%
%TO.N,unconnected-(Module1-Pad20)*%
X162176655Y-106252982D03*
%TO.P,Module1,21,PI_nLED_Activity*%
%TO.N,/CM4 GPIO/nLED_Activity*%
X165256655Y-105852982D03*
%TO.P,Module1,22,GND*%
%TO.N,GND*%
X162176655Y-105852982D03*
%TO.P,Module1,23,GND*%
X165256655Y-105452982D03*
%TO.P,Module1,24,GPIO26*%
%TO.N,unconnected-(Module1-Pad24)*%
X162176655Y-105452982D03*
%TO.P,Module1,25,GPIO21*%
%TO.N,unconnected-(Module1-Pad25)*%
X165256655Y-105052982D03*
%TO.P,Module1,26,GPIO19*%
%TO.N,unconnected-(Module1-Pad26)*%
X162176655Y-105052982D03*
%TO.P,Module1,27,GPIO20*%
%TO.N,unconnected-(Module1-Pad27)*%
X165256655Y-104652982D03*
%TO.P,Module1,28,GPIO13*%
%TO.N,unconnected-(Module1-Pad28)*%
X162176655Y-104652982D03*
%TO.P,Module1,29,GPIO16*%
%TO.N,unconnected-(Module1-Pad29)*%
X165256655Y-104252982D03*
%TO.P,Module1,30,GPIO6*%
%TO.N,unconnected-(Module1-Pad30)*%
X162176655Y-104252982D03*
%TO.P,Module1,31,GPIO12*%
%TO.N,unconnected-(Module1-Pad31)*%
X165256655Y-103852982D03*
%TO.P,Module1,32,GND*%
%TO.N,GND*%
X162176655Y-103852982D03*
%TO.P,Module1,33,GND*%
X165256655Y-103452982D03*
%TO.P,Module1,34,GPIO5*%
%TO.N,unconnected-(Module1-Pad34)*%
X162176655Y-103452982D03*
%TO.P,Module1,35,ID_SC*%
%TO.N,unconnected-(Module1-Pad35)*%
X165256655Y-103052982D03*
%TO.P,Module1,36,ID_SD*%
%TO.N,unconnected-(Module1-Pad36)*%
X162176655Y-103052982D03*
%TO.P,Module1,37,GPIO7*%
%TO.N,unconnected-(Module1-Pad37)*%
X165256655Y-102652982D03*
%TO.P,Module1,38,GPIO11*%
%TO.N,unconnected-(Module1-Pad38)*%
X162176655Y-102652982D03*
%TO.P,Module1,39,GPIO8*%
%TO.N,unconnected-(Module1-Pad39)*%
X165256655Y-102252982D03*
%TO.P,Module1,40,GPIO9*%
%TO.N,unconnected-(Module1-Pad40)*%
X162176655Y-102252982D03*
%TO.P,Module1,41,GPIO25*%
%TO.N,unconnected-(Module1-Pad41)*%
X165256655Y-101852982D03*
%TO.P,Module1,42,GND*%
%TO.N,GND*%
X162176655Y-101852982D03*
%TO.P,Module1,43,GND*%
X165256655Y-101452982D03*
%TO.P,Module1,44,GPIO10*%
%TO.N,unconnected-(Module1-Pad44)*%
X162176655Y-101452982D03*
%TO.P,Module1,45,GPIO24*%
%TO.N,unconnected-(Module1-Pad45)*%
X165256655Y-101052982D03*
%TO.P,Module1,46,GPIO22*%
%TO.N,unconnected-(Module1-Pad46)*%
X162176655Y-101052982D03*
%TO.P,Module1,47,GPIO23*%
%TO.N,unconnected-(Module1-Pad47)*%
X165256655Y-100652982D03*
%TO.P,Module1,48,GPIO27*%
%TO.N,unconnected-(Module1-Pad48)*%
X162176655Y-100652982D03*
%TO.P,Module1,49,GPIO18*%
%TO.N,unconnected-(Module1-Pad49)*%
X165256655Y-100252982D03*
%TO.P,Module1,50,GPIO17*%
%TO.N,unconnected-(Module1-Pad50)*%
X162176655Y-100252982D03*
%TO.P,Module1,51,GPIO15*%
%TO.N,unconnected-(Module1-Pad51)*%
X165256655Y-99852982D03*
%TO.P,Module1,52,GND*%
%TO.N,GND*%
X162176655Y-99852982D03*
%TO.P,Module1,53,GND*%
X165256655Y-99452982D03*
%TO.P,Module1,54,GPIO4*%
%TO.N,unconnected-(Module1-Pad54)*%
X162176655Y-99452982D03*
%TO.P,Module1,55,GPIO14*%
%TO.N,unconnected-(Module1-Pad55)*%
X165256655Y-99052982D03*
%TO.P,Module1,56,GPIO3*%
%TO.N,unconnected-(Module1-Pad56)*%
X162176655Y-99052982D03*
%TO.P,Module1,57,SD_CLK*%
%TO.N,unconnected-(Module1-Pad57)*%
X165256655Y-98652982D03*
%TO.P,Module1,58,GPIO2*%
%TO.N,unconnected-(Module1-Pad58)*%
X162176655Y-98652982D03*
%TO.P,Module1,59,GND*%
%TO.N,GND*%
X165256655Y-98252982D03*
%TO.P,Module1,60,GND*%
X162176655Y-98252982D03*
%TO.P,Module1,61,SD_DAT3*%
%TO.N,unconnected-(Module1-Pad61)*%
X165256655Y-97852982D03*
%TO.P,Module1,62,SD_CMD*%
%TO.N,unconnected-(Module1-Pad62)*%
X162176655Y-97852982D03*
%TO.P,Module1,63,SD_DAT0*%
%TO.N,unconnected-(Module1-Pad63)*%
X165256655Y-97452982D03*
%TO.P,Module1,64,SD_DAT5*%
%TO.N,unconnected-(Module1-Pad64)*%
X162176655Y-97452982D03*
%TO.P,Module1,65,GND*%
%TO.N,GND*%
X165256655Y-97052982D03*
%TO.P,Module1,66,GND*%
X162176655Y-97052982D03*
%TO.P,Module1,67,SD_DAT1*%
%TO.N,unconnected-(Module1-Pad67)*%
X165256655Y-96652982D03*
%TO.P,Module1,68,SD_DAT4*%
%TO.N,unconnected-(Module1-Pad68)*%
X162176655Y-96652982D03*
%TO.P,Module1,69,SD_DAT2*%
%TO.N,unconnected-(Module1-Pad69)*%
X165256655Y-96252982D03*
%TO.P,Module1,70,SD_DAT7*%
%TO.N,unconnected-(Module1-Pad70)*%
X162176655Y-96252982D03*
%TO.P,Module1,71,GND*%
%TO.N,GND*%
X165256655Y-95852982D03*
%TO.P,Module1,72,SD_DAT6*%
%TO.N,unconnected-(Module1-Pad72)*%
X162176655Y-95852982D03*
%TO.P,Module1,73,SD_VDD_Override*%
%TO.N,unconnected-(Module1-Pad73)*%
X165256655Y-95452982D03*
%TO.P,Module1,74,GND*%
%TO.N,GND*%
X162176655Y-95452982D03*
%TO.P,Module1,75,SD_PWR_ON*%
%TO.N,unconnected-(Module1-Pad75)*%
X165256655Y-95052982D03*
%TO.P,Module1,76,Reserved*%
%TO.N,unconnected-(Module1-Pad76)*%
X162176655Y-95052982D03*
%TO.P,Module1,77,+5v_(Input)*%
%TO.N,+5V*%
X165256655Y-94652982D03*
%TO.P,Module1,78,GPIO_VREF(1.8v/3.3v_Input)*%
%TO.N,unconnected-(Module1-Pad78)*%
X162176655Y-94652982D03*
%TO.P,Module1,79,+5v_(Input)*%
%TO.N,+5V*%
X165256655Y-94252982D03*
%TO.P,Module1,80,SCL0*%
%TO.N,unconnected-(Module1-Pad80)*%
X162176655Y-94252982D03*
%TO.P,Module1,81,+5v_(Input)*%
%TO.N,+5V*%
X165256655Y-93852982D03*
%TO.P,Module1,82,SDA0*%
%TO.N,unconnected-(Module1-Pad82)*%
X162176655Y-93852982D03*
%TO.P,Module1,83,+5v_(Input)*%
%TO.N,+5V*%
X165256655Y-93452982D03*
%TO.P,Module1,84,+3.3v_(Output)*%
%TO.N,+3.3V*%
X162176655Y-93452982D03*
%TO.P,Module1,85,+5v_(Input)*%
%TO.N,+5V*%
X165256655Y-93052982D03*
%TO.P,Module1,86,+3.3v_(Output)*%
%TO.N,+3.3V*%
X162176655Y-93052982D03*
%TO.P,Module1,87,+5v_(Input)*%
%TO.N,+5V*%
X165256655Y-92652982D03*
%TO.P,Module1,88,+1.8v_(Output)*%
%TO.N,+1.8V*%
X162176655Y-92652982D03*
%TO.P,Module1,89,WiFi_nDisable*%
%TO.N,unconnected-(Module1-Pad89)*%
X165256655Y-92252982D03*
%TO.P,Module1,90,+1.8v_(Output)*%
%TO.N,+1.8V*%
X162176655Y-92252982D03*
%TO.P,Module1,91,BT_nDisable*%
%TO.N,unconnected-(Module1-Pad91)*%
X165256655Y-91852982D03*
%TO.P,Module1,92,RUN_PG*%
%TO.N,unconnected-(Module1-Pad92)*%
X162176655Y-91852982D03*
%TO.P,Module1,93,nRPIBOOT*%
%TO.N,unconnected-(Module1-Pad93)*%
X165256655Y-91452982D03*
%TO.P,Module1,94,AnalogIP0*%
%TO.N,unconnected-(Module1-Pad94)*%
X162176655Y-91452982D03*
%TO.P,Module1,95,nPI_LED_PWR*%
%TO.N,/CM4 GPIO/nPWR_LED*%
X165256655Y-91052982D03*
%TO.P,Module1,96,AnalogIP1*%
%TO.N,unconnected-(Module1-Pad96)*%
X162176655Y-91052982D03*
%TO.P,Module1,97,Camera_GPIO*%
%TO.N,unconnected-(Module1-Pad97)*%
X165256655Y-90652982D03*
%TO.P,Module1,98,GND*%
%TO.N,GND*%
X162176655Y-90652982D03*
%TO.P,Module1,99,Global_EN*%
%TO.N,unconnected-(Module1-Pad99)*%
X165256655Y-90252982D03*
%TO.P,Module1,100,nEXTRST*%
%TO.N,unconnected-(Module1-Pad100)*%
X162176655Y-90252982D03*
%TD*%
D19*
%TO.N,/CM4 GPIO/nLED_Activity*%
X168600000Y-88100000D03*
X163900000Y-105100000D03*
%TD*%
D20*
%TO.N,+3.3V*%
X166750000Y-79750000D02*
X173750000Y-79750000D01*
X175300000Y-81300000D02*
X175300000Y-82721500D01*
X165100000Y-81400000D02*
X166750000Y-79750000D01*
X173750000Y-79750000D02*
X175300000Y-81300000D01*
D21*
%TO.N,Net-(LED2-Pad1)*%
X171238500Y-81260000D02*
X172700000Y-82721500D01*
X170000000Y-81260000D02*
X171238500Y-81260000D01*
D22*
%TO.N,/CM4 GPIO/nLED_Activity*%
X169560000Y-87140000D02*
X170000000Y-87140000D01*
X168600000Y-88100000D02*
X169560000Y-87140000D01*
X163900000Y-105200000D02*
X163900000Y-105100000D01*
X164552982Y-105852982D02*
X163900000Y-105200000D01*
X165256655Y-105852982D02*
X164552982Y-105852982D01*
D21*
%TO.N,/CM4 GPIO/nPWR_LED*%
X167000000Y-89815859D02*
X165815859Y-91000000D01*
X167000000Y-86138949D02*
X167000000Y-89815859D01*
%TO.N,Net-(LED1-Pad1)*%
X171705300Y-85260000D02*
X172700000Y-86254700D01*
X170000000Y-85260000D02*
X171705300Y-85260000D01*
%TO.N,Net-(R4-Pad2)*%
X169078949Y-84061051D02*
X170000000Y-83140000D01*
X167649999Y-84061051D02*
X169078949Y-84061051D01*
%TO.N,+3.3V*%
X166350001Y-84061051D02*
X166350001Y-82650001D01*
D20*
X165100000Y-81400000D02*
X163500000Y-83000000D01*
D21*
X166350001Y-82650001D02*
X165100000Y-81400000D01*
D22*
%TO.N,/CM4 GPIO/nPWR_LED*%
X165762877Y-91052982D02*
X165815859Y-91000000D01*
X165256655Y-91052982D02*
X165762877Y-91052982D01*
D20*
%TO.N,+3.3V*%
X175300000Y-86254700D02*
X175300000Y-82721500D01*
D23*
X162176655Y-93452982D02*
X162797018Y-93452982D01*
X162797018Y-93452982D02*
X163000000Y-93250000D01*
X162947018Y-93052982D02*
X163000000Y-93000000D01*
X162176655Y-93052982D02*
X162947018Y-93052982D01*
D20*
X163000000Y-93000000D02*
X163000000Y-93250000D01*
X163250000Y-92750000D02*
X163000000Y-93000000D01*
X163250000Y-88000000D02*
X163250000Y-92750000D01*
X163500000Y-83000000D02*
X163250000Y-83250000D01*
X163250000Y-83250000D02*
X163250000Y-88000000D01*
D21*
%TO.N,Net-(J1-PadB5)*%
X172750000Y-93560000D02*
X171940000Y-92750000D01*
X172750000Y-99000000D02*
X172750000Y-93560000D01*
X172000000Y-99750000D02*
X172750000Y-99000000D01*
X170362500Y-99750000D02*
X172000000Y-99750000D01*
%TO.N,Net-(J1-PadA5)*%
X173250000Y-91810000D02*
X171940000Y-90500000D01*
X173250000Y-100737500D02*
X173250000Y-91810000D01*
X171237500Y-102750000D02*
X173250000Y-100737500D01*
X170362500Y-102750000D02*
X171237500Y-102750000D01*
D24*
%TO.N,+5V*%
X167600000Y-99100000D02*
X167500000Y-99000000D01*
D25*
X167500000Y-99000000D02*
X167500000Y-94000000D01*
X167500000Y-104000000D02*
X167500000Y-99000000D01*
D24*
X170362500Y-99100000D02*
X167600000Y-99100000D01*
X170362500Y-103900000D02*
X167600000Y-103900000D01*
X167600000Y-103900000D02*
X167500000Y-104000000D01*
D25*
X167500000Y-107544700D02*
X167500000Y-104000000D01*
D23*
X165256655Y-92652982D02*
X167152982Y-92652982D01*
X167152982Y-92652982D02*
X167500000Y-93000000D01*
X165256655Y-94652982D02*
X166847018Y-94652982D01*
X166847018Y-94652982D02*
X167500000Y-94000000D01*
X167247018Y-94252982D02*
X167500000Y-94000000D01*
X165256655Y-94252982D02*
X167247018Y-94252982D01*
X167352982Y-93852982D02*
X167500000Y-94000000D01*
D25*
X167500000Y-94000000D02*
X167500000Y-93000000D01*
D23*
X165256655Y-93852982D02*
X167352982Y-93852982D01*
X167047018Y-93452982D02*
X167500000Y-93000000D01*
X165256655Y-93452982D02*
X167047018Y-93452982D01*
X167447018Y-93052982D02*
X167500000Y-93000000D01*
X165256655Y-93052982D02*
X167447018Y-93052982D01*
D25*
X171455300Y-111500000D02*
X167500000Y-107544700D01*
%TD*%
%TA.AperFunction,Conductor*%
%TO.N,GND*%
G36*
X174226936Y-78882096D02*
G01*
X174250000Y-78885749D01*
X174263370Y-78883632D01*
X174281899Y-78882657D01*
X174341439Y-78885749D01*
X174573692Y-78897810D01*
X174582867Y-78898766D01*
X174763724Y-78927148D01*
X174898512Y-78948300D01*
X174907546Y-78950202D01*
X175216364Y-79032168D01*
X175225151Y-79034996D01*
X175523815Y-79148509D01*
X175532259Y-79152230D01*
X175817555Y-79296070D01*
X175825569Y-79300646D01*
X175892097Y-79343360D01*
X176094437Y-79473270D01*
X176101936Y-79478654D01*
X176226700Y-79578422D01*
X176351472Y-79678197D01*
X176358360Y-79684317D01*
X176510925Y-79834733D01*
X176585892Y-79908644D01*
X176592109Y-79915443D01*
X176794412Y-80161201D01*
X176795181Y-80162135D01*
X176800670Y-80169558D01*
X176977083Y-80435940D01*
X176981774Y-80443890D01*
X177129647Y-80727118D01*
X177133489Y-80735511D01*
X177248140Y-81024746D01*
X177251227Y-81032535D01*
X177254179Y-81041282D01*
X177340517Y-81348907D01*
X177342547Y-81357912D01*
X177396456Y-81672255D01*
X177396551Y-81672810D01*
X177397637Y-81681973D01*
X177413688Y-81924552D01*
X177416929Y-81973534D01*
X177416216Y-81992083D01*
X177414290Y-82005471D01*
X177415484Y-82012372D01*
X177417698Y-82025175D01*
X177419000Y-82040343D01*
X177419000Y-129963013D01*
X177417904Y-129976936D01*
X177414251Y-130000000D01*
X177416356Y-130013294D01*
X177417330Y-130031869D01*
X177402158Y-130321368D01*
X177401184Y-130330633D01*
X177351572Y-130643872D01*
X177349635Y-130652984D01*
X177267553Y-130959315D01*
X177264675Y-130968174D01*
X177232254Y-131052635D01*
X177151018Y-131264263D01*
X177147232Y-131272766D01*
X177003251Y-131555343D01*
X176998594Y-131563411D01*
X176825861Y-131829395D01*
X176820385Y-131836931D01*
X176620811Y-132083386D01*
X176614578Y-132090310D01*
X176390310Y-132314578D01*
X176383386Y-132320811D01*
X176136931Y-132520385D01*
X176129395Y-132525861D01*
X175863411Y-132698594D01*
X175855343Y-132703251D01*
X175572766Y-132847232D01*
X175564263Y-132851018D01*
X175352635Y-132932254D01*
X175268174Y-132964675D01*
X175259315Y-132967553D01*
X174952984Y-133049635D01*
X174943872Y-133051572D01*
X174630633Y-133101184D01*
X174621368Y-133102158D01*
X174331864Y-133117330D01*
X174313294Y-133116356D01*
X174300000Y-133114251D01*
X174293080Y-133115347D01*
X174276936Y-133117904D01*
X174263013Y-133119000D01*
X159535299Y-133119000D01*
X159522005Y-133118002D01*
X159521357Y-133117904D01*
X159514914Y-133116931D01*
X159504166Y-133115307D01*
X159504165Y-133115307D01*
X159497241Y-133114261D01*
X159490332Y-133115406D01*
X159490330Y-133115406D01*
X159484043Y-133116448D01*
X159465428Y-133117553D01*
X159293683Y-133109701D01*
X159175497Y-133104298D01*
X159166143Y-133103374D01*
X158933896Y-133067952D01*
X158852346Y-133055514D01*
X158843142Y-133053607D01*
X158835400Y-133051572D01*
X158536164Y-132972919D01*
X158527216Y-132970054D01*
X158230446Y-132857432D01*
X158221851Y-132853640D01*
X157938608Y-132710340D01*
X157930483Y-132705675D01*
X157663919Y-132533288D01*
X157656330Y-132527790D01*
X157409454Y-132328264D01*
X157402475Y-132321987D01*
X157178013Y-132097525D01*
X157171736Y-132090546D01*
X156972210Y-131843670D01*
X156966712Y-131836081D01*
X156794325Y-131569517D01*
X156789660Y-131561392D01*
X156646360Y-131278149D01*
X156642568Y-131269554D01*
X156529946Y-130972784D01*
X156527080Y-130963832D01*
X156446393Y-130656858D01*
X156444486Y-130647652D01*
X156443910Y-130643872D01*
X156403795Y-130380863D01*
X156396626Y-130333857D01*
X156395702Y-130324503D01*
X156382447Y-130034575D01*
X156383552Y-130015957D01*
X156384594Y-130009670D01*
X156384594Y-130009668D01*
X156385739Y-130002759D01*
X156381998Y-129977994D01*
X156381000Y-129964701D01*
X156381000Y-109963716D01*
X161318656Y-109963716D01*
X161318656Y-109998664D01*
X161318915Y-110003459D01*
X161324800Y-110057639D01*
X161327364Y-110068419D01*
X161374256Y-110193504D01*
X161380287Y-110204519D01*
X161459946Y-110310809D01*
X161468828Y-110319691D01*
X161575118Y-110399350D01*
X161586133Y-110405381D01*
X161711220Y-110452274D01*
X161721998Y-110454837D01*
X161776157Y-110460720D01*
X161780985Y-110460982D01*
X162060961Y-110460982D01*
X162072984Y-110456606D01*
X162076655Y-110450248D01*
X162076655Y-109968676D01*
X162074850Y-109963716D01*
X162276655Y-109963716D01*
X162276655Y-110445287D01*
X162281031Y-110457310D01*
X162287389Y-110460981D01*
X162572337Y-110460981D01*
X162577132Y-110460722D01*
X162631312Y-110454837D01*
X162642092Y-110452273D01*
X162767177Y-110405381D01*
X162778192Y-110399350D01*
X162884482Y-110319691D01*
X162893364Y-110310809D01*
X162973023Y-110204519D01*
X162979054Y-110193504D01*
X163025947Y-110068417D01*
X163028510Y-110057639D01*
X163034393Y-110003480D01*
X163034655Y-109998652D01*
X163034655Y-109968676D01*
X163032850Y-109963716D01*
X164398656Y-109963716D01*
X164398656Y-109998664D01*
X164398915Y-110003459D01*
X164404800Y-110057639D01*
X164407364Y-110068419D01*
X164454256Y-110193504D01*
X164460287Y-110204519D01*
X164539946Y-110310809D01*
X164548828Y-110319691D01*
X164655118Y-110399350D01*
X164666133Y-110405381D01*
X164791220Y-110452274D01*
X164801998Y-110454837D01*
X164856157Y-110460720D01*
X164860985Y-110460982D01*
X165140961Y-110460982D01*
X165152984Y-110456606D01*
X165156655Y-110450248D01*
X165156655Y-109968676D01*
X165154850Y-109963716D01*
X165356655Y-109963716D01*
X165356655Y-110445287D01*
X165361031Y-110457310D01*
X165367389Y-110460981D01*
X165652337Y-110460981D01*
X165657132Y-110460722D01*
X165711312Y-110454837D01*
X165722092Y-110452273D01*
X165847177Y-110405381D01*
X165858192Y-110399350D01*
X165964482Y-110319691D01*
X165973364Y-110310809D01*
X166053023Y-110204519D01*
X166059054Y-110193504D01*
X166105947Y-110068417D01*
X166108510Y-110057639D01*
X166114393Y-110003480D01*
X166114655Y-109998652D01*
X166114655Y-109968676D01*
X166110279Y-109956653D01*
X166103921Y-109952982D01*
X165372349Y-109952982D01*
X165360326Y-109957358D01*
X165356655Y-109963716D01*
X165154850Y-109963716D01*
X165152279Y-109956653D01*
X165145921Y-109952982D01*
X164414350Y-109952982D01*
X164402327Y-109957358D01*
X164398656Y-109963716D01*
X163032850Y-109963716D01*
X163030279Y-109956653D01*
X163023921Y-109952982D01*
X162292349Y-109952982D01*
X162280326Y-109957358D01*
X162276655Y-109963716D01*
X162074850Y-109963716D01*
X162072279Y-109956653D01*
X162065921Y-109952982D01*
X161334350Y-109952982D01*
X161322327Y-109957358D01*
X161318656Y-109963716D01*
X156381000Y-109963716D01*
X156381000Y-109707312D01*
X161318655Y-109707312D01*
X161318655Y-109737288D01*
X161323031Y-109749311D01*
X161329389Y-109752982D01*
X161801831Y-109752982D01*
X161805235Y-109753149D01*
X161806907Y-109753482D01*
X162546403Y-109753482D01*
X162548075Y-109753149D01*
X162551479Y-109752982D01*
X163018960Y-109752982D01*
X163030983Y-109748606D01*
X163034654Y-109742248D01*
X163034654Y-109707312D01*
X164398655Y-109707312D01*
X164398655Y-109737288D01*
X164403031Y-109749311D01*
X164409389Y-109752982D01*
X164881831Y-109752982D01*
X164885235Y-109753149D01*
X164886907Y-109753482D01*
X165626403Y-109753482D01*
X165628075Y-109753149D01*
X165631479Y-109752982D01*
X166098960Y-109752982D01*
X166110983Y-109748606D01*
X166114654Y-109742248D01*
X166114654Y-109707301D01*
X166114395Y-109702505D01*
X166108510Y-109648325D01*
X166105946Y-109637545D01*
X166059054Y-109512460D01*
X166053023Y-109501445D01*
X165973364Y-109395155D01*
X165964482Y-109386273D01*
X165881659Y-109324201D01*
X165848368Y-109273230D01*
X165855629Y-109212785D01*
X165881659Y-109181763D01*
X165964482Y-109119691D01*
X165973364Y-109110809D01*
X166053023Y-109004519D01*
X166059054Y-108993504D01*
X166105947Y-108868417D01*
X166108510Y-108857639D01*
X166114393Y-108803480D01*
X166114655Y-108798652D01*
X166114655Y-108768676D01*
X166110279Y-108756653D01*
X166103921Y-108752982D01*
X165631479Y-108752982D01*
X165628075Y-108752815D01*
X165626403Y-108752482D01*
X164886907Y-108752482D01*
X164885235Y-108752815D01*
X164881831Y-108752982D01*
X164414350Y-108752982D01*
X164402327Y-108757358D01*
X164398656Y-108763716D01*
X164398656Y-108798664D01*
X164398915Y-108803459D01*
X164404800Y-108857639D01*
X164407364Y-108868419D01*
X164454256Y-108993504D01*
X164460287Y-109004519D01*
X164539946Y-109110809D01*
X164548828Y-109119691D01*
X164631651Y-109181763D01*
X164664942Y-109232734D01*
X164657681Y-109293179D01*
X164631651Y-109324201D01*
X164548828Y-109386273D01*
X164539946Y-109395155D01*
X164460287Y-109501445D01*
X164454256Y-109512460D01*
X164407363Y-109637547D01*
X164404800Y-109648325D01*
X164398917Y-109702484D01*
X164398655Y-109707312D01*
X163034654Y-109707312D01*
X163034654Y-109707301D01*
X163034395Y-109702505D01*
X163028510Y-109648325D01*
X163025946Y-109637545D01*
X162979054Y-109512460D01*
X162973023Y-109501445D01*
X162893364Y-109395155D01*
X162884482Y-109386273D01*
X162801659Y-109324201D01*
X162768368Y-109273230D01*
X162775629Y-109212785D01*
X162801659Y-109181763D01*
X162884482Y-109119691D01*
X162893364Y-109110809D01*
X162973023Y-109004519D01*
X162979054Y-108993504D01*
X163025947Y-108868417D01*
X163028510Y-108857639D01*
X163034393Y-108803480D01*
X163034655Y-108798652D01*
X163034655Y-108768676D01*
X163030279Y-108756653D01*
X163023921Y-108752982D01*
X162551479Y-108752982D01*
X162548075Y-108752815D01*
X162546403Y-108752482D01*
X161806907Y-108752482D01*
X161805235Y-108752815D01*
X161801831Y-108752982D01*
X161334350Y-108752982D01*
X161322327Y-108757358D01*
X161318656Y-108763716D01*
X161318656Y-108798664D01*
X161318915Y-108803459D01*
X161324800Y-108857639D01*
X161327364Y-108868419D01*
X161374256Y-108993504D01*
X161380287Y-109004519D01*
X161459946Y-109110809D01*
X161468828Y-109119691D01*
X161551651Y-109181763D01*
X161584942Y-109232734D01*
X161577681Y-109293179D01*
X161551651Y-109324201D01*
X161468828Y-109386273D01*
X161459946Y-109395155D01*
X161380287Y-109501445D01*
X161374256Y-109512460D01*
X161327363Y-109637547D01*
X161324800Y-109648325D01*
X161318917Y-109702484D01*
X161318655Y-109707312D01*
X156381000Y-109707312D01*
X156381000Y-108507312D01*
X161318655Y-108507312D01*
X161318655Y-108537288D01*
X161323031Y-108549311D01*
X161329389Y-108552982D01*
X161801831Y-108552982D01*
X161805235Y-108553149D01*
X161806907Y-108553482D01*
X162546403Y-108553482D01*
X162548075Y-108553149D01*
X162551479Y-108552982D01*
X163018960Y-108552982D01*
X163030983Y-108548606D01*
X163034654Y-108542248D01*
X163034654Y-108507312D01*
X164398655Y-108507312D01*
X164398655Y-108537288D01*
X164403031Y-108549311D01*
X164409389Y-108552982D01*
X164881831Y-108552982D01*
X164885235Y-108553149D01*
X164886907Y-108553482D01*
X165626403Y-108553482D01*
X165628075Y-108553149D01*
X165631479Y-108552982D01*
X166098960Y-108552982D01*
X166110983Y-108548606D01*
X166114654Y-108542248D01*
X166114654Y-108507301D01*
X166114395Y-108502505D01*
X166108510Y-108448325D01*
X166105946Y-108437545D01*
X166059054Y-108312460D01*
X166053023Y-108301445D01*
X165973364Y-108195155D01*
X165964482Y-108186273D01*
X165881659Y-108124201D01*
X165848368Y-108073230D01*
X165855629Y-108012785D01*
X165881659Y-107981763D01*
X165964482Y-107919691D01*
X165973364Y-107910809D01*
X166053023Y-107804519D01*
X166059054Y-107793504D01*
X166105947Y-107668417D01*
X166108510Y-107657639D01*
X166114393Y-107603480D01*
X166114655Y-107598652D01*
X166114655Y-107568676D01*
X166110279Y-107556653D01*
X166103921Y-107552982D01*
X165631479Y-107552982D01*
X165628075Y-107552815D01*
X165626403Y-107552482D01*
X164886907Y-107552482D01*
X164885235Y-107552815D01*
X164881831Y-107552982D01*
X164414350Y-107552982D01*
X164402327Y-107557358D01*
X164398656Y-107563716D01*
X164398656Y-107598664D01*
X164398915Y-107603459D01*
X164404800Y-107657639D01*
X164407364Y-107668419D01*
X164454256Y-107793504D01*
X164460287Y-107804519D01*
X164539946Y-107910809D01*
X164548828Y-107919691D01*
X164631651Y-107981763D01*
X164664942Y-108032734D01*
X164657681Y-108093179D01*
X164631651Y-108124201D01*
X164548828Y-108186273D01*
X164539946Y-108195155D01*
X164460287Y-108301445D01*
X164454256Y-108312460D01*
X164407363Y-108437547D01*
X164404800Y-108448325D01*
X164398917Y-108502484D01*
X164398655Y-108507312D01*
X163034654Y-108507312D01*
X163034654Y-108507301D01*
X163034395Y-108502505D01*
X163028510Y-108448325D01*
X163025946Y-108437545D01*
X162979054Y-108312460D01*
X162973023Y-108301445D01*
X162893364Y-108195155D01*
X162884482Y-108186273D01*
X162801659Y-108124201D01*
X162768368Y-108073230D01*
X162775629Y-108012785D01*
X162801659Y-107981763D01*
X162884482Y-107919691D01*
X162893364Y-107910809D01*
X162973023Y-107804519D01*
X162979054Y-107793504D01*
X163025947Y-107668417D01*
X163028510Y-107657639D01*
X163034393Y-107603480D01*
X163034655Y-107598652D01*
X163034655Y-107568676D01*
X163030279Y-107556653D01*
X163023921Y-107552982D01*
X162551479Y-107552982D01*
X162548075Y-107552815D01*
X162546403Y-107552482D01*
X161806907Y-107552482D01*
X161805235Y-107552815D01*
X161801831Y-107552982D01*
X161334350Y-107552982D01*
X161322327Y-107557358D01*
X161318656Y-107563716D01*
X161318656Y-107598664D01*
X161318915Y-107603459D01*
X161324800Y-107657639D01*
X161327364Y-107668419D01*
X161374256Y-107793504D01*
X161380287Y-107804519D01*
X161459946Y-107910809D01*
X161468828Y-107919691D01*
X161551651Y-107981763D01*
X161584942Y-108032734D01*
X161577681Y-108093179D01*
X161551651Y-108124201D01*
X161468828Y-108186273D01*
X161459946Y-108195155D01*
X161380287Y-108301445D01*
X161374256Y-108312460D01*
X161327363Y-108437547D01*
X161324800Y-108448325D01*
X161318917Y-108502484D01*
X161318655Y-108507312D01*
X156381000Y-108507312D01*
X156381000Y-107307312D01*
X161318655Y-107307312D01*
X161318655Y-107337288D01*
X161323031Y-107349311D01*
X161329389Y-107352982D01*
X161801831Y-107352982D01*
X161805235Y-107353149D01*
X161806907Y-107353482D01*
X162546403Y-107353482D01*
X162548075Y-107353149D01*
X162551479Y-107352982D01*
X163018960Y-107352982D01*
X163030983Y-107348606D01*
X163034654Y-107342248D01*
X163034654Y-107307301D01*
X163034395Y-107302505D01*
X163028510Y-107248325D01*
X163025946Y-107237545D01*
X162979054Y-107112460D01*
X162973023Y-107101445D01*
X162893364Y-106995155D01*
X162884482Y-106986273D01*
X162778192Y-106906614D01*
X162765445Y-106899635D01*
X162725264Y-106853899D01*
X162720894Y-106804204D01*
X162727155Y-106772730D01*
X162727155Y-106533234D01*
X162720894Y-106501759D01*
X162730155Y-106441589D01*
X162765445Y-106406329D01*
X162778192Y-106399350D01*
X162884482Y-106319691D01*
X162893364Y-106310809D01*
X162973023Y-106204519D01*
X162979054Y-106193504D01*
X163025947Y-106068417D01*
X163028510Y-106057639D01*
X163034393Y-106003480D01*
X163034655Y-105998652D01*
X163034655Y-105968676D01*
X163030279Y-105956653D01*
X163023921Y-105952982D01*
X162551479Y-105952982D01*
X162548075Y-105952815D01*
X162546403Y-105952482D01*
X161806907Y-105952482D01*
X161805235Y-105952815D01*
X161801831Y-105952982D01*
X161334350Y-105952982D01*
X161322327Y-105957358D01*
X161318656Y-105963716D01*
X161318656Y-105998664D01*
X161318915Y-106003459D01*
X161324800Y-106057639D01*
X161327364Y-106068419D01*
X161374256Y-106193504D01*
X161380287Y-106204519D01*
X161459946Y-106310809D01*
X161468828Y-106319691D01*
X161575118Y-106399350D01*
X161587865Y-106406329D01*
X161628046Y-106452065D01*
X161632416Y-106501759D01*
X161626155Y-106533234D01*
X161626155Y-106772730D01*
X161632416Y-106804204D01*
X161623155Y-106864375D01*
X161587865Y-106899635D01*
X161575118Y-106906614D01*
X161468828Y-106986273D01*
X161459946Y-106995155D01*
X161380287Y-107101445D01*
X161374256Y-107112460D01*
X161327363Y-107237547D01*
X161324800Y-107248325D01*
X161318917Y-107302484D01*
X161318655Y-107307312D01*
X156381000Y-107307312D01*
X156381000Y-105707312D01*
X161318655Y-105707312D01*
X161318655Y-105737288D01*
X161323031Y-105749311D01*
X161329389Y-105752982D01*
X161801831Y-105752982D01*
X161805235Y-105753149D01*
X161806907Y-105753482D01*
X162546403Y-105753482D01*
X162548075Y-105753149D01*
X162551479Y-105752982D01*
X163018960Y-105752982D01*
X163030983Y-105748606D01*
X163034654Y-105742248D01*
X163034654Y-105707301D01*
X163034395Y-105702505D01*
X163028510Y-105648325D01*
X163025946Y-105637545D01*
X162979054Y-105512460D01*
X162973023Y-105501445D01*
X162893364Y-105395155D01*
X162884482Y-105386273D01*
X162778192Y-105306614D01*
X162765445Y-105299635D01*
X162725264Y-105253899D01*
X162720894Y-105204204D01*
X162727155Y-105172730D01*
X162727155Y-105094390D01*
X163440860Y-105094390D01*
X163457741Y-105223481D01*
X163510174Y-105342645D01*
X163593946Y-105442303D01*
X163599219Y-105445813D01*
X163697045Y-105510933D01*
X163697047Y-105510934D01*
X163702320Y-105514444D01*
X163708368Y-105516333D01*
X163708369Y-105516334D01*
X163757426Y-105531660D01*
X163826587Y-105553267D01*
X163832925Y-105553383D01*
X163839185Y-105554397D01*
X163838621Y-105557881D01*
X163883430Y-105575055D01*
X163888008Y-105579321D01*
X164322426Y-106013739D01*
X164324987Y-106016706D01*
X164326995Y-106020815D01*
X164333019Y-106026403D01*
X164360393Y-106051796D01*
X164362799Y-106054112D01*
X164375524Y-106066837D01*
X164378894Y-106069149D01*
X164378987Y-106069226D01*
X164382634Y-106072428D01*
X164394603Y-106083530D01*
X164402566Y-106090917D01*
X164412633Y-106094933D01*
X164430002Y-106104208D01*
X164438938Y-106110338D01*
X164462956Y-106116038D01*
X164475383Y-106119969D01*
X164492470Y-106126786D01*
X164492472Y-106126786D01*
X164498306Y-106129114D01*
X164504099Y-106129682D01*
X164510035Y-106129682D01*
X164530585Y-106132087D01*
X164539232Y-106134139D01*
X164547374Y-106133031D01*
X164547376Y-106133031D01*
X164566008Y-106130495D01*
X164578010Y-106129682D01*
X164617155Y-106129682D01*
X164674363Y-106150504D01*
X164704803Y-106203227D01*
X164706155Y-106218682D01*
X164706155Y-106372730D01*
X164707007Y-106377013D01*
X164717788Y-106431213D01*
X164715108Y-106431746D01*
X164716979Y-106474590D01*
X164717788Y-106474751D01*
X164706155Y-106533234D01*
X164706155Y-106772730D01*
X164712416Y-106804204D01*
X164703155Y-106864375D01*
X164667865Y-106899635D01*
X164655118Y-106906614D01*
X164548828Y-106986273D01*
X164539946Y-106995155D01*
X164460287Y-107101445D01*
X164454256Y-107112460D01*
X164407363Y-107237547D01*
X164404800Y-107248325D01*
X164398917Y-107302484D01*
X164398655Y-107307312D01*
X164398655Y-107337288D01*
X164403031Y-107349311D01*
X164409389Y-107352982D01*
X164881831Y-107352982D01*
X164885235Y-107353149D01*
X164886907Y-107353482D01*
X165626403Y-107353482D01*
X165628075Y-107353149D01*
X165631479Y-107352982D01*
X166098960Y-107352982D01*
X166110983Y-107348606D01*
X166114654Y-107342248D01*
X166114654Y-107307301D01*
X166114395Y-107302505D01*
X166108510Y-107248325D01*
X166105946Y-107237545D01*
X166059054Y-107112460D01*
X166053023Y-107101445D01*
X165973364Y-106995155D01*
X165964482Y-106986273D01*
X165858192Y-106906614D01*
X165845445Y-106899635D01*
X165805264Y-106853899D01*
X165800894Y-106804204D01*
X165807155Y-106772730D01*
X165807155Y-106533234D01*
X165795522Y-106474751D01*
X165798202Y-106474218D01*
X165796331Y-106431374D01*
X165795522Y-106431213D01*
X165796180Y-106427907D01*
X165796180Y-106427905D01*
X165807155Y-106372730D01*
X165807155Y-106133234D01*
X165800894Y-106101759D01*
X165810155Y-106041589D01*
X165845445Y-106006329D01*
X165858192Y-105999350D01*
X165964482Y-105919691D01*
X165973364Y-105910809D01*
X166053023Y-105804519D01*
X166059054Y-105793504D01*
X166105947Y-105668417D01*
X166108510Y-105657639D01*
X166114393Y-105603480D01*
X166114655Y-105598652D01*
X166114655Y-105568676D01*
X166110279Y-105556653D01*
X166103921Y-105552982D01*
X165631479Y-105552982D01*
X165628075Y-105552815D01*
X165626403Y-105552482D01*
X165245655Y-105552482D01*
X165188447Y-105531660D01*
X165158007Y-105478937D01*
X165156655Y-105463482D01*
X165156655Y-105442482D01*
X165177477Y-105385274D01*
X165230200Y-105354834D01*
X165245655Y-105353482D01*
X165626403Y-105353482D01*
X165628075Y-105353149D01*
X165631479Y-105352982D01*
X166098960Y-105352982D01*
X166110983Y-105348606D01*
X166114654Y-105342248D01*
X166114654Y-105307301D01*
X166114395Y-105302505D01*
X166108510Y-105248325D01*
X166105946Y-105237545D01*
X166059054Y-105112460D01*
X166053023Y-105101445D01*
X165973364Y-104995155D01*
X165964482Y-104986273D01*
X165858192Y-104906614D01*
X165845445Y-104899635D01*
X165805264Y-104853899D01*
X165800894Y-104804204D01*
X165807155Y-104772730D01*
X165807155Y-104533234D01*
X165795522Y-104474751D01*
X165798202Y-104474218D01*
X165796331Y-104431374D01*
X165795522Y-104431213D01*
X165796180Y-104427907D01*
X165796180Y-104427905D01*
X165807155Y-104372730D01*
X165807155Y-104133234D01*
X165800894Y-104101759D01*
X165810155Y-104041589D01*
X165845445Y-104006329D01*
X165858192Y-103999350D01*
X165964482Y-103919691D01*
X165973364Y-103910809D01*
X166053023Y-103804519D01*
X166059054Y-103793504D01*
X166105947Y-103668417D01*
X166108510Y-103657639D01*
X166114393Y-103603480D01*
X166114655Y-103598652D01*
X166114655Y-103568676D01*
X166110279Y-103556653D01*
X166103921Y-103552982D01*
X165631479Y-103552982D01*
X165628075Y-103552815D01*
X165626403Y-103552482D01*
X164886907Y-103552482D01*
X164885235Y-103552815D01*
X164881831Y-103552982D01*
X164414350Y-103552982D01*
X164402327Y-103557358D01*
X164398656Y-103563716D01*
X164398656Y-103598664D01*
X164398915Y-103603459D01*
X164404800Y-103657639D01*
X164407364Y-103668419D01*
X164454256Y-103793504D01*
X164460287Y-103804519D01*
X164539946Y-103910809D01*
X164548828Y-103919691D01*
X164655118Y-103999350D01*
X164667865Y-104006329D01*
X164708046Y-104052065D01*
X164712416Y-104101759D01*
X164706155Y-104133234D01*
X164706155Y-104372730D01*
X164707007Y-104377013D01*
X164717788Y-104431213D01*
X164715108Y-104431746D01*
X164716979Y-104474590D01*
X164717788Y-104474751D01*
X164706155Y-104533234D01*
X164706155Y-104772730D01*
X164712416Y-104804204D01*
X164703155Y-104864375D01*
X164667865Y-104899635D01*
X164655118Y-104906614D01*
X164548828Y-104986273D01*
X164539942Y-104995159D01*
X164504428Y-105042545D01*
X164453457Y-105075836D01*
X164393012Y-105068575D01*
X164351376Y-105024159D01*
X164345109Y-105001787D01*
X164341617Y-104977401D01*
X164341617Y-104977400D01*
X164340718Y-104971125D01*
X164296657Y-104874218D01*
X164289457Y-104858383D01*
X164289456Y-104858382D01*
X164286832Y-104852610D01*
X164221691Y-104777010D01*
X164205993Y-104758791D01*
X164205992Y-104758790D01*
X164201850Y-104753983D01*
X164196527Y-104750533D01*
X164196525Y-104750531D01*
X164097926Y-104686623D01*
X164097924Y-104686622D01*
X164092601Y-104683172D01*
X164086525Y-104681355D01*
X164086523Y-104681354D01*
X163998456Y-104655017D01*
X163967870Y-104645870D01*
X163961529Y-104645831D01*
X163961527Y-104645831D01*
X163903592Y-104645477D01*
X163837683Y-104645074D01*
X163831589Y-104646816D01*
X163831587Y-104646816D01*
X163802893Y-104655017D01*
X163712505Y-104680850D01*
X163602400Y-104750321D01*
X163598204Y-104755072D01*
X163598203Y-104755073D01*
X163554812Y-104804204D01*
X163516219Y-104847903D01*
X163460890Y-104965751D01*
X163459914Y-104972019D01*
X163444880Y-105068575D01*
X163440860Y-105094390D01*
X162727155Y-105094390D01*
X162727155Y-104933234D01*
X162715522Y-104874751D01*
X162718202Y-104874218D01*
X162716331Y-104831374D01*
X162715522Y-104831213D01*
X162716180Y-104827907D01*
X162716180Y-104827905D01*
X162727155Y-104772730D01*
X162727155Y-104533234D01*
X162720894Y-104501759D01*
X162730155Y-104441589D01*
X162765445Y-104406329D01*
X162778192Y-104399350D01*
X162884482Y-104319691D01*
X162893364Y-104310809D01*
X162973023Y-104204519D01*
X162979054Y-104193504D01*
X163025947Y-104068417D01*
X163028510Y-104057639D01*
X163034393Y-104003480D01*
X163034655Y-103998652D01*
X163034655Y-103968676D01*
X163030279Y-103956653D01*
X163023921Y-103952982D01*
X162551479Y-103952982D01*
X162548075Y-103952815D01*
X162546403Y-103952482D01*
X161806907Y-103952482D01*
X161805235Y-103952815D01*
X161801831Y-103952982D01*
X161334350Y-103952982D01*
X161322327Y-103957358D01*
X161318656Y-103963716D01*
X161318656Y-103998664D01*
X161318915Y-104003459D01*
X161324800Y-104057639D01*
X161327364Y-104068419D01*
X161374256Y-104193504D01*
X161380287Y-104204519D01*
X161459946Y-104310809D01*
X161468828Y-104319691D01*
X161575118Y-104399350D01*
X161587865Y-104406329D01*
X161628046Y-104452065D01*
X161632416Y-104501759D01*
X161626155Y-104533234D01*
X161626155Y-104772730D01*
X161627007Y-104777013D01*
X161637788Y-104831213D01*
X161635108Y-104831746D01*
X161636979Y-104874590D01*
X161637788Y-104874751D01*
X161626155Y-104933234D01*
X161626155Y-105172730D01*
X161632416Y-105204204D01*
X161623155Y-105264375D01*
X161587865Y-105299635D01*
X161575118Y-105306614D01*
X161468828Y-105386273D01*
X161459946Y-105395155D01*
X161380287Y-105501445D01*
X161374256Y-105512460D01*
X161327363Y-105637547D01*
X161324800Y-105648325D01*
X161318917Y-105702484D01*
X161318655Y-105707312D01*
X156381000Y-105707312D01*
X156381000Y-103707312D01*
X161318655Y-103707312D01*
X161318655Y-103737288D01*
X161323031Y-103749311D01*
X161329389Y-103752982D01*
X161801831Y-103752982D01*
X161805235Y-103753149D01*
X161806907Y-103753482D01*
X162546403Y-103753482D01*
X162548075Y-103753149D01*
X162551479Y-103752982D01*
X163018960Y-103752982D01*
X163030983Y-103748606D01*
X163034654Y-103742248D01*
X163034654Y-103707301D01*
X163034395Y-103702505D01*
X163028510Y-103648325D01*
X163025946Y-103637545D01*
X162979054Y-103512460D01*
X162973023Y-103501445D01*
X162893364Y-103395155D01*
X162884482Y-103386273D01*
X162779123Y-103307312D01*
X164398655Y-103307312D01*
X164398655Y-103337288D01*
X164403031Y-103349311D01*
X164409389Y-103352982D01*
X164881831Y-103352982D01*
X164885235Y-103353149D01*
X164886907Y-103353482D01*
X165626403Y-103353482D01*
X165628075Y-103353149D01*
X165631479Y-103352982D01*
X166098960Y-103352982D01*
X166110983Y-103348606D01*
X166114654Y-103342248D01*
X166114654Y-103307301D01*
X166114395Y-103302505D01*
X166108510Y-103248325D01*
X166105946Y-103237545D01*
X166059054Y-103112460D01*
X166053023Y-103101445D01*
X165973364Y-102995155D01*
X165964482Y-102986273D01*
X165858192Y-102906614D01*
X165845445Y-102899635D01*
X165805264Y-102853899D01*
X165800894Y-102804204D01*
X165807155Y-102772730D01*
X165807155Y-102533234D01*
X165795522Y-102474751D01*
X165798202Y-102474218D01*
X165796331Y-102431374D01*
X165795522Y-102431213D01*
X165796180Y-102427907D01*
X165796180Y-102427905D01*
X165807155Y-102372730D01*
X165807155Y-102133234D01*
X165800894Y-102101759D01*
X165810155Y-102041589D01*
X165845445Y-102006329D01*
X165858192Y-101999350D01*
X165964482Y-101919691D01*
X165973364Y-101910809D01*
X166053023Y-101804519D01*
X166059054Y-101793504D01*
X166105947Y-101668417D01*
X166108510Y-101657639D01*
X166114393Y-101603480D01*
X166114655Y-101598652D01*
X166114655Y-101568676D01*
X166110279Y-101556653D01*
X166103921Y-101552982D01*
X165631479Y-101552982D01*
X165628075Y-101552815D01*
X165626403Y-101552482D01*
X164886907Y-101552482D01*
X164885235Y-101552815D01*
X164881831Y-101552982D01*
X164414350Y-101552982D01*
X164402327Y-101557358D01*
X164398656Y-101563716D01*
X164398656Y-101598664D01*
X164398915Y-101603459D01*
X164404800Y-101657639D01*
X164407364Y-101668419D01*
X164454256Y-101793504D01*
X164460287Y-101804519D01*
X164539946Y-101910809D01*
X164548828Y-101919691D01*
X164655118Y-101999350D01*
X164667865Y-102006329D01*
X164708046Y-102052065D01*
X164712416Y-102101759D01*
X164706155Y-102133234D01*
X164706155Y-102372730D01*
X164707007Y-102377013D01*
X164717788Y-102431213D01*
X164715108Y-102431746D01*
X164716979Y-102474590D01*
X164717788Y-102474751D01*
X164706155Y-102533234D01*
X164706155Y-102772730D01*
X164712416Y-102804204D01*
X164703155Y-102864375D01*
X164667865Y-102899635D01*
X164655118Y-102906614D01*
X164548828Y-102986273D01*
X164539946Y-102995155D01*
X164460287Y-103101445D01*
X164454256Y-103112460D01*
X164407363Y-103237547D01*
X164404800Y-103248325D01*
X164398917Y-103302484D01*
X164398655Y-103307312D01*
X162779123Y-103307312D01*
X162778192Y-103306614D01*
X162765445Y-103299635D01*
X162725264Y-103253899D01*
X162720894Y-103204204D01*
X162723096Y-103193135D01*
X162727155Y-103172730D01*
X162727155Y-102933234D01*
X162715522Y-102874751D01*
X162718202Y-102874218D01*
X162716331Y-102831374D01*
X162715522Y-102831213D01*
X162716180Y-102827907D01*
X162716180Y-102827905D01*
X162727155Y-102772730D01*
X162727155Y-102533234D01*
X162720894Y-102501759D01*
X162730155Y-102441589D01*
X162765445Y-102406329D01*
X162778192Y-102399350D01*
X162884482Y-102319691D01*
X162893364Y-102310809D01*
X162973023Y-102204519D01*
X162979054Y-102193504D01*
X163025947Y-102068417D01*
X163028510Y-102057639D01*
X163034393Y-102003480D01*
X163034655Y-101998652D01*
X163034655Y-101968676D01*
X163030279Y-101956653D01*
X163023921Y-101952982D01*
X162551479Y-101952982D01*
X162548075Y-101952815D01*
X162546403Y-101952482D01*
X161806907Y-101952482D01*
X161805235Y-101952815D01*
X161801831Y-101952982D01*
X161334350Y-101952982D01*
X161322327Y-101957358D01*
X161318656Y-101963716D01*
X161318656Y-101998664D01*
X161318915Y-102003459D01*
X161324800Y-102057639D01*
X161327364Y-102068419D01*
X161374256Y-102193504D01*
X161380287Y-102204519D01*
X161459946Y-102310809D01*
X161468828Y-102319691D01*
X161575118Y-102399350D01*
X161587865Y-102406329D01*
X161628046Y-102452065D01*
X161632416Y-102501759D01*
X161626155Y-102533234D01*
X161626155Y-102772730D01*
X161627007Y-102777013D01*
X161637788Y-102831213D01*
X161635108Y-102831746D01*
X161636979Y-102874590D01*
X161637788Y-102874751D01*
X161626155Y-102933234D01*
X161626155Y-103172730D01*
X161630214Y-103193135D01*
X161632416Y-103204204D01*
X161623155Y-103264375D01*
X161587865Y-103299635D01*
X161575118Y-103306614D01*
X161468828Y-103386273D01*
X161459946Y-103395155D01*
X161380287Y-103501445D01*
X161374256Y-103512460D01*
X161327363Y-103637547D01*
X161324800Y-103648325D01*
X161318917Y-103702484D01*
X161318655Y-103707312D01*
X156381000Y-103707312D01*
X156381000Y-101707312D01*
X161318655Y-101707312D01*
X161318655Y-101737288D01*
X161323031Y-101749311D01*
X161329389Y-101752982D01*
X161801831Y-101752982D01*
X161805235Y-101753149D01*
X161806907Y-101753482D01*
X162546403Y-101753482D01*
X162548075Y-101753149D01*
X162551479Y-101752982D01*
X163018960Y-101752982D01*
X163030983Y-101748606D01*
X163034654Y-101742248D01*
X163034654Y-101707301D01*
X163034395Y-101702505D01*
X163028510Y-101648325D01*
X163025946Y-101637545D01*
X162979054Y-101512460D01*
X162973023Y-101501445D01*
X162893364Y-101395155D01*
X162884482Y-101386273D01*
X162779123Y-101307312D01*
X164398655Y-101307312D01*
X164398655Y-101337288D01*
X164403031Y-101349311D01*
X164409389Y-101352982D01*
X164881831Y-101352982D01*
X164885235Y-101353149D01*
X164886907Y-101353482D01*
X165626403Y-101353482D01*
X165628075Y-101353149D01*
X165631479Y-101352982D01*
X166098960Y-101352982D01*
X166110983Y-101348606D01*
X166114654Y-101342248D01*
X166114654Y-101307301D01*
X166114395Y-101302505D01*
X166108510Y-101248325D01*
X166105946Y-101237545D01*
X166059054Y-101112460D01*
X166053023Y-101101445D01*
X165973364Y-100995155D01*
X165964482Y-100986273D01*
X165858192Y-100906614D01*
X165845445Y-100899635D01*
X165805264Y-100853899D01*
X165800894Y-100804204D01*
X165807155Y-100772730D01*
X165807155Y-100533234D01*
X165795522Y-100474751D01*
X165798202Y-100474218D01*
X165796331Y-100431374D01*
X165795522Y-100431213D01*
X165796180Y-100427907D01*
X165796180Y-100427905D01*
X165807155Y-100372730D01*
X165807155Y-100133234D01*
X165800894Y-100101759D01*
X165810155Y-100041589D01*
X165845445Y-100006329D01*
X165858192Y-99999350D01*
X165964482Y-99919691D01*
X165973364Y-99910809D01*
X166053023Y-99804519D01*
X166059054Y-99793504D01*
X166105947Y-99668417D01*
X166108510Y-99657639D01*
X166114393Y-99603480D01*
X166114655Y-99598652D01*
X166114655Y-99568676D01*
X166110279Y-99556653D01*
X166103921Y-99552982D01*
X165631479Y-99552982D01*
X165628075Y-99552815D01*
X165626403Y-99552482D01*
X164886907Y-99552482D01*
X164885235Y-99552815D01*
X164881831Y-99552982D01*
X164414350Y-99552982D01*
X164402327Y-99557358D01*
X164398656Y-99563716D01*
X164398656Y-99598664D01*
X164398915Y-99603459D01*
X164404800Y-99657639D01*
X164407364Y-99668419D01*
X164454256Y-99793504D01*
X164460287Y-99804519D01*
X164539946Y-99910809D01*
X164548828Y-99919691D01*
X164655118Y-99999350D01*
X164667865Y-100006329D01*
X164708046Y-100052065D01*
X164712416Y-100101759D01*
X164706155Y-100133234D01*
X164706155Y-100372730D01*
X164707007Y-100377013D01*
X164717788Y-100431213D01*
X164715108Y-100431746D01*
X164716979Y-100474590D01*
X164717788Y-100474751D01*
X164706155Y-100533234D01*
X164706155Y-100772730D01*
X164712416Y-100804204D01*
X164703155Y-100864375D01*
X164667865Y-100899635D01*
X164655118Y-100906614D01*
X164548828Y-100986273D01*
X164539946Y-100995155D01*
X164460287Y-101101445D01*
X164454256Y-101112460D01*
X164407363Y-101237547D01*
X164404800Y-101248325D01*
X164398917Y-101302484D01*
X164398655Y-101307312D01*
X162779123Y-101307312D01*
X162778192Y-101306614D01*
X162765445Y-101299635D01*
X162725264Y-101253899D01*
X162720894Y-101204204D01*
X162727155Y-101172730D01*
X162727155Y-100933234D01*
X162715522Y-100874751D01*
X162718202Y-100874218D01*
X162716331Y-100831374D01*
X162715522Y-100831213D01*
X162716180Y-100827907D01*
X162716180Y-100827905D01*
X162727155Y-100772730D01*
X162727155Y-100533234D01*
X162720894Y-100501759D01*
X162730155Y-100441589D01*
X162765445Y-100406329D01*
X162778192Y-100399350D01*
X162884482Y-100319691D01*
X162893364Y-100310809D01*
X162973023Y-100204519D01*
X162979054Y-100193504D01*
X163025947Y-100068417D01*
X163028510Y-100057639D01*
X163034393Y-100003480D01*
X163034655Y-99998652D01*
X163034655Y-99968676D01*
X163030279Y-99956653D01*
X163023921Y-99952982D01*
X162551479Y-99952982D01*
X162548075Y-99952815D01*
X162546403Y-99952482D01*
X161806907Y-99952482D01*
X161805235Y-99952815D01*
X161801831Y-99952982D01*
X161334350Y-99952982D01*
X161322327Y-99957358D01*
X161318656Y-99963716D01*
X161318656Y-99998664D01*
X161318915Y-100003459D01*
X161324800Y-100057639D01*
X161327364Y-100068419D01*
X161374256Y-100193504D01*
X161380287Y-100204519D01*
X161459946Y-100310809D01*
X161468828Y-100319691D01*
X161575118Y-100399350D01*
X161587865Y-100406329D01*
X161628046Y-100452065D01*
X161632416Y-100501759D01*
X161626155Y-100533234D01*
X161626155Y-100772730D01*
X161627007Y-100777013D01*
X161637788Y-100831213D01*
X161635108Y-100831746D01*
X161636979Y-100874590D01*
X161637788Y-100874751D01*
X161626155Y-100933234D01*
X161626155Y-101172730D01*
X161632416Y-101204204D01*
X161623155Y-101264375D01*
X161587865Y-101299635D01*
X161575118Y-101306614D01*
X161468828Y-101386273D01*
X161459946Y-101395155D01*
X161380287Y-101501445D01*
X161374256Y-101512460D01*
X161327363Y-101637547D01*
X161324800Y-101648325D01*
X161318917Y-101702484D01*
X161318655Y-101707312D01*
X156381000Y-101707312D01*
X156381000Y-99707312D01*
X161318655Y-99707312D01*
X161318655Y-99737288D01*
X161323031Y-99749311D01*
X161329389Y-99752982D01*
X161801831Y-99752982D01*
X161805235Y-99753149D01*
X161806907Y-99753482D01*
X162546403Y-99753482D01*
X162548075Y-99753149D01*
X162551479Y-99752982D01*
X163018960Y-99752982D01*
X163030983Y-99748606D01*
X163034654Y-99742248D01*
X163034654Y-99707301D01*
X163034395Y-99702505D01*
X163028510Y-99648325D01*
X163025946Y-99637545D01*
X162979054Y-99512460D01*
X162973023Y-99501445D01*
X162893364Y-99395155D01*
X162884482Y-99386273D01*
X162779123Y-99307312D01*
X164398655Y-99307312D01*
X164398655Y-99337288D01*
X164403031Y-99349311D01*
X164409389Y-99352982D01*
X164881831Y-99352982D01*
X164885235Y-99353149D01*
X164886907Y-99353482D01*
X165626403Y-99353482D01*
X165628075Y-99353149D01*
X165631479Y-99352982D01*
X166098960Y-99352982D01*
X166110983Y-99348606D01*
X166114654Y-99342248D01*
X166114654Y-99307301D01*
X166114395Y-99302505D01*
X166108510Y-99248325D01*
X166105946Y-99237545D01*
X166059054Y-99112460D01*
X166053023Y-99101445D01*
X165973364Y-98995155D01*
X165964482Y-98986273D01*
X165881659Y-98924201D01*
X165848368Y-98873230D01*
X165855629Y-98812785D01*
X165881659Y-98781763D01*
X165964482Y-98719691D01*
X165973364Y-98710809D01*
X166053023Y-98604519D01*
X166059054Y-98593504D01*
X166105947Y-98468417D01*
X166108510Y-98457639D01*
X166114393Y-98403480D01*
X166114655Y-98398652D01*
X166114655Y-98368676D01*
X166110279Y-98356653D01*
X166103921Y-98352982D01*
X165631479Y-98352982D01*
X165628075Y-98352815D01*
X165626403Y-98352482D01*
X164886907Y-98352482D01*
X164885235Y-98352815D01*
X164881831Y-98352982D01*
X164414350Y-98352982D01*
X164402327Y-98357358D01*
X164398656Y-98363716D01*
X164398656Y-98398664D01*
X164398915Y-98403459D01*
X164404800Y-98457639D01*
X164407364Y-98468419D01*
X164454256Y-98593504D01*
X164460287Y-98604519D01*
X164539946Y-98710809D01*
X164548828Y-98719691D01*
X164631651Y-98781763D01*
X164664942Y-98832734D01*
X164657681Y-98893179D01*
X164631651Y-98924201D01*
X164548828Y-98986273D01*
X164539946Y-98995155D01*
X164460287Y-99101445D01*
X164454256Y-99112460D01*
X164407363Y-99237547D01*
X164404800Y-99248325D01*
X164398917Y-99302484D01*
X164398655Y-99307312D01*
X162779123Y-99307312D01*
X162778192Y-99306614D01*
X162765445Y-99299635D01*
X162725264Y-99253899D01*
X162720894Y-99204204D01*
X162727155Y-99172730D01*
X162727155Y-98933234D01*
X162720894Y-98901759D01*
X162730155Y-98841589D01*
X162765445Y-98806329D01*
X162778192Y-98799350D01*
X162884482Y-98719691D01*
X162893364Y-98710809D01*
X162973023Y-98604519D01*
X162979054Y-98593504D01*
X163025947Y-98468417D01*
X163028510Y-98457639D01*
X163034393Y-98403480D01*
X163034655Y-98398652D01*
X163034655Y-98368676D01*
X163030279Y-98356653D01*
X163023921Y-98352982D01*
X162551479Y-98352982D01*
X162548075Y-98352815D01*
X162546403Y-98352482D01*
X161806907Y-98352482D01*
X161805235Y-98352815D01*
X161801831Y-98352982D01*
X161334350Y-98352982D01*
X161322327Y-98357358D01*
X161318656Y-98363716D01*
X161318656Y-98398664D01*
X161318915Y-98403459D01*
X161324800Y-98457639D01*
X161327364Y-98468419D01*
X161374256Y-98593504D01*
X161380287Y-98604519D01*
X161459946Y-98710809D01*
X161468828Y-98719691D01*
X161575118Y-98799350D01*
X161587865Y-98806329D01*
X161628046Y-98852065D01*
X161632416Y-98901759D01*
X161626155Y-98933234D01*
X161626155Y-99172730D01*
X161632416Y-99204204D01*
X161623155Y-99264375D01*
X161587865Y-99299635D01*
X161575118Y-99306614D01*
X161468828Y-99386273D01*
X161459946Y-99395155D01*
X161380287Y-99501445D01*
X161374256Y-99512460D01*
X161327363Y-99637547D01*
X161324800Y-99648325D01*
X161318917Y-99702484D01*
X161318655Y-99707312D01*
X156381000Y-99707312D01*
X156381000Y-98107312D01*
X161318655Y-98107312D01*
X161318655Y-98137288D01*
X161323031Y-98149311D01*
X161329389Y-98152982D01*
X161801831Y-98152982D01*
X161805235Y-98153149D01*
X161806907Y-98153482D01*
X162546403Y-98153482D01*
X162548075Y-98153149D01*
X162551479Y-98152982D01*
X163018960Y-98152982D01*
X163030983Y-98148606D01*
X163034654Y-98142248D01*
X163034654Y-98107312D01*
X164398655Y-98107312D01*
X164398655Y-98137288D01*
X164403031Y-98149311D01*
X164409389Y-98152982D01*
X164881831Y-98152982D01*
X164885235Y-98153149D01*
X164886907Y-98153482D01*
X165626403Y-98153482D01*
X165628075Y-98153149D01*
X165631479Y-98152982D01*
X166098960Y-98152982D01*
X166110983Y-98148606D01*
X166114654Y-98142248D01*
X166114654Y-98107301D01*
X166114395Y-98102505D01*
X166108510Y-98048325D01*
X166105946Y-98037545D01*
X166059054Y-97912460D01*
X166053023Y-97901445D01*
X165973364Y-97795155D01*
X165964482Y-97786273D01*
X165881659Y-97724201D01*
X165848368Y-97673230D01*
X165855629Y-97612785D01*
X165881659Y-97581763D01*
X165964482Y-97519691D01*
X165973364Y-97510809D01*
X166053023Y-97404519D01*
X166059054Y-97393504D01*
X166105947Y-97268417D01*
X166108510Y-97257639D01*
X166114393Y-97203480D01*
X166114655Y-97198652D01*
X166114655Y-97168676D01*
X166110279Y-97156653D01*
X166103921Y-97152982D01*
X165631479Y-97152982D01*
X165628075Y-97152815D01*
X165626403Y-97152482D01*
X164886907Y-97152482D01*
X164885235Y-97152815D01*
X164881831Y-97152982D01*
X164414350Y-97152982D01*
X164402327Y-97157358D01*
X164398656Y-97163716D01*
X164398656Y-97198664D01*
X164398915Y-97203459D01*
X164404800Y-97257639D01*
X164407364Y-97268419D01*
X164454256Y-97393504D01*
X164460287Y-97404519D01*
X164539946Y-97510809D01*
X164548828Y-97519691D01*
X164631651Y-97581763D01*
X164664942Y-97632734D01*
X164657681Y-97693179D01*
X164631651Y-97724201D01*
X164548828Y-97786273D01*
X164539946Y-97795155D01*
X164460287Y-97901445D01*
X164454256Y-97912460D01*
X164407363Y-98037547D01*
X164404800Y-98048325D01*
X164398917Y-98102484D01*
X164398655Y-98107312D01*
X163034654Y-98107312D01*
X163034654Y-98107301D01*
X163034395Y-98102505D01*
X163028510Y-98048325D01*
X163025946Y-98037545D01*
X162979054Y-97912460D01*
X162973023Y-97901445D01*
X162893364Y-97795155D01*
X162884482Y-97786273D01*
X162801659Y-97724201D01*
X162768368Y-97673230D01*
X162775629Y-97612785D01*
X162801659Y-97581763D01*
X162884482Y-97519691D01*
X162893364Y-97510809D01*
X162973023Y-97404519D01*
X162979054Y-97393504D01*
X163025947Y-97268417D01*
X163028510Y-97257639D01*
X163034393Y-97203480D01*
X163034655Y-97198652D01*
X163034655Y-97168676D01*
X163030279Y-97156653D01*
X163023921Y-97152982D01*
X162551479Y-97152982D01*
X162548075Y-97152815D01*
X162546403Y-97152482D01*
X161806907Y-97152482D01*
X161805235Y-97152815D01*
X161801831Y-97152982D01*
X161334350Y-97152982D01*
X161322327Y-97157358D01*
X161318656Y-97163716D01*
X161318656Y-97198664D01*
X161318915Y-97203459D01*
X161324800Y-97257639D01*
X161327364Y-97268419D01*
X161374256Y-97393504D01*
X161380287Y-97404519D01*
X161459946Y-97510809D01*
X161468828Y-97519691D01*
X161551651Y-97581763D01*
X161584942Y-97632734D01*
X161577681Y-97693179D01*
X161551651Y-97724201D01*
X161468828Y-97786273D01*
X161459946Y-97795155D01*
X161380287Y-97901445D01*
X161374256Y-97912460D01*
X161327363Y-98037547D01*
X161324800Y-98048325D01*
X161318917Y-98102484D01*
X161318655Y-98107312D01*
X156381000Y-98107312D01*
X156381000Y-96907312D01*
X161318655Y-96907312D01*
X161318655Y-96937288D01*
X161323031Y-96949311D01*
X161329389Y-96952982D01*
X161801831Y-96952982D01*
X161805235Y-96953149D01*
X161806907Y-96953482D01*
X162546403Y-96953482D01*
X162548075Y-96953149D01*
X162551479Y-96952982D01*
X163018960Y-96952982D01*
X163030983Y-96948606D01*
X163034654Y-96942248D01*
X163034654Y-96907312D01*
X164398655Y-96907312D01*
X164398655Y-96937288D01*
X164403031Y-96949311D01*
X164409389Y-96952982D01*
X164881831Y-96952982D01*
X164885235Y-96953149D01*
X164886907Y-96953482D01*
X165626403Y-96953482D01*
X165628075Y-96953149D01*
X165631479Y-96952982D01*
X166098960Y-96952982D01*
X166110983Y-96948606D01*
X166114654Y-96942248D01*
X166114654Y-96907301D01*
X166114395Y-96902505D01*
X166108510Y-96848325D01*
X166105946Y-96837545D01*
X166059054Y-96712460D01*
X166053023Y-96701445D01*
X165973364Y-96595155D01*
X165964482Y-96586273D01*
X165881659Y-96524201D01*
X165848368Y-96473230D01*
X165855629Y-96412785D01*
X165881659Y-96381763D01*
X165964482Y-96319691D01*
X165973364Y-96310809D01*
X166053023Y-96204519D01*
X166059054Y-96193504D01*
X166105947Y-96068417D01*
X166108510Y-96057639D01*
X166114393Y-96003480D01*
X166114655Y-95998652D01*
X166114655Y-95968676D01*
X166110279Y-95956653D01*
X166103921Y-95952982D01*
X165631479Y-95952982D01*
X165628075Y-95952815D01*
X165626403Y-95952482D01*
X164886907Y-95952482D01*
X164885235Y-95952815D01*
X164881831Y-95952982D01*
X164414350Y-95952982D01*
X164402327Y-95957358D01*
X164398656Y-95963716D01*
X164398656Y-95998664D01*
X164398915Y-96003459D01*
X164404800Y-96057639D01*
X164407364Y-96068419D01*
X164454256Y-96193504D01*
X164460287Y-96204519D01*
X164539946Y-96310809D01*
X164548828Y-96319691D01*
X164631651Y-96381763D01*
X164664942Y-96432734D01*
X164657681Y-96493179D01*
X164631651Y-96524201D01*
X164548828Y-96586273D01*
X164539946Y-96595155D01*
X164460287Y-96701445D01*
X164454256Y-96712460D01*
X164407363Y-96837547D01*
X164404800Y-96848325D01*
X164398917Y-96902484D01*
X164398655Y-96907312D01*
X163034654Y-96907312D01*
X163034654Y-96907301D01*
X163034395Y-96902505D01*
X163028510Y-96848325D01*
X163025946Y-96837545D01*
X162979054Y-96712460D01*
X162973023Y-96701445D01*
X162893364Y-96595155D01*
X162884482Y-96586273D01*
X162778192Y-96506614D01*
X162765445Y-96499635D01*
X162725264Y-96453899D01*
X162720894Y-96404204D01*
X162725358Y-96381763D01*
X162727155Y-96372730D01*
X162727155Y-96133234D01*
X162720894Y-96101759D01*
X162730155Y-96041589D01*
X162765445Y-96006329D01*
X162778192Y-95999350D01*
X162884482Y-95919691D01*
X162893364Y-95910809D01*
X162973023Y-95804519D01*
X162979054Y-95793504D01*
X163011366Y-95707312D01*
X164398655Y-95707312D01*
X164398655Y-95737288D01*
X164403031Y-95749311D01*
X164409389Y-95752982D01*
X164881831Y-95752982D01*
X164885235Y-95753149D01*
X164886907Y-95753482D01*
X165626403Y-95753482D01*
X165628075Y-95753149D01*
X165631479Y-95752982D01*
X166098960Y-95752982D01*
X166110983Y-95748606D01*
X166114654Y-95742248D01*
X166114654Y-95707301D01*
X166114395Y-95702505D01*
X166108510Y-95648325D01*
X166105946Y-95637545D01*
X166059054Y-95512460D01*
X166053023Y-95501445D01*
X165973364Y-95395155D01*
X165964482Y-95386273D01*
X165858192Y-95306614D01*
X165845445Y-95299635D01*
X165805264Y-95253899D01*
X165800894Y-95204204D01*
X165807155Y-95172730D01*
X165807155Y-95042482D01*
X165827977Y-94985274D01*
X165880700Y-94954834D01*
X165896155Y-94953482D01*
X166535500Y-94953482D01*
X166592708Y-94974304D01*
X166623148Y-95027027D01*
X166624500Y-95042482D01*
X166624500Y-107504134D01*
X166624188Y-107511582D01*
X166619600Y-107566217D01*
X166620237Y-107570990D01*
X166620237Y-107570993D01*
X166630626Y-107648851D01*
X166630887Y-107651010D01*
X166639882Y-107733809D01*
X166641418Y-107738374D01*
X166642454Y-107743087D01*
X166642271Y-107743127D01*
X166642790Y-107745355D01*
X166642971Y-107745310D01*
X166644122Y-107749997D01*
X166644759Y-107754767D01*
X166673278Y-107833124D01*
X166673979Y-107835128D01*
X166700555Y-107914096D01*
X166703036Y-107918225D01*
X166705058Y-107922602D01*
X166704888Y-107922681D01*
X166705874Y-107924748D01*
X166706042Y-107924665D01*
X166708172Y-107928993D01*
X166709819Y-107933518D01*
X166754470Y-108003877D01*
X166755589Y-108005691D01*
X166796043Y-108073016D01*
X166796047Y-108073021D01*
X166798526Y-108077147D01*
X166801834Y-108080645D01*
X166804750Y-108084487D01*
X166804600Y-108084601D01*
X166807438Y-108088247D01*
X166807587Y-108088134D01*
X166809788Y-108091045D01*
X166811745Y-108094128D01*
X166815637Y-108098481D01*
X166871139Y-108153983D01*
X166872871Y-108155765D01*
X166929225Y-108215358D01*
X166933213Y-108218068D01*
X166936881Y-108221190D01*
X166936875Y-108221198D01*
X166945435Y-108228279D01*
X170123833Y-111406677D01*
X170149561Y-111461853D01*
X170149900Y-111469610D01*
X170149900Y-112650048D01*
X170150752Y-112654331D01*
X170156017Y-112680798D01*
X170161533Y-112708531D01*
X170205848Y-112774852D01*
X170272169Y-112819167D01*
X170280769Y-112820878D01*
X170280770Y-112820878D01*
X170313907Y-112827469D01*
X170330652Y-112830800D01*
X172579948Y-112830800D01*
X172596693Y-112827469D01*
X172629830Y-112820878D01*
X172629831Y-112820878D01*
X172638431Y-112819167D01*
X172704752Y-112774852D01*
X172749067Y-112708531D01*
X172754584Y-112680798D01*
X172759848Y-112654331D01*
X172760700Y-112650048D01*
X172760700Y-111764734D01*
X173931801Y-111764734D01*
X173931801Y-112675982D01*
X173932060Y-112680777D01*
X173937945Y-112734957D01*
X173940509Y-112745737D01*
X173987401Y-112870822D01*
X173993432Y-112881837D01*
X174073091Y-112988127D01*
X174081973Y-112997009D01*
X174188263Y-113076668D01*
X174199278Y-113082699D01*
X174324365Y-113129592D01*
X174335143Y-113132155D01*
X174389302Y-113138038D01*
X174394130Y-113138300D01*
X175275006Y-113138300D01*
X175287029Y-113133924D01*
X175290700Y-113127566D01*
X175290700Y-111769694D01*
X175288895Y-111764734D01*
X175798700Y-111764734D01*
X175798700Y-113122605D01*
X175803076Y-113134628D01*
X175809434Y-113138299D01*
X176695282Y-113138299D01*
X176700077Y-113138040D01*
X176754257Y-113132155D01*
X176765037Y-113129591D01*
X176890122Y-113082699D01*
X176901137Y-113076668D01*
X177007427Y-112997009D01*
X177016309Y-112988127D01*
X177095968Y-112881837D01*
X177101999Y-112870822D01*
X177148892Y-112745735D01*
X177151455Y-112734957D01*
X177157338Y-112680798D01*
X177157600Y-112675970D01*
X177157600Y-111769694D01*
X177153224Y-111757671D01*
X177146866Y-111754000D01*
X175814394Y-111754000D01*
X175802371Y-111758376D01*
X175798700Y-111764734D01*
X175288895Y-111764734D01*
X175286324Y-111757671D01*
X175279966Y-111754000D01*
X173947495Y-111754000D01*
X173935472Y-111758376D01*
X173931801Y-111764734D01*
X172760700Y-111764734D01*
X172760700Y-110349952D01*
X172755544Y-110324030D01*
X173931800Y-110324030D01*
X173931800Y-111230306D01*
X173936176Y-111242329D01*
X173942534Y-111246000D01*
X175275006Y-111246000D01*
X175287029Y-111241624D01*
X175290700Y-111235266D01*
X175290700Y-109877395D01*
X175288894Y-109872434D01*
X175798700Y-109872434D01*
X175798700Y-111230306D01*
X175803076Y-111242329D01*
X175809434Y-111246000D01*
X177141905Y-111246000D01*
X177153928Y-111241624D01*
X177157599Y-111235266D01*
X177157599Y-110324019D01*
X177157340Y-110319223D01*
X177151455Y-110265043D01*
X177148891Y-110254263D01*
X177101999Y-110129178D01*
X177095968Y-110118163D01*
X177016309Y-110011873D01*
X177007427Y-110002991D01*
X176901137Y-109923332D01*
X176890122Y-109917301D01*
X176765035Y-109870408D01*
X176754257Y-109867845D01*
X176700098Y-109861962D01*
X176695270Y-109861700D01*
X175814394Y-109861700D01*
X175802371Y-109866076D01*
X175798700Y-109872434D01*
X175288894Y-109872434D01*
X175286324Y-109865372D01*
X175279966Y-109861701D01*
X174394119Y-109861701D01*
X174389323Y-109861960D01*
X174335143Y-109867845D01*
X174324363Y-109870409D01*
X174199278Y-109917301D01*
X174188263Y-109923332D01*
X174081973Y-110002991D01*
X174073091Y-110011873D01*
X173993432Y-110118163D01*
X173987401Y-110129178D01*
X173940508Y-110254265D01*
X173937945Y-110265043D01*
X173932062Y-110319202D01*
X173931800Y-110324030D01*
X172755544Y-110324030D01*
X172754588Y-110319223D01*
X172750778Y-110300070D01*
X172750778Y-110300069D01*
X172749067Y-110291469D01*
X172704752Y-110225148D01*
X172638431Y-110180833D01*
X172629831Y-110179122D01*
X172629830Y-110179122D01*
X172584231Y-110170052D01*
X172584232Y-110170052D01*
X172579948Y-110169200D01*
X171399510Y-110169200D01*
X171342302Y-110148378D01*
X171336577Y-110143133D01*
X168401567Y-107208123D01*
X168375839Y-107152947D01*
X168375500Y-107145190D01*
X168375500Y-106874734D01*
X169429501Y-106874734D01*
X169429501Y-107745682D01*
X169429760Y-107750477D01*
X169435645Y-107804657D01*
X169438209Y-107815437D01*
X169485101Y-107940522D01*
X169491132Y-107951537D01*
X169570791Y-108057827D01*
X169579673Y-108066709D01*
X169685963Y-108146368D01*
X169696978Y-108152399D01*
X169822065Y-108199292D01*
X169832843Y-108201855D01*
X169887002Y-108207738D01*
X169891830Y-108208000D01*
X170667806Y-108208000D01*
X170679829Y-108203624D01*
X170683500Y-108197266D01*
X170683500Y-106879694D01*
X170681695Y-106874734D01*
X171191500Y-106874734D01*
X171191500Y-108192305D01*
X171195876Y-108204328D01*
X171202234Y-108207999D01*
X171983182Y-108207999D01*
X171987977Y-108207740D01*
X172042157Y-108201855D01*
X172052937Y-108199291D01*
X172178022Y-108152399D01*
X172189037Y-108146368D01*
X172295327Y-108066709D01*
X172304209Y-108057827D01*
X172383868Y-107951537D01*
X172389899Y-107940522D01*
X172436792Y-107815435D01*
X172439355Y-107804657D01*
X172445238Y-107750498D01*
X172445500Y-107745670D01*
X172445500Y-106879694D01*
X172443695Y-106874734D01*
X173359501Y-106874734D01*
X173359501Y-107745682D01*
X173359760Y-107750477D01*
X173365645Y-107804657D01*
X173368209Y-107815437D01*
X173415101Y-107940522D01*
X173421132Y-107951537D01*
X173500791Y-108057827D01*
X173509673Y-108066709D01*
X173615963Y-108146368D01*
X173626978Y-108152399D01*
X173752065Y-108199292D01*
X173762843Y-108201855D01*
X173817002Y-108207738D01*
X173821830Y-108208000D01*
X174597806Y-108208000D01*
X174609829Y-108203624D01*
X174613500Y-108197266D01*
X174613500Y-106879694D01*
X174611695Y-106874734D01*
X175121500Y-106874734D01*
X175121500Y-108192305D01*
X175125876Y-108204328D01*
X175132234Y-108207999D01*
X175913182Y-108207999D01*
X175917977Y-108207740D01*
X175972157Y-108201855D01*
X175982937Y-108199291D01*
X176108022Y-108152399D01*
X176119037Y-108146368D01*
X176225327Y-108066709D01*
X176234209Y-108057827D01*
X176313868Y-107951537D01*
X176319899Y-107940522D01*
X176366792Y-107815435D01*
X176369355Y-107804657D01*
X176375238Y-107750498D01*
X176375500Y-107745670D01*
X176375500Y-106879694D01*
X176371124Y-106867671D01*
X176364766Y-106864000D01*
X175137194Y-106864000D01*
X175125171Y-106868376D01*
X175121500Y-106874734D01*
X174611695Y-106874734D01*
X174609124Y-106867671D01*
X174602766Y-106864000D01*
X173375195Y-106864000D01*
X173363172Y-106868376D01*
X173359501Y-106874734D01*
X172443695Y-106874734D01*
X172441124Y-106867671D01*
X172434766Y-106864000D01*
X171207194Y-106864000D01*
X171195171Y-106868376D01*
X171191500Y-106874734D01*
X170681695Y-106874734D01*
X170679124Y-106867671D01*
X170672766Y-106864000D01*
X169445195Y-106864000D01*
X169433172Y-106868376D01*
X169429501Y-106874734D01*
X168375500Y-106874734D01*
X168375500Y-104489500D01*
X168396322Y-104432292D01*
X168449045Y-104401852D01*
X168464500Y-104400500D01*
X169206333Y-104400500D01*
X169263541Y-104421322D01*
X169274432Y-104436877D01*
X169290234Y-104446000D01*
X170527500Y-104446000D01*
X170584708Y-104466822D01*
X170615148Y-104519545D01*
X170616500Y-104535000D01*
X170616500Y-104865000D01*
X170595678Y-104922208D01*
X170542955Y-104952648D01*
X170527500Y-104954000D01*
X169295195Y-104954000D01*
X169283172Y-104958376D01*
X169279501Y-104964734D01*
X169279501Y-105045682D01*
X169279760Y-105050477D01*
X169285645Y-105104657D01*
X169288209Y-105115437D01*
X169335101Y-105240522D01*
X169341132Y-105251537D01*
X169418171Y-105354331D01*
X169435431Y-105417318D01*
X169429762Y-105469503D01*
X169429500Y-105474330D01*
X169429500Y-106340306D01*
X169433876Y-106352329D01*
X169440234Y-106356000D01*
X172429805Y-106356000D01*
X172441828Y-106351624D01*
X172445499Y-106345266D01*
X172445499Y-105474330D01*
X173359500Y-105474330D01*
X173359500Y-106340306D01*
X173363876Y-106352329D01*
X173370234Y-106356000D01*
X174597806Y-106356000D01*
X174609829Y-106351624D01*
X174613500Y-106345266D01*
X174613500Y-105027695D01*
X174611694Y-105022734D01*
X175121500Y-105022734D01*
X175121500Y-106340306D01*
X175125876Y-106352329D01*
X175132234Y-106356000D01*
X176359805Y-106356000D01*
X176371828Y-106351624D01*
X176375499Y-106345266D01*
X176375499Y-105474319D01*
X176375240Y-105469523D01*
X176369355Y-105415343D01*
X176366791Y-105404563D01*
X176319899Y-105279478D01*
X176313868Y-105268463D01*
X176234209Y-105162173D01*
X176225327Y-105153291D01*
X176119037Y-105073632D01*
X176108022Y-105067601D01*
X175982935Y-105020708D01*
X175972157Y-105018145D01*
X175917998Y-105012262D01*
X175913170Y-105012000D01*
X175137194Y-105012000D01*
X175125171Y-105016376D01*
X175121500Y-105022734D01*
X174611694Y-105022734D01*
X174609124Y-105015672D01*
X174602766Y-105012001D01*
X173821819Y-105012001D01*
X173817023Y-105012260D01*
X173762843Y-105018145D01*
X173752063Y-105020709D01*
X173626978Y-105067601D01*
X173615963Y-105073632D01*
X173509673Y-105153291D01*
X173500791Y-105162173D01*
X173421132Y-105268463D01*
X173415101Y-105279478D01*
X173368208Y-105404565D01*
X173365645Y-105415343D01*
X173359762Y-105469502D01*
X173359500Y-105474330D01*
X172445499Y-105474330D01*
X172445499Y-105474319D01*
X172445240Y-105469523D01*
X172439355Y-105415343D01*
X172436791Y-105404563D01*
X172389899Y-105279478D01*
X172383868Y-105268463D01*
X172304209Y-105162173D01*
X172295327Y-105153291D01*
X172189037Y-105073632D01*
X172178022Y-105067601D01*
X172052935Y-105020708D01*
X172042157Y-105018145D01*
X171987998Y-105012262D01*
X171983170Y-105012000D01*
X171750865Y-105012000D01*
X171693657Y-104991178D01*
X171663217Y-104938455D01*
X171673789Y-104878500D01*
X171702842Y-104849446D01*
X171702518Y-104849024D01*
X171705724Y-104846564D01*
X171812291Y-104764791D01*
X171876702Y-104680850D01*
X171892973Y-104659645D01*
X171892974Y-104659644D01*
X171896524Y-104655017D01*
X171949474Y-104527183D01*
X171967535Y-104390000D01*
X171949474Y-104252817D01*
X171896524Y-104124983D01*
X171857980Y-104074751D01*
X171815846Y-104019842D01*
X171812291Y-104015209D01*
X171736899Y-103957358D01*
X171707146Y-103934527D01*
X171707145Y-103934526D01*
X171702518Y-103930976D01*
X171697132Y-103928745D01*
X171697130Y-103928744D01*
X171580067Y-103880256D01*
X171580066Y-103880256D01*
X171574683Y-103878026D01*
X171568909Y-103877266D01*
X171568906Y-103877265D01*
X171443280Y-103860726D01*
X171437500Y-103859965D01*
X171300317Y-103878026D01*
X171294925Y-103880260D01*
X171294923Y-103880260D01*
X171261058Y-103894287D01*
X171200237Y-103896943D01*
X171151938Y-103859881D01*
X171138000Y-103812062D01*
X171138000Y-103580252D01*
X171126367Y-103521769D01*
X171129047Y-103521236D01*
X171127176Y-103478392D01*
X171126367Y-103478231D01*
X171127025Y-103474925D01*
X171127025Y-103474923D01*
X171138000Y-103419748D01*
X171138000Y-103193135D01*
X171158822Y-103135927D01*
X171211545Y-103105487D01*
X171220576Y-103104911D01*
X171220761Y-103104951D01*
X171221704Y-103104839D01*
X171221710Y-103104839D01*
X171253154Y-103101117D01*
X171261284Y-103100637D01*
X171262941Y-103100500D01*
X171266615Y-103100500D01*
X171284845Y-103097466D01*
X171288995Y-103096875D01*
X171329331Y-103092101D01*
X171329332Y-103092101D01*
X171336638Y-103091236D01*
X171342786Y-103088284D01*
X171345868Y-103087309D01*
X171352603Y-103086188D01*
X171359076Y-103082695D01*
X171359080Y-103082694D01*
X171394849Y-103063393D01*
X171398548Y-103061508D01*
X171441826Y-103040726D01*
X171445774Y-103037408D01*
X171447135Y-103036047D01*
X171447759Y-103035475D01*
X171449835Y-103033724D01*
X171455294Y-103030778D01*
X171489445Y-102993834D01*
X171491866Y-102991316D01*
X172476853Y-102006329D01*
X173464685Y-101018496D01*
X173479337Y-101006663D01*
X173489152Y-101000325D01*
X173509346Y-100974709D01*
X173514751Y-100968625D01*
X173515833Y-100967348D01*
X173518428Y-100964753D01*
X173529169Y-100949723D01*
X173531686Y-100946371D01*
X173556837Y-100914467D01*
X173561392Y-100908689D01*
X173563653Y-100902250D01*
X173565142Y-100899385D01*
X173569111Y-100893831D01*
X173572583Y-100882223D01*
X173582860Y-100847856D01*
X173584157Y-100843867D01*
X173598198Y-100803885D01*
X173598200Y-100803877D01*
X173600055Y-100798594D01*
X173600500Y-100793456D01*
X173600500Y-100791527D01*
X173600535Y-100790718D01*
X173600767Y-100787979D01*
X173602544Y-100782036D01*
X173600569Y-100731768D01*
X173600500Y-100728274D01*
X173600500Y-98050886D01*
X173621322Y-97993678D01*
X173674045Y-97963238D01*
X173720741Y-97967549D01*
X173752069Y-97979293D01*
X173762843Y-97981855D01*
X173817002Y-97987738D01*
X173821830Y-97988000D01*
X174597806Y-97988000D01*
X174609829Y-97983624D01*
X174613500Y-97977266D01*
X174613500Y-96654734D01*
X175121500Y-96654734D01*
X175121500Y-97972305D01*
X175125876Y-97984328D01*
X175132234Y-97987999D01*
X175913182Y-97987999D01*
X175917977Y-97987740D01*
X175972157Y-97981855D01*
X175982937Y-97979291D01*
X176108022Y-97932399D01*
X176119037Y-97926368D01*
X176225327Y-97846709D01*
X176234209Y-97837827D01*
X176313868Y-97731537D01*
X176319899Y-97720522D01*
X176366792Y-97595435D01*
X176369355Y-97584657D01*
X176375238Y-97530498D01*
X176375500Y-97525670D01*
X176375500Y-96659694D01*
X176371124Y-96647671D01*
X176364766Y-96644000D01*
X175137194Y-96644000D01*
X175125171Y-96648376D01*
X175121500Y-96654734D01*
X174613500Y-96654734D01*
X174613500Y-94807695D01*
X174611694Y-94802734D01*
X175121500Y-94802734D01*
X175121500Y-96120306D01*
X175125876Y-96132329D01*
X175132234Y-96136000D01*
X176359805Y-96136000D01*
X176371828Y-96131624D01*
X176375499Y-96125266D01*
X176375499Y-95254319D01*
X176375240Y-95249523D01*
X176369355Y-95195343D01*
X176366791Y-95184563D01*
X176319899Y-95059478D01*
X176313868Y-95048463D01*
X176234209Y-94942173D01*
X176225327Y-94933291D01*
X176119037Y-94853632D01*
X176108022Y-94847601D01*
X175982935Y-94800708D01*
X175972157Y-94798145D01*
X175917998Y-94792262D01*
X175913170Y-94792000D01*
X175137194Y-94792000D01*
X175125171Y-94796376D01*
X175121500Y-94802734D01*
X174611694Y-94802734D01*
X174609124Y-94795672D01*
X174602766Y-94792001D01*
X173821819Y-94792001D01*
X173817023Y-94792260D01*
X173762843Y-94798145D01*
X173752067Y-94800708D01*
X173720741Y-94812451D01*
X173659864Y-94813035D01*
X173612854Y-94774351D01*
X173600500Y-94729114D01*
X173600500Y-91856890D01*
X173602494Y-91838158D01*
X173603404Y-91833934D01*
X173603404Y-91833929D01*
X173604952Y-91826740D01*
X173601117Y-91794340D01*
X173600638Y-91786226D01*
X173600500Y-91784557D01*
X173600500Y-91780885D01*
X173599897Y-91777262D01*
X173597467Y-91762659D01*
X173596876Y-91758510D01*
X173592101Y-91718169D01*
X173592101Y-91718168D01*
X173591236Y-91710862D01*
X173588284Y-91704714D01*
X173587309Y-91701632D01*
X173586188Y-91694897D01*
X173582695Y-91688424D01*
X173582694Y-91688420D01*
X173563393Y-91652651D01*
X173561508Y-91648952D01*
X173540726Y-91605674D01*
X173537408Y-91601726D01*
X173536046Y-91600364D01*
X173535474Y-91599740D01*
X173533725Y-91597667D01*
X173530778Y-91592206D01*
X173493836Y-91558057D01*
X173491341Y-91555659D01*
X172686567Y-90750885D01*
X172660839Y-90695709D01*
X172660500Y-90687952D01*
X172660500Y-89790252D01*
X172655344Y-89764330D01*
X172650578Y-89740370D01*
X172650578Y-89740369D01*
X172648867Y-89731769D01*
X172604552Y-89665448D01*
X172538231Y-89621133D01*
X172529631Y-89619422D01*
X172529630Y-89619422D01*
X172484031Y-89610352D01*
X172484032Y-89610352D01*
X172479748Y-89609500D01*
X171400252Y-89609500D01*
X171395968Y-89610352D01*
X171395969Y-89610352D01*
X171350370Y-89619422D01*
X171350369Y-89619422D01*
X171341769Y-89621133D01*
X171275448Y-89665448D01*
X171239045Y-89719928D01*
X171189952Y-89755924D01*
X171129203Y-89751943D01*
X171085225Y-89709844D01*
X171081561Y-89699677D01*
X171081252Y-89699793D01*
X171032399Y-89569478D01*
X171026368Y-89558463D01*
X170946709Y-89452173D01*
X170937827Y-89443291D01*
X170831537Y-89363632D01*
X170820522Y-89357601D01*
X170695435Y-89310708D01*
X170684657Y-89308145D01*
X170630498Y-89302262D01*
X170625670Y-89302000D01*
X170329694Y-89302000D01*
X170317671Y-89306376D01*
X170314000Y-89312734D01*
X170314000Y-93932305D01*
X170318376Y-93944328D01*
X170324734Y-93947999D01*
X170625682Y-93947999D01*
X170630477Y-93947740D01*
X170684657Y-93941855D01*
X170695437Y-93939291D01*
X170820522Y-93892399D01*
X170831537Y-93886368D01*
X170937827Y-93806709D01*
X170946709Y-93797827D01*
X171026368Y-93691537D01*
X171032399Y-93680522D01*
X171081252Y-93550207D01*
X171083620Y-93551095D01*
X171111964Y-93508084D01*
X171170301Y-93490675D01*
X171226180Y-93514838D01*
X171239040Y-93530065D01*
X171275448Y-93584552D01*
X171341769Y-93628867D01*
X171350369Y-93630578D01*
X171350370Y-93630578D01*
X171383507Y-93637169D01*
X171400252Y-93640500D01*
X172297952Y-93640500D01*
X172355160Y-93661322D01*
X172360885Y-93666567D01*
X172373433Y-93679115D01*
X172399161Y-93734291D01*
X172399500Y-93742048D01*
X172399500Y-94833441D01*
X172378678Y-94890649D01*
X172325955Y-94921089D01*
X172266000Y-94910517D01*
X172257125Y-94904660D01*
X172189037Y-94853632D01*
X172178022Y-94847601D01*
X172052935Y-94800708D01*
X172042157Y-94798145D01*
X171987998Y-94792262D01*
X171983170Y-94792000D01*
X171207194Y-94792000D01*
X171195171Y-94796376D01*
X171191500Y-94802734D01*
X171191500Y-96555000D01*
X171170678Y-96612208D01*
X171117955Y-96642648D01*
X171102500Y-96644000D01*
X169445195Y-96644000D01*
X169433172Y-96648376D01*
X169429501Y-96654734D01*
X169429501Y-97525682D01*
X169429760Y-97530477D01*
X169435431Y-97582685D01*
X169418170Y-97645670D01*
X169341132Y-97748463D01*
X169335101Y-97759478D01*
X169288208Y-97884565D01*
X169285645Y-97895343D01*
X169279762Y-97949502D01*
X169279500Y-97954330D01*
X169279500Y-98030306D01*
X169283876Y-98042329D01*
X169290234Y-98046000D01*
X170527500Y-98046000D01*
X170584708Y-98066822D01*
X170615148Y-98119545D01*
X170616500Y-98135000D01*
X170616500Y-98465000D01*
X170595678Y-98522208D01*
X170542955Y-98552648D01*
X170527500Y-98554000D01*
X169295195Y-98554000D01*
X169279508Y-98559710D01*
X169238484Y-98594133D01*
X169208045Y-98599500D01*
X168464500Y-98599500D01*
X168407292Y-98578678D01*
X168376852Y-98525955D01*
X168375500Y-98510500D01*
X168375500Y-95254330D01*
X169429500Y-95254330D01*
X169429500Y-96120306D01*
X169433876Y-96132329D01*
X169440234Y-96136000D01*
X170667806Y-96136000D01*
X170679829Y-96131624D01*
X170683500Y-96125266D01*
X170683500Y-94807695D01*
X170679124Y-94795672D01*
X170672766Y-94792001D01*
X169891819Y-94792001D01*
X169887023Y-94792260D01*
X169832843Y-94798145D01*
X169822063Y-94800709D01*
X169696978Y-94847601D01*
X169685963Y-94853632D01*
X169579673Y-94933291D01*
X169570791Y-94942173D01*
X169491132Y-95048463D01*
X169485101Y-95059478D01*
X169438208Y-95184565D01*
X169435645Y-95195343D01*
X169429762Y-95249502D01*
X169429500Y-95254330D01*
X168375500Y-95254330D01*
X168375500Y-93014734D01*
X169032001Y-93014734D01*
X169032001Y-93485682D01*
X169032260Y-93490477D01*
X169038145Y-93544657D01*
X169040709Y-93555437D01*
X169087601Y-93680522D01*
X169093632Y-93691537D01*
X169173291Y-93797827D01*
X169182173Y-93806709D01*
X169288463Y-93886368D01*
X169299478Y-93892399D01*
X169424565Y-93939292D01*
X169435343Y-93941855D01*
X169489502Y-93947738D01*
X169494330Y-93948000D01*
X169790306Y-93948000D01*
X169802329Y-93943624D01*
X169806000Y-93937266D01*
X169806000Y-93019694D01*
X169801624Y-93007671D01*
X169795266Y-93004000D01*
X169047695Y-93004000D01*
X169035672Y-93008376D01*
X169032001Y-93014734D01*
X168375500Y-93014734D01*
X168375500Y-92952483D01*
X168360118Y-92810891D01*
X168299445Y-92630604D01*
X168201474Y-92467553D01*
X168070775Y-92329342D01*
X167913446Y-92222422D01*
X167736827Y-92151779D01*
X167549160Y-92120711D01*
X167544350Y-92120963D01*
X167544349Y-92120963D01*
X167391940Y-92128951D01*
X167359199Y-92130667D01*
X167175807Y-92181181D01*
X167007540Y-92269898D01*
X167003861Y-92273007D01*
X166934691Y-92331460D01*
X166877245Y-92352482D01*
X165896155Y-92352482D01*
X165838947Y-92331660D01*
X165808507Y-92278937D01*
X165807155Y-92263482D01*
X165807155Y-92133234D01*
X165795522Y-92074751D01*
X165798202Y-92074218D01*
X165796331Y-92031374D01*
X165795522Y-92031213D01*
X165796180Y-92027907D01*
X165796180Y-92027905D01*
X165798880Y-92014330D01*
X169032000Y-92014330D01*
X169032000Y-92480306D01*
X169036376Y-92492329D01*
X169042734Y-92496000D01*
X169790306Y-92496000D01*
X169802329Y-92491624D01*
X169806000Y-92485266D01*
X169806000Y-90769694D01*
X169801624Y-90757671D01*
X169795266Y-90754000D01*
X169047695Y-90754000D01*
X169035672Y-90758376D01*
X169032001Y-90764734D01*
X169032001Y-91235682D01*
X169032260Y-91240477D01*
X169038145Y-91294657D01*
X169040709Y-91305437D01*
X169087601Y-91430522D01*
X169093632Y-91441537D01*
X169173291Y-91547827D01*
X169186654Y-91561190D01*
X169184509Y-91563335D01*
X169211559Y-91604759D01*
X169204293Y-91665203D01*
X169185475Y-91687631D01*
X169186654Y-91688810D01*
X169173291Y-91702173D01*
X169093632Y-91808463D01*
X169087601Y-91819478D01*
X169040708Y-91944565D01*
X169038145Y-91955343D01*
X169032262Y-92009502D01*
X169032000Y-92014330D01*
X165798880Y-92014330D01*
X165807155Y-91972730D01*
X165807155Y-91733234D01*
X165795522Y-91674751D01*
X165798202Y-91674218D01*
X165796331Y-91631374D01*
X165795522Y-91631213D01*
X165796180Y-91627907D01*
X165796180Y-91627905D01*
X165807155Y-91572730D01*
X165807155Y-91433087D01*
X165827977Y-91375879D01*
X165885695Y-91344704D01*
X165914997Y-91341236D01*
X165958124Y-91320527D01*
X166015138Y-91293150D01*
X166015141Y-91293148D01*
X166020185Y-91290726D01*
X166024133Y-91287408D01*
X167214691Y-90096850D01*
X167229347Y-90085015D01*
X167232971Y-90082675D01*
X167239152Y-90078684D01*
X167259350Y-90053064D01*
X167264767Y-90046967D01*
X167265838Y-90045703D01*
X167268428Y-90043113D01*
X167270557Y-90040133D01*
X167270566Y-90040123D01*
X167279171Y-90028080D01*
X167281690Y-90024724D01*
X167291232Y-90012621D01*
X167311392Y-89987048D01*
X167313653Y-89980609D01*
X167315141Y-89977746D01*
X167319111Y-89972190D01*
X167321218Y-89965146D01*
X167321219Y-89965143D01*
X167332858Y-89926221D01*
X167334155Y-89922230D01*
X167348199Y-89882241D01*
X167348201Y-89882234D01*
X167350055Y-89876953D01*
X167350500Y-89871815D01*
X167350500Y-89869890D01*
X167350536Y-89869059D01*
X167350767Y-89866337D01*
X167352543Y-89860396D01*
X167350569Y-89810142D01*
X167350500Y-89806650D01*
X167350500Y-89764330D01*
X169032000Y-89764330D01*
X169032000Y-90230306D01*
X169036376Y-90242329D01*
X169042734Y-90246000D01*
X169790306Y-90246000D01*
X169802329Y-90241624D01*
X169806000Y-90235266D01*
X169806000Y-89317695D01*
X169801624Y-89305672D01*
X169795266Y-89302001D01*
X169494319Y-89302001D01*
X169489523Y-89302260D01*
X169435343Y-89308145D01*
X169424563Y-89310709D01*
X169299478Y-89357601D01*
X169288463Y-89363632D01*
X169182173Y-89443291D01*
X169173291Y-89452173D01*
X169093632Y-89558463D01*
X169087601Y-89569478D01*
X169040708Y-89694565D01*
X169038145Y-89705343D01*
X169032262Y-89759502D01*
X169032000Y-89764330D01*
X167350500Y-89764330D01*
X167350500Y-88094390D01*
X168140860Y-88094390D01*
X168157741Y-88223481D01*
X168210174Y-88342645D01*
X168293946Y-88442303D01*
X168299219Y-88445813D01*
X168397045Y-88510933D01*
X168397047Y-88510934D01*
X168402320Y-88514444D01*
X168408368Y-88516333D01*
X168408369Y-88516334D01*
X168413990Y-88518090D01*
X168526587Y-88553267D01*
X168576516Y-88554182D01*
X168650412Y-88555537D01*
X168650414Y-88555537D01*
X168656755Y-88555653D01*
X168782360Y-88521409D01*
X168893306Y-88453288D01*
X168980672Y-88356767D01*
X169037437Y-88239604D01*
X169059037Y-88111219D01*
X169059174Y-88100000D01*
X169056985Y-88084712D01*
X169069484Y-88025131D01*
X169082152Y-88009161D01*
X169207037Y-87884276D01*
X169262213Y-87858548D01*
X169281572Y-87859606D01*
X169281610Y-87859218D01*
X169285962Y-87859647D01*
X169290252Y-87860500D01*
X170709748Y-87860500D01*
X170726493Y-87857169D01*
X170759630Y-87850578D01*
X170759631Y-87850578D01*
X170768231Y-87848867D01*
X170834552Y-87804552D01*
X170878867Y-87738231D01*
X170890500Y-87679748D01*
X170890500Y-86600252D01*
X170878867Y-86541769D01*
X170834552Y-86475448D01*
X170768231Y-86431133D01*
X170759631Y-86429422D01*
X170759630Y-86429422D01*
X170714031Y-86420352D01*
X170714032Y-86420352D01*
X170709748Y-86419500D01*
X169290252Y-86419500D01*
X169285968Y-86420352D01*
X169285969Y-86420352D01*
X169240370Y-86429422D01*
X169240369Y-86429422D01*
X169231769Y-86431133D01*
X169165448Y-86475448D01*
X169121133Y-86541769D01*
X169109500Y-86600252D01*
X169109500Y-87162321D01*
X169088678Y-87219529D01*
X169083433Y-87225254D01*
X168689140Y-87619547D01*
X168633964Y-87645275D01*
X168625669Y-87645612D01*
X168537683Y-87645074D01*
X168531589Y-87646816D01*
X168531587Y-87646816D01*
X168451493Y-87669707D01*
X168412505Y-87680850D01*
X168302400Y-87750321D01*
X168216219Y-87847903D01*
X168213525Y-87853641D01*
X168210705Y-87859648D01*
X168160890Y-87965751D01*
X168159914Y-87972019D01*
X168142367Y-88084714D01*
X168140860Y-88094390D01*
X167350500Y-88094390D01*
X167350500Y-87152599D01*
X167371322Y-87095391D01*
X167424045Y-87064951D01*
X167439500Y-87063599D01*
X167456505Y-87063599D01*
X167468528Y-87059223D01*
X167472199Y-87052865D01*
X167472199Y-86327483D01*
X167827799Y-86327483D01*
X167827799Y-87047904D01*
X167832175Y-87059927D01*
X167838533Y-87063598D01*
X167873481Y-87063598D01*
X167878276Y-87063339D01*
X167932456Y-87057454D01*
X167943236Y-87054890D01*
X168068321Y-87007998D01*
X168079336Y-87001967D01*
X168185626Y-86922308D01*
X168194508Y-86913426D01*
X168274167Y-86807136D01*
X168280198Y-86796121D01*
X168327091Y-86671034D01*
X168329654Y-86660256D01*
X168335537Y-86606097D01*
X168335799Y-86601269D01*
X168335799Y-86332443D01*
X168331423Y-86320420D01*
X168325065Y-86316749D01*
X167843493Y-86316749D01*
X167831470Y-86321125D01*
X167827799Y-86327483D01*
X167472199Y-86327483D01*
X167472199Y-85229994D01*
X167470393Y-85225033D01*
X167827799Y-85225033D01*
X167827799Y-85945455D01*
X167832175Y-85957478D01*
X167838533Y-85961149D01*
X168320104Y-85961149D01*
X168332127Y-85956773D01*
X168335798Y-85950415D01*
X168335798Y-85676618D01*
X168335539Y-85671822D01*
X168329654Y-85617642D01*
X168327090Y-85606862D01*
X168280198Y-85481777D01*
X168274167Y-85470762D01*
X168194508Y-85364472D01*
X168185626Y-85355590D01*
X168079336Y-85275931D01*
X168068321Y-85269900D01*
X167943234Y-85223007D01*
X167932456Y-85220444D01*
X167878297Y-85214561D01*
X167873469Y-85214299D01*
X167843493Y-85214299D01*
X167831470Y-85218675D01*
X167827799Y-85225033D01*
X167470393Y-85225033D01*
X167467823Y-85217971D01*
X167461465Y-85214300D01*
X167426518Y-85214300D01*
X167421722Y-85214559D01*
X167367542Y-85220444D01*
X167356762Y-85223008D01*
X167231677Y-85269900D01*
X167220662Y-85275931D01*
X167114372Y-85355590D01*
X167105490Y-85364472D01*
X167025829Y-85470764D01*
X167023216Y-85475537D01*
X166977480Y-85515719D01*
X166945149Y-85521799D01*
X166802452Y-85521799D01*
X166798168Y-85522651D01*
X166798169Y-85522651D01*
X166752570Y-85531721D01*
X166752569Y-85531721D01*
X166743969Y-85533432D01*
X166724447Y-85546477D01*
X166665314Y-85560948D01*
X166625558Y-85546479D01*
X166606032Y-85533432D01*
X166597432Y-85531721D01*
X166597431Y-85531721D01*
X166551832Y-85522651D01*
X166551833Y-85522651D01*
X166547549Y-85521799D01*
X166152453Y-85521799D01*
X166148169Y-85522651D01*
X166148170Y-85522651D01*
X166102571Y-85531721D01*
X166102570Y-85531721D01*
X166093970Y-85533432D01*
X166027649Y-85577747D01*
X165983334Y-85644068D01*
X165971701Y-85702551D01*
X165971701Y-86575347D01*
X165972553Y-86579630D01*
X165977818Y-86606097D01*
X165983334Y-86633830D01*
X166027649Y-86700151D01*
X166093970Y-86744466D01*
X166102570Y-86746177D01*
X166102571Y-86746177D01*
X166135708Y-86752768D01*
X166152453Y-86756099D01*
X166547549Y-86756099D01*
X166551792Y-86755255D01*
X166610753Y-86770369D01*
X166646212Y-86819856D01*
X166649500Y-86843824D01*
X166649500Y-89633811D01*
X166628678Y-89691019D01*
X166623433Y-89696744D01*
X165959088Y-90361089D01*
X165903912Y-90386817D01*
X165845107Y-90371061D01*
X165810188Y-90321191D01*
X165807155Y-90298156D01*
X165807155Y-90133234D01*
X165795522Y-90074751D01*
X165751207Y-90008430D01*
X165704680Y-89977341D01*
X165692179Y-89968988D01*
X165684886Y-89964115D01*
X165676286Y-89962404D01*
X165676285Y-89962404D01*
X165630686Y-89953334D01*
X165630687Y-89953334D01*
X165626403Y-89952482D01*
X164886907Y-89952482D01*
X164882623Y-89953334D01*
X164882624Y-89953334D01*
X164837025Y-89962404D01*
X164837024Y-89962404D01*
X164828424Y-89964115D01*
X164821131Y-89968988D01*
X164808630Y-89977341D01*
X164762103Y-90008430D01*
X164717788Y-90074751D01*
X164706155Y-90133234D01*
X164706155Y-90372730D01*
X164707007Y-90377013D01*
X164717788Y-90431213D01*
X164715108Y-90431746D01*
X164716979Y-90474590D01*
X164717788Y-90474751D01*
X164706155Y-90533234D01*
X164706155Y-90772730D01*
X164707007Y-90777013D01*
X164717788Y-90831213D01*
X164715108Y-90831746D01*
X164716979Y-90874590D01*
X164717788Y-90874751D01*
X164706155Y-90933234D01*
X164706155Y-91172730D01*
X164707007Y-91177013D01*
X164717788Y-91231213D01*
X164715108Y-91231746D01*
X164716979Y-91274590D01*
X164717788Y-91274751D01*
X164706155Y-91333234D01*
X164706155Y-91572730D01*
X164712526Y-91604759D01*
X164717788Y-91631213D01*
X164715108Y-91631746D01*
X164716979Y-91674590D01*
X164717788Y-91674751D01*
X164706155Y-91733234D01*
X164706155Y-91972730D01*
X164707007Y-91977013D01*
X164717788Y-92031213D01*
X164715108Y-92031746D01*
X164716979Y-92074590D01*
X164717788Y-92074751D01*
X164706155Y-92133234D01*
X164706155Y-92372730D01*
X164707007Y-92377013D01*
X164717788Y-92431213D01*
X164715108Y-92431746D01*
X164716979Y-92474590D01*
X164717788Y-92474751D01*
X164706155Y-92533234D01*
X164706155Y-92772730D01*
X164707007Y-92777013D01*
X164717788Y-92831213D01*
X164715108Y-92831746D01*
X164716979Y-92874590D01*
X164717788Y-92874751D01*
X164706155Y-92933234D01*
X164706155Y-93172730D01*
X164707007Y-93177013D01*
X164717788Y-93231213D01*
X164715108Y-93231746D01*
X164716979Y-93274590D01*
X164717788Y-93274751D01*
X164706155Y-93333234D01*
X164706155Y-93572730D01*
X164708507Y-93584552D01*
X164717788Y-93631213D01*
X164715108Y-93631746D01*
X164716979Y-93674590D01*
X164717788Y-93674751D01*
X164706155Y-93733234D01*
X164706155Y-93972730D01*
X164707007Y-93977013D01*
X164717788Y-94031213D01*
X164715108Y-94031746D01*
X164716979Y-94074590D01*
X164717788Y-94074751D01*
X164706155Y-94133234D01*
X164706155Y-94372730D01*
X164707007Y-94377013D01*
X164717788Y-94431213D01*
X164715108Y-94431746D01*
X164716979Y-94474590D01*
X164717788Y-94474751D01*
X164706155Y-94533234D01*
X164706155Y-94772730D01*
X164711210Y-94798145D01*
X164717788Y-94831213D01*
X164715108Y-94831746D01*
X164716979Y-94874590D01*
X164717788Y-94874751D01*
X164706155Y-94933234D01*
X164706155Y-95172730D01*
X164712416Y-95204204D01*
X164703155Y-95264375D01*
X164667865Y-95299635D01*
X164655118Y-95306614D01*
X164548828Y-95386273D01*
X164539946Y-95395155D01*
X164460287Y-95501445D01*
X164454256Y-95512460D01*
X164407363Y-95637547D01*
X164404800Y-95648325D01*
X164398917Y-95702484D01*
X164398655Y-95707312D01*
X163011366Y-95707312D01*
X163025947Y-95668417D01*
X163028510Y-95657639D01*
X163034393Y-95603480D01*
X163034655Y-95598652D01*
X163034655Y-95568676D01*
X163030279Y-95556653D01*
X163023921Y-95552982D01*
X162551479Y-95552982D01*
X162548075Y-95552815D01*
X162546403Y-95552482D01*
X161806907Y-95552482D01*
X161805235Y-95552815D01*
X161801831Y-95552982D01*
X161334350Y-95552982D01*
X161322327Y-95557358D01*
X161318656Y-95563716D01*
X161318656Y-95598664D01*
X161318915Y-95603459D01*
X161324800Y-95657639D01*
X161327364Y-95668419D01*
X161374256Y-95793504D01*
X161380287Y-95804519D01*
X161459946Y-95910809D01*
X161468828Y-95919691D01*
X161575118Y-95999350D01*
X161587865Y-96006329D01*
X161628046Y-96052065D01*
X161632416Y-96101759D01*
X161626155Y-96133234D01*
X161626155Y-96372730D01*
X161627952Y-96381763D01*
X161632416Y-96404204D01*
X161623155Y-96464375D01*
X161587865Y-96499635D01*
X161575118Y-96506614D01*
X161468828Y-96586273D01*
X161459946Y-96595155D01*
X161380287Y-96701445D01*
X161374256Y-96712460D01*
X161327363Y-96837547D01*
X161324800Y-96848325D01*
X161318917Y-96902484D01*
X161318655Y-96907312D01*
X156381000Y-96907312D01*
X156381000Y-90507312D01*
X161318655Y-90507312D01*
X161318655Y-90537288D01*
X161323031Y-90549311D01*
X161329389Y-90552982D01*
X161801831Y-90552982D01*
X161805235Y-90553149D01*
X161806907Y-90553482D01*
X162187655Y-90553482D01*
X162244863Y-90574304D01*
X162275303Y-90627027D01*
X162276655Y-90642482D01*
X162276655Y-90663482D01*
X162255833Y-90720690D01*
X162203110Y-90751130D01*
X162187655Y-90752482D01*
X161806907Y-90752482D01*
X161805235Y-90752815D01*
X161801831Y-90752982D01*
X161334350Y-90752982D01*
X161322327Y-90757358D01*
X161318656Y-90763716D01*
X161318656Y-90798664D01*
X161318915Y-90803459D01*
X161324800Y-90857639D01*
X161327364Y-90868419D01*
X161374256Y-90993504D01*
X161380287Y-91004519D01*
X161459946Y-91110809D01*
X161468828Y-91119691D01*
X161575118Y-91199350D01*
X161587865Y-91206329D01*
X161628046Y-91252065D01*
X161632416Y-91301759D01*
X161626155Y-91333234D01*
X161626155Y-91572730D01*
X161632526Y-91604759D01*
X161637788Y-91631213D01*
X161635108Y-91631746D01*
X161636979Y-91674590D01*
X161637788Y-91674751D01*
X161626155Y-91733234D01*
X161626155Y-91972730D01*
X161627007Y-91977013D01*
X161637788Y-92031213D01*
X161635108Y-92031746D01*
X161636979Y-92074590D01*
X161637788Y-92074751D01*
X161626155Y-92133234D01*
X161626155Y-92372730D01*
X161627007Y-92377013D01*
X161637788Y-92431213D01*
X161635108Y-92431746D01*
X161636979Y-92474590D01*
X161637788Y-92474751D01*
X161626155Y-92533234D01*
X161626155Y-92772730D01*
X161627007Y-92777013D01*
X161637788Y-92831213D01*
X161635108Y-92831746D01*
X161636979Y-92874590D01*
X161637788Y-92874751D01*
X161626155Y-92933234D01*
X161626155Y-93172730D01*
X161627007Y-93177013D01*
X161637788Y-93231213D01*
X161635108Y-93231746D01*
X161636979Y-93274590D01*
X161637788Y-93274751D01*
X161626155Y-93333234D01*
X161626155Y-93572730D01*
X161628507Y-93584552D01*
X161637788Y-93631213D01*
X161635108Y-93631746D01*
X161636979Y-93674590D01*
X161637788Y-93674751D01*
X161626155Y-93733234D01*
X161626155Y-93972730D01*
X161627007Y-93977013D01*
X161637788Y-94031213D01*
X161635108Y-94031746D01*
X161636979Y-94074590D01*
X161637788Y-94074751D01*
X161626155Y-94133234D01*
X161626155Y-94372730D01*
X161627007Y-94377013D01*
X161637788Y-94431213D01*
X161635108Y-94431746D01*
X161636979Y-94474590D01*
X161637788Y-94474751D01*
X161626155Y-94533234D01*
X161626155Y-94772730D01*
X161632416Y-94804204D01*
X161623155Y-94864375D01*
X161587865Y-94899635D01*
X161575118Y-94906614D01*
X161468828Y-94986273D01*
X161459946Y-94995155D01*
X161380287Y-95101445D01*
X161374256Y-95112460D01*
X161327363Y-95237547D01*
X161324800Y-95248325D01*
X161318917Y-95302484D01*
X161318655Y-95307312D01*
X161318655Y-95337288D01*
X161323031Y-95349311D01*
X161329389Y-95352982D01*
X161801831Y-95352982D01*
X161805235Y-95353149D01*
X161806907Y-95353482D01*
X162546403Y-95353482D01*
X162548075Y-95353149D01*
X162551479Y-95352982D01*
X163018960Y-95352982D01*
X163030983Y-95348606D01*
X163034654Y-95342248D01*
X163034654Y-95307301D01*
X163034395Y-95302505D01*
X163028510Y-95248325D01*
X163025946Y-95237545D01*
X162979054Y-95112460D01*
X162973023Y-95101445D01*
X162893364Y-94995155D01*
X162884482Y-94986273D01*
X162778192Y-94906614D01*
X162765445Y-94899635D01*
X162725264Y-94853899D01*
X162720894Y-94804204D01*
X162727155Y-94772730D01*
X162727155Y-94533234D01*
X162715522Y-94474751D01*
X162718202Y-94474218D01*
X162716331Y-94431374D01*
X162715522Y-94431213D01*
X162716180Y-94427907D01*
X162716180Y-94427905D01*
X162727155Y-94372730D01*
X162727155Y-94133234D01*
X162715522Y-94074751D01*
X162718202Y-94074218D01*
X162716331Y-94031374D01*
X162715522Y-94031213D01*
X162716180Y-94027907D01*
X162716180Y-94027905D01*
X162727155Y-93972730D01*
X162727155Y-93842482D01*
X162747977Y-93785274D01*
X162800700Y-93754834D01*
X162816155Y-93753482D01*
X162824966Y-93753482D01*
X162828991Y-93752733D01*
X162830266Y-93752615D01*
X162835095Y-93752302D01*
X162864226Y-93751208D01*
X162871773Y-93747966D01*
X162871776Y-93747965D01*
X162875828Y-93746224D01*
X162894663Y-93740502D01*
X162898992Y-93739696D01*
X162898994Y-93739695D01*
X162907071Y-93738191D01*
X162930370Y-93723830D01*
X162941938Y-93717821D01*
X162950529Y-93714130D01*
X162979376Y-93707124D01*
X163093627Y-93699035D01*
X163100266Y-93698565D01*
X163106471Y-93696164D01*
X163106473Y-93696164D01*
X163221526Y-93651653D01*
X163221525Y-93651653D01*
X163227730Y-93649253D01*
X163335059Y-93564641D01*
X163341421Y-93555437D01*
X163408980Y-93457686D01*
X163412764Y-93452211D01*
X163453975Y-93321903D01*
X163454500Y-93315232D01*
X163454500Y-93225126D01*
X163475322Y-93167918D01*
X163480567Y-93162193D01*
X163548562Y-93094198D01*
X163556395Y-93087238D01*
X163579835Y-93068759D01*
X163585059Y-93064641D01*
X163619058Y-93015449D01*
X163620684Y-93013174D01*
X163652254Y-92970432D01*
X163652255Y-92970431D01*
X163656209Y-92965077D01*
X163658335Y-92959023D01*
X163659117Y-92957487D01*
X163662764Y-92952211D01*
X163664821Y-92945709D01*
X163680794Y-92895198D01*
X163681680Y-92892544D01*
X163699287Y-92842408D01*
X163699288Y-92842404D01*
X163701492Y-92836127D01*
X163701713Y-92830504D01*
X163702448Y-92826733D01*
X163703975Y-92821903D01*
X163704500Y-92815232D01*
X163704500Y-92761312D01*
X163704569Y-92757818D01*
X163706597Y-92706210D01*
X163706597Y-92706209D01*
X163706858Y-92699563D01*
X163705153Y-92693133D01*
X163705038Y-92692091D01*
X163704500Y-92682324D01*
X163704500Y-84720252D01*
X169109500Y-84720252D01*
X169109500Y-85799748D01*
X169121133Y-85858231D01*
X169165448Y-85924552D01*
X169231769Y-85968867D01*
X169240369Y-85970578D01*
X169240370Y-85970578D01*
X169273507Y-85977169D01*
X169290252Y-85980500D01*
X170709748Y-85980500D01*
X170726493Y-85977169D01*
X170759630Y-85970578D01*
X170759631Y-85970578D01*
X170768231Y-85968867D01*
X170834552Y-85924552D01*
X170878867Y-85858231D01*
X170890500Y-85799748D01*
X170890500Y-85699500D01*
X170911322Y-85642292D01*
X170964045Y-85611852D01*
X170979500Y-85610500D01*
X171523252Y-85610500D01*
X171580460Y-85631322D01*
X171586185Y-85636567D01*
X171724133Y-85774515D01*
X171749861Y-85829691D01*
X171750200Y-85837448D01*
X171750200Y-86769748D01*
X171761833Y-86828231D01*
X171806148Y-86894552D01*
X171872469Y-86938867D01*
X171881069Y-86940578D01*
X171881070Y-86940578D01*
X171914207Y-86947169D01*
X171930952Y-86950500D01*
X173469048Y-86950500D01*
X173485793Y-86947169D01*
X173518930Y-86940578D01*
X173518931Y-86940578D01*
X173527531Y-86938867D01*
X173593852Y-86894552D01*
X173638167Y-86828231D01*
X173649800Y-86769748D01*
X173649800Y-85739652D01*
X173638167Y-85681169D01*
X173631922Y-85671822D01*
X173598725Y-85622141D01*
X173593852Y-85614848D01*
X173527531Y-85570533D01*
X173518931Y-85568822D01*
X173518930Y-85568822D01*
X173473331Y-85559752D01*
X173473332Y-85559752D01*
X173469048Y-85558900D01*
X172536748Y-85558900D01*
X172479540Y-85538078D01*
X172473815Y-85532833D01*
X171986291Y-85045309D01*
X171974456Y-85030653D01*
X171972116Y-85027029D01*
X171968125Y-85020848D01*
X171942505Y-85000650D01*
X171936408Y-84995233D01*
X171935144Y-84994162D01*
X171932554Y-84991572D01*
X171929574Y-84989443D01*
X171929564Y-84989434D01*
X171917521Y-84980829D01*
X171914165Y-84978310D01*
X171882268Y-84953164D01*
X171882269Y-84953164D01*
X171876489Y-84948608D01*
X171870050Y-84946347D01*
X171867187Y-84944859D01*
X171861631Y-84940889D01*
X171815645Y-84927136D01*
X171811667Y-84925843D01*
X171771685Y-84911802D01*
X171771677Y-84911800D01*
X171766394Y-84909945D01*
X171761256Y-84909500D01*
X171759327Y-84909500D01*
X171758518Y-84909465D01*
X171755779Y-84909233D01*
X171749836Y-84907456D01*
X171701714Y-84909347D01*
X171699568Y-84909431D01*
X171696074Y-84909500D01*
X170979500Y-84909500D01*
X170922292Y-84888678D01*
X170891852Y-84835955D01*
X170890500Y-84820500D01*
X170890500Y-84720252D01*
X170878867Y-84661769D01*
X170834552Y-84595448D01*
X170768231Y-84551133D01*
X170759631Y-84549422D01*
X170759630Y-84549422D01*
X170714031Y-84540352D01*
X170714032Y-84540352D01*
X170709748Y-84539500D01*
X169290252Y-84539500D01*
X169289278Y-84539694D01*
X169238305Y-84526631D01*
X169238136Y-84529609D01*
X169205811Y-84568478D01*
X169165448Y-84595448D01*
X169121133Y-84661769D01*
X169109500Y-84720252D01*
X163704500Y-84720252D01*
X163704500Y-83475126D01*
X163725322Y-83417918D01*
X163730567Y-83412193D01*
X165110606Y-82032154D01*
X165165782Y-82006426D01*
X165224587Y-82022182D01*
X165236472Y-82032154D01*
X165973434Y-82769116D01*
X165999162Y-82824292D01*
X165999501Y-82832049D01*
X165999501Y-83514977D01*
X165988963Y-83549708D01*
X165991559Y-83550783D01*
X165988205Y-83558880D01*
X165983334Y-83566170D01*
X165971701Y-83624653D01*
X165971701Y-84497449D01*
X165983334Y-84555932D01*
X166027649Y-84622253D01*
X166093970Y-84666568D01*
X166102570Y-84668279D01*
X166102571Y-84668279D01*
X166135708Y-84674870D01*
X166152453Y-84678201D01*
X166547549Y-84678201D01*
X166564294Y-84674870D01*
X166597431Y-84668279D01*
X166597432Y-84668279D01*
X166606032Y-84666568D01*
X166672353Y-84622253D01*
X166716668Y-84555932D01*
X166728301Y-84497449D01*
X166728301Y-83624653D01*
X167271699Y-83624653D01*
X167271699Y-84497449D01*
X167283332Y-84555932D01*
X167327647Y-84622253D01*
X167393968Y-84666568D01*
X167402568Y-84668279D01*
X167402569Y-84668279D01*
X167435706Y-84674870D01*
X167452451Y-84678201D01*
X167847547Y-84678201D01*
X167864292Y-84674870D01*
X167897429Y-84668279D01*
X167897430Y-84668279D01*
X167906030Y-84666568D01*
X167972351Y-84622253D01*
X168016666Y-84555932D01*
X168028299Y-84497449D01*
X168028299Y-84493070D01*
X168028421Y-84491831D01*
X168054748Y-84436938D01*
X168110200Y-84411811D01*
X168116993Y-84411551D01*
X169032066Y-84411551D01*
X169050798Y-84413545D01*
X169055018Y-84414454D01*
X169055020Y-84414454D01*
X169062210Y-84416002D01*
X169094603Y-84412168D01*
X169102733Y-84411688D01*
X169104390Y-84411551D01*
X169108064Y-84411551D01*
X169126294Y-84408517D01*
X169130430Y-84407928D01*
X169145902Y-84406096D01*
X169200101Y-84418857D01*
X169200424Y-84414633D01*
X169242965Y-84371134D01*
X169278230Y-84354200D01*
X169278233Y-84354198D01*
X169283275Y-84351777D01*
X169287223Y-84348459D01*
X169288584Y-84347098D01*
X169289208Y-84346526D01*
X169291284Y-84344775D01*
X169296743Y-84341829D01*
X169330882Y-84304898D01*
X169333303Y-84302379D01*
X169749115Y-83886567D01*
X169804291Y-83860839D01*
X169812048Y-83860500D01*
X170709748Y-83860500D01*
X170726493Y-83857169D01*
X170759630Y-83850578D01*
X170759631Y-83850578D01*
X170768231Y-83848867D01*
X170834552Y-83804552D01*
X170878867Y-83738231D01*
X170890500Y-83679748D01*
X170890500Y-82600252D01*
X170878867Y-82541769D01*
X170834552Y-82475448D01*
X170781115Y-82439742D01*
X170775524Y-82436006D01*
X170768231Y-82431133D01*
X170759631Y-82429422D01*
X170759630Y-82429422D01*
X170714031Y-82420352D01*
X170714032Y-82420352D01*
X170709748Y-82419500D01*
X169290252Y-82419500D01*
X169285968Y-82420352D01*
X169285969Y-82420352D01*
X169240370Y-82429422D01*
X169240369Y-82429422D01*
X169231769Y-82431133D01*
X169224476Y-82436006D01*
X169218885Y-82439742D01*
X169165448Y-82475448D01*
X169121133Y-82541769D01*
X169109500Y-82600252D01*
X169109500Y-83497952D01*
X169088678Y-83555160D01*
X169083433Y-83560885D01*
X168959834Y-83684484D01*
X168904658Y-83710212D01*
X168896901Y-83710551D01*
X168116993Y-83710551D01*
X168059785Y-83689729D01*
X168029345Y-83637006D01*
X168028421Y-83630271D01*
X168028299Y-83629032D01*
X168028299Y-83624653D01*
X168016666Y-83566170D01*
X167972351Y-83499849D01*
X167906030Y-83455534D01*
X167897430Y-83453823D01*
X167897429Y-83453823D01*
X167851830Y-83444753D01*
X167851831Y-83444753D01*
X167847547Y-83443901D01*
X167452451Y-83443901D01*
X167448167Y-83444753D01*
X167448168Y-83444753D01*
X167402569Y-83453823D01*
X167402568Y-83453823D01*
X167393968Y-83455534D01*
X167327647Y-83499849D01*
X167283332Y-83566170D01*
X167271699Y-83624653D01*
X166728301Y-83624653D01*
X166716668Y-83566170D01*
X166711797Y-83558880D01*
X166708443Y-83550783D01*
X166711039Y-83549708D01*
X166700501Y-83514977D01*
X166700501Y-82696884D01*
X166702495Y-82678152D01*
X166703404Y-82673932D01*
X166703404Y-82673930D01*
X166704952Y-82666740D01*
X166701118Y-82634347D01*
X166700638Y-82626213D01*
X166700501Y-82624556D01*
X166700501Y-82620886D01*
X166699898Y-82617263D01*
X166697467Y-82602654D01*
X166696876Y-82598504D01*
X166692102Y-82558167D01*
X166692101Y-82558165D01*
X166691237Y-82550862D01*
X166688288Y-82544719D01*
X166687309Y-82541628D01*
X166686189Y-82534898D01*
X166663407Y-82492676D01*
X166661502Y-82488939D01*
X166655024Y-82475448D01*
X166640727Y-82445674D01*
X166637409Y-82441727D01*
X166636062Y-82440380D01*
X166635477Y-82439742D01*
X166633724Y-82437665D01*
X166630779Y-82432207D01*
X166593837Y-82398058D01*
X166591342Y-82395660D01*
X165732154Y-81536472D01*
X165706426Y-81481296D01*
X165722182Y-81422491D01*
X165732154Y-81410606D01*
X166422508Y-80720252D01*
X169109500Y-80720252D01*
X169109500Y-81799748D01*
X169121133Y-81858231D01*
X169165448Y-81924552D01*
X169231769Y-81968867D01*
X169240369Y-81970578D01*
X169240370Y-81970578D01*
X169273507Y-81977169D01*
X169290252Y-81980500D01*
X170709748Y-81980500D01*
X170726493Y-81977169D01*
X170759630Y-81970578D01*
X170759631Y-81970578D01*
X170768231Y-81968867D01*
X170834552Y-81924552D01*
X170878867Y-81858231D01*
X170890500Y-81799748D01*
X170890500Y-81699500D01*
X170911322Y-81642292D01*
X170964045Y-81611852D01*
X170979500Y-81610500D01*
X171056452Y-81610500D01*
X171113660Y-81631322D01*
X171119385Y-81636567D01*
X171724133Y-82241315D01*
X171749861Y-82296491D01*
X171750200Y-82304248D01*
X171750200Y-83236548D01*
X171761833Y-83295031D01*
X171806148Y-83361352D01*
X171872469Y-83405667D01*
X171881069Y-83407378D01*
X171881070Y-83407378D01*
X171905277Y-83412193D01*
X171930952Y-83417300D01*
X173469048Y-83417300D01*
X173494723Y-83412193D01*
X173518930Y-83407378D01*
X173518931Y-83407378D01*
X173527531Y-83405667D01*
X173593852Y-83361352D01*
X173638167Y-83295031D01*
X173649800Y-83236548D01*
X173649800Y-82206452D01*
X173638167Y-82147969D01*
X173593852Y-82081648D01*
X173527531Y-82037333D01*
X173518931Y-82035622D01*
X173518930Y-82035622D01*
X173473331Y-82026552D01*
X173473332Y-82026552D01*
X173469048Y-82025700D01*
X172536748Y-82025700D01*
X172479540Y-82004878D01*
X172473815Y-81999633D01*
X171519491Y-81045309D01*
X171507656Y-81030653D01*
X171505316Y-81027029D01*
X171501325Y-81020848D01*
X171475705Y-81000650D01*
X171469608Y-80995233D01*
X171468344Y-80994162D01*
X171465754Y-80991572D01*
X171462774Y-80989443D01*
X171462764Y-80989434D01*
X171450721Y-80980829D01*
X171447365Y-80978310D01*
X171415468Y-80953164D01*
X171415469Y-80953164D01*
X171409689Y-80948608D01*
X171403250Y-80946347D01*
X171400387Y-80944859D01*
X171394831Y-80940889D01*
X171348845Y-80927136D01*
X171344867Y-80925843D01*
X171304885Y-80911802D01*
X171304877Y-80911800D01*
X171299594Y-80909945D01*
X171294456Y-80909500D01*
X171292527Y-80909500D01*
X171291718Y-80909465D01*
X171288979Y-80909233D01*
X171283036Y-80907456D01*
X171234914Y-80909347D01*
X171232768Y-80909431D01*
X171229274Y-80909500D01*
X170979500Y-80909500D01*
X170922292Y-80888678D01*
X170891852Y-80835955D01*
X170890500Y-80820500D01*
X170890500Y-80720252D01*
X170878867Y-80661769D01*
X170834552Y-80595448D01*
X170768231Y-80551133D01*
X170759631Y-80549422D01*
X170759630Y-80549422D01*
X170714031Y-80540352D01*
X170714032Y-80540352D01*
X170709748Y-80539500D01*
X169290252Y-80539500D01*
X169285968Y-80540352D01*
X169285969Y-80540352D01*
X169240370Y-80549422D01*
X169240369Y-80549422D01*
X169231769Y-80551133D01*
X169165448Y-80595448D01*
X169121133Y-80661769D01*
X169109500Y-80720252D01*
X166422508Y-80720252D01*
X166912193Y-80230567D01*
X166967369Y-80204839D01*
X166975126Y-80204500D01*
X173524874Y-80204500D01*
X173582082Y-80225322D01*
X173587807Y-80230567D01*
X174819433Y-81462193D01*
X174845161Y-81517369D01*
X174845500Y-81525126D01*
X174845500Y-81936700D01*
X174824678Y-81993908D01*
X174771955Y-82024348D01*
X174756500Y-82025700D01*
X174530952Y-82025700D01*
X174526668Y-82026552D01*
X174526669Y-82026552D01*
X174481070Y-82035622D01*
X174481069Y-82035622D01*
X174472469Y-82037333D01*
X174406148Y-82081648D01*
X174361833Y-82147969D01*
X174350200Y-82206452D01*
X174350200Y-83236548D01*
X174361833Y-83295031D01*
X174406148Y-83361352D01*
X174472469Y-83405667D01*
X174481069Y-83407378D01*
X174481070Y-83407378D01*
X174505277Y-83412193D01*
X174530952Y-83417300D01*
X174756500Y-83417300D01*
X174813708Y-83438122D01*
X174844148Y-83490845D01*
X174845500Y-83506300D01*
X174845500Y-85469900D01*
X174824678Y-85527108D01*
X174771955Y-85557548D01*
X174756500Y-85558900D01*
X174530952Y-85558900D01*
X174526668Y-85559752D01*
X174526669Y-85559752D01*
X174481070Y-85568822D01*
X174481069Y-85568822D01*
X174472469Y-85570533D01*
X174406148Y-85614848D01*
X174401275Y-85622141D01*
X174368079Y-85671822D01*
X174361833Y-85681169D01*
X174350200Y-85739652D01*
X174350200Y-86769748D01*
X174361833Y-86828231D01*
X174406148Y-86894552D01*
X174472469Y-86938867D01*
X174481069Y-86940578D01*
X174481070Y-86940578D01*
X174514207Y-86947169D01*
X174530952Y-86950500D01*
X176069048Y-86950500D01*
X176085793Y-86947169D01*
X176118930Y-86940578D01*
X176118931Y-86940578D01*
X176127531Y-86938867D01*
X176193852Y-86894552D01*
X176238167Y-86828231D01*
X176249800Y-86769748D01*
X176249800Y-85739652D01*
X176238167Y-85681169D01*
X176231922Y-85671822D01*
X176198725Y-85622141D01*
X176193852Y-85614848D01*
X176127531Y-85570533D01*
X176118931Y-85568822D01*
X176118930Y-85568822D01*
X176073331Y-85559752D01*
X176073332Y-85559752D01*
X176069048Y-85558900D01*
X175843500Y-85558900D01*
X175786292Y-85538078D01*
X175755852Y-85485355D01*
X175754500Y-85469900D01*
X175754500Y-83506300D01*
X175775322Y-83449092D01*
X175828045Y-83418652D01*
X175843500Y-83417300D01*
X176069048Y-83417300D01*
X176094723Y-83412193D01*
X176118930Y-83407378D01*
X176118931Y-83407378D01*
X176127531Y-83405667D01*
X176193852Y-83361352D01*
X176238167Y-83295031D01*
X176249800Y-83236548D01*
X176249800Y-82206452D01*
X176238167Y-82147969D01*
X176193852Y-82081648D01*
X176127531Y-82037333D01*
X176118931Y-82035622D01*
X176118930Y-82035622D01*
X176073331Y-82026552D01*
X176073332Y-82026552D01*
X176069048Y-82025700D01*
X175843500Y-82025700D01*
X175786292Y-82004878D01*
X175755852Y-81952155D01*
X175754500Y-81936700D01*
X175754500Y-81332270D01*
X175755117Y-81321810D01*
X175758625Y-81292169D01*
X175759407Y-81285562D01*
X175752124Y-81245681D01*
X175748666Y-81226746D01*
X175748207Y-81223990D01*
X175740303Y-81171423D01*
X175739315Y-81164849D01*
X175736542Y-81159073D01*
X175736005Y-81157421D01*
X175734853Y-81151117D01*
X175707271Y-81098019D01*
X175706036Y-81095546D01*
X175683035Y-81047647D01*
X175680154Y-81041647D01*
X175676326Y-81037507D01*
X175674192Y-81034340D01*
X175671852Y-81029834D01*
X175667506Y-81024746D01*
X175629381Y-80986621D01*
X175626959Y-80984101D01*
X175591898Y-80946172D01*
X175591897Y-80946171D01*
X175587383Y-80941288D01*
X175581632Y-80937948D01*
X175580809Y-80937288D01*
X175573524Y-80930764D01*
X174094198Y-79451438D01*
X174087238Y-79443605D01*
X174064641Y-79414941D01*
X174059170Y-79411160D01*
X174059168Y-79411158D01*
X174015443Y-79380938D01*
X174013169Y-79379313D01*
X174003549Y-79372208D01*
X173965076Y-79343791D01*
X173959026Y-79341666D01*
X173957486Y-79340881D01*
X173952211Y-79337236D01*
X173895176Y-79319199D01*
X173892542Y-79318319D01*
X173867987Y-79309696D01*
X173842403Y-79300711D01*
X173842401Y-79300711D01*
X173836126Y-79298507D01*
X173830497Y-79298286D01*
X173826733Y-79297553D01*
X173821903Y-79296025D01*
X173815232Y-79295500D01*
X173761323Y-79295500D01*
X173757829Y-79295431D01*
X173706211Y-79293403D01*
X173706210Y-79293403D01*
X173699563Y-79293142D01*
X173693133Y-79294847D01*
X173692091Y-79294962D01*
X173682324Y-79295500D01*
X166782270Y-79295500D01*
X166771810Y-79294883D01*
X166767254Y-79294344D01*
X166735562Y-79290593D01*
X166680163Y-79300711D01*
X166676735Y-79301337D01*
X166673976Y-79301796D01*
X166621427Y-79309696D01*
X166614849Y-79310685D01*
X166609067Y-79313462D01*
X166607426Y-79313995D01*
X166601116Y-79315147D01*
X166549606Y-79341904D01*
X166548039Y-79342718D01*
X166545540Y-79343966D01*
X166491647Y-79369846D01*
X166487507Y-79373674D01*
X166484340Y-79375808D01*
X166479834Y-79378148D01*
X166474746Y-79382494D01*
X166436621Y-79420619D01*
X166434101Y-79423041D01*
X166407393Y-79447730D01*
X166391288Y-79462617D01*
X166387948Y-79468368D01*
X166387288Y-79469191D01*
X166380764Y-79476476D01*
X162951438Y-82905802D01*
X162943606Y-82912761D01*
X162914941Y-82935359D01*
X162911160Y-82940830D01*
X162911158Y-82940832D01*
X162880938Y-82984557D01*
X162879313Y-82986831D01*
X162843791Y-83034924D01*
X162841666Y-83040974D01*
X162840881Y-83042514D01*
X162837236Y-83047789D01*
X162835231Y-83054130D01*
X162819202Y-83104814D01*
X162818319Y-83107458D01*
X162798507Y-83163874D01*
X162798286Y-83169503D01*
X162797553Y-83173267D01*
X162796025Y-83178097D01*
X162795500Y-83184768D01*
X162795500Y-83238677D01*
X162795431Y-83242171D01*
X162793142Y-83300437D01*
X162794847Y-83306867D01*
X162794962Y-83307909D01*
X162795500Y-83317676D01*
X162795500Y-89924973D01*
X162774678Y-89982181D01*
X162721955Y-90012621D01*
X162657054Y-89998973D01*
X162612179Y-89968988D01*
X162604886Y-89964115D01*
X162596286Y-89962404D01*
X162596285Y-89962404D01*
X162550686Y-89953334D01*
X162550687Y-89953334D01*
X162546403Y-89952482D01*
X161806907Y-89952482D01*
X161802623Y-89953334D01*
X161802624Y-89953334D01*
X161757025Y-89962404D01*
X161757024Y-89962404D01*
X161748424Y-89964115D01*
X161741131Y-89968988D01*
X161728630Y-89977341D01*
X161682103Y-90008430D01*
X161677230Y-90015723D01*
X161647945Y-90059550D01*
X161605185Y-90093441D01*
X161586130Y-90100584D01*
X161575120Y-90106612D01*
X161468828Y-90186273D01*
X161459946Y-90195155D01*
X161380287Y-90301445D01*
X161374256Y-90312460D01*
X161327363Y-90437547D01*
X161324800Y-90448325D01*
X161318917Y-90502484D01*
X161318655Y-90507312D01*
X156381000Y-90507312D01*
X156381000Y-82035283D01*
X156381998Y-82021994D01*
X156384693Y-82004149D01*
X156384693Y-82004148D01*
X156385739Y-81997221D01*
X156383544Y-81983979D01*
X156382438Y-81965386D01*
X156395312Y-81681978D01*
X156395541Y-81676939D01*
X156396456Y-81667627D01*
X156400301Y-81642292D01*
X156443861Y-81355230D01*
X156445750Y-81346065D01*
X156511267Y-81095546D01*
X156525692Y-81040388D01*
X156528531Y-81031474D01*
X156532543Y-81020848D01*
X156640137Y-80735861D01*
X156643896Y-80727297D01*
X156738394Y-80539500D01*
X156785917Y-80445055D01*
X156790556Y-80436930D01*
X156923235Y-80230567D01*
X156961437Y-80171150D01*
X156966895Y-80163568D01*
X157164742Y-79917199D01*
X157170976Y-79910222D01*
X157393586Y-79686002D01*
X157400520Y-79679716D01*
X157645452Y-79480104D01*
X157653007Y-79474582D01*
X157659144Y-79470574D01*
X157917535Y-79301801D01*
X157925628Y-79297102D01*
X158022361Y-79247550D01*
X158206858Y-79153041D01*
X158215383Y-79149226D01*
X158362783Y-79092360D01*
X158510174Y-79035498D01*
X158519070Y-79032593D01*
X158824176Y-78950447D01*
X158833328Y-78948493D01*
X159145359Y-78898842D01*
X159154666Y-78897859D01*
X159291073Y-78890677D01*
X159443024Y-78882677D01*
X159461620Y-78883650D01*
X159474874Y-78885749D01*
X159497938Y-78882096D01*
X159511861Y-78881000D01*
X174213013Y-78881000D01*
X174226936Y-78882096D01*
G37*
%TD.AperFunction*%
%TD*%
M02*
