%TF.GenerationSoftware,KiCad,Pcbnew,(6.0.2)*%
%TF.CreationDate,2022-02-22T18:51:34-06:00*%
%TF.ProjectId,rpi-cm4-carrier-template,7270692d-636d-4342-9d63-617272696572,v01*%
%TF.SameCoordinates,Original*%
%TF.FileFunction,Legend,Top*%
%TF.FilePolarity,Positive*%
%FSLAX46Y46*%
G04 Gerber Fmt 4.6, Leading zero omitted, Abs format (unit mm)*
G04 Created by KiCad (PCBNEW (6.0.2)) date 2022-02-22 18:51:34*
%MOMM*%
%LPD*%
G01*
G04 APERTURE LIST*
%ADD10C,0.150000*%
%ADD11C,0.098425*%
%ADD12C,0.120000*%
%ADD13C,0.127000*%
%ADD14C,0.200000*%
G04 APERTURE END LIST*
D10*
%TO.C,CR1*%
X172533333Y-115357142D02*
X172485714Y-115404761D01*
X172342857Y-115452380D01*
X172247619Y-115452380D01*
X172104761Y-115404761D01*
X172009523Y-115309523D01*
X171961904Y-115214285D01*
X171914285Y-115023809D01*
X171914285Y-114880952D01*
X171961904Y-114690476D01*
X172009523Y-114595238D01*
X172104761Y-114500000D01*
X172247619Y-114452380D01*
X172342857Y-114452380D01*
X172485714Y-114500000D01*
X172533333Y-114547619D01*
X173533333Y-115452380D02*
X173200000Y-114976190D01*
X172961904Y-115452380D02*
X172961904Y-114452380D01*
X173342857Y-114452380D01*
X173438095Y-114500000D01*
X173485714Y-114547619D01*
X173533333Y-114642857D01*
X173533333Y-114785714D01*
X173485714Y-114880952D01*
X173438095Y-114928571D01*
X173342857Y-114976190D01*
X172961904Y-114976190D01*
X174485714Y-115452380D02*
X173914285Y-115452380D01*
X174200000Y-115452380D02*
X174200000Y-114452380D01*
X174104761Y-114595238D01*
X174009523Y-114690476D01*
X173914285Y-114738095D01*
X173500000Y-110952380D02*
X173500000Y-111190476D01*
X173261904Y-111095238D02*
X173500000Y-111190476D01*
X173738095Y-111095238D01*
X173357142Y-111380952D02*
X173500000Y-111190476D01*
X173642857Y-111380952D01*
D11*
%TO.C,R2*%
X171448102Y-85805616D02*
X171260626Y-85936850D01*
X171448102Y-86030588D02*
X171054401Y-86030588D01*
X171054401Y-85880607D01*
X171073149Y-85843112D01*
X171091897Y-85824364D01*
X171129392Y-85805616D01*
X171185635Y-85805616D01*
X171223130Y-85824364D01*
X171241878Y-85843112D01*
X171260626Y-85880607D01*
X171260626Y-86030588D01*
X171091897Y-85655635D02*
X171073149Y-85636887D01*
X171054401Y-85599392D01*
X171054401Y-85505654D01*
X171073149Y-85468158D01*
X171091897Y-85449411D01*
X171129392Y-85430663D01*
X171166887Y-85430663D01*
X171223130Y-85449411D01*
X171448102Y-85674383D01*
X171448102Y-85430663D01*
D10*
%TO.C,LED1*%
X174080952Y-88352380D02*
X173604761Y-88352380D01*
X173604761Y-87352380D01*
X174414285Y-87828571D02*
X174747619Y-87828571D01*
X174890476Y-88352380D02*
X174414285Y-88352380D01*
X174414285Y-87352380D01*
X174890476Y-87352380D01*
X175319047Y-88352380D02*
X175319047Y-87352380D01*
X175557142Y-87352380D01*
X175700000Y-87400000D01*
X175795238Y-87495238D01*
X175842857Y-87590476D01*
X175890476Y-87780952D01*
X175890476Y-87923809D01*
X175842857Y-88114285D01*
X175795238Y-88209523D01*
X175700000Y-88304761D01*
X175557142Y-88352380D01*
X175319047Y-88352380D01*
X176842857Y-88352380D02*
X176271428Y-88352380D01*
X176557142Y-88352380D02*
X176557142Y-87352380D01*
X176461904Y-87495238D01*
X176366666Y-87590476D01*
X176271428Y-87638095D01*
X173600000Y-84052380D02*
X173600000Y-84290476D01*
X173361904Y-84195238D02*
X173600000Y-84290476D01*
X173838095Y-84195238D01*
X173457142Y-84480952D02*
X173600000Y-84290476D01*
X173742857Y-84480952D01*
D11*
%TO.C,R4*%
X171448102Y-81805616D02*
X171260626Y-81936850D01*
X171448102Y-82030588D02*
X171054401Y-82030588D01*
X171054401Y-81880607D01*
X171073149Y-81843112D01*
X171091897Y-81824364D01*
X171129392Y-81805616D01*
X171185635Y-81805616D01*
X171223130Y-81824364D01*
X171241878Y-81843112D01*
X171260626Y-81880607D01*
X171260626Y-82030588D01*
X171185635Y-81468158D02*
X171448102Y-81468158D01*
X171035654Y-81561897D02*
X171316869Y-81655635D01*
X171316869Y-81411915D01*
%TO.C,R3*%
X172234383Y-94278102D02*
X172103149Y-94090626D01*
X172009411Y-94278102D02*
X172009411Y-93884401D01*
X172159392Y-93884401D01*
X172196887Y-93903149D01*
X172215635Y-93921897D01*
X172234383Y-93959392D01*
X172234383Y-94015635D01*
X172215635Y-94053130D01*
X172196887Y-94071878D01*
X172159392Y-94090626D01*
X172009411Y-94090626D01*
X172365616Y-93884401D02*
X172609336Y-93884401D01*
X172478102Y-94034383D01*
X172534345Y-94034383D01*
X172571841Y-94053130D01*
X172590588Y-94071878D01*
X172609336Y-94109373D01*
X172609336Y-94203112D01*
X172590588Y-94240607D01*
X172571841Y-94259355D01*
X172534345Y-94278102D01*
X172421859Y-94278102D01*
X172384364Y-94259355D01*
X172365616Y-94240607D01*
D10*
%TO.C,J1*%
X174952380Y-100833333D02*
X175666666Y-100833333D01*
X175809523Y-100880952D01*
X175904761Y-100976190D01*
X175952380Y-101119047D01*
X175952380Y-101214285D01*
X175952380Y-99833333D02*
X175952380Y-100404761D01*
X175952380Y-100119047D02*
X174952380Y-100119047D01*
X175095238Y-100214285D01*
X175190476Y-100309523D01*
X175238095Y-100404761D01*
D11*
%TO.C,R1*%
X172334383Y-89278102D02*
X172203149Y-89090626D01*
X172109411Y-89278102D02*
X172109411Y-88884401D01*
X172259392Y-88884401D01*
X172296887Y-88903149D01*
X172315635Y-88921897D01*
X172334383Y-88959392D01*
X172334383Y-89015635D01*
X172315635Y-89053130D01*
X172296887Y-89071878D01*
X172259392Y-89090626D01*
X172109411Y-89090626D01*
X172709336Y-89278102D02*
X172484364Y-89278102D01*
X172596850Y-89278102D02*
X172596850Y-88884401D01*
X172559355Y-88940644D01*
X172521859Y-88978140D01*
X172484364Y-88996887D01*
D10*
%TO.C,LED2*%
X173780952Y-81152380D02*
X173304761Y-81152380D01*
X173304761Y-80152380D01*
X174114285Y-80628571D02*
X174447619Y-80628571D01*
X174590476Y-81152380D02*
X174114285Y-81152380D01*
X174114285Y-80152380D01*
X174590476Y-80152380D01*
X175019047Y-81152380D02*
X175019047Y-80152380D01*
X175257142Y-80152380D01*
X175400000Y-80200000D01*
X175495238Y-80295238D01*
X175542857Y-80390476D01*
X175590476Y-80580952D01*
X175590476Y-80723809D01*
X175542857Y-80914285D01*
X175495238Y-81009523D01*
X175400000Y-81104761D01*
X175257142Y-81152380D01*
X175019047Y-81152380D01*
X175971428Y-80247619D02*
X176019047Y-80200000D01*
X176114285Y-80152380D01*
X176352380Y-80152380D01*
X176447619Y-80200000D01*
X176495238Y-80247619D01*
X176542857Y-80342857D01*
X176542857Y-80438095D01*
X176495238Y-80580952D01*
X175923809Y-81152380D01*
X176542857Y-81152380D01*
X172800000Y-79452380D02*
X172800000Y-79690476D01*
X172561904Y-79595238D02*
X172800000Y-79690476D01*
X173038095Y-79595238D01*
X172657142Y-79880952D02*
X172800000Y-79690476D01*
X172942857Y-79880952D01*
%TO.C,Module1*%
X167735725Y-102704160D02*
X166735725Y-102704160D01*
X167450011Y-102370827D01*
X166735725Y-102037494D01*
X167735725Y-102037494D01*
X167735725Y-101418446D02*
X167688106Y-101513684D01*
X167640487Y-101561303D01*
X167545249Y-101608922D01*
X167259535Y-101608922D01*
X167164297Y-101561303D01*
X167116678Y-101513684D01*
X167069059Y-101418446D01*
X167069059Y-101275589D01*
X167116678Y-101180351D01*
X167164297Y-101132732D01*
X167259535Y-101085113D01*
X167545249Y-101085113D01*
X167640487Y-101132732D01*
X167688106Y-101180351D01*
X167735725Y-101275589D01*
X167735725Y-101418446D01*
X167735725Y-100227970D02*
X166735725Y-100227970D01*
X167688106Y-100227970D02*
X167735725Y-100323208D01*
X167735725Y-100513684D01*
X167688106Y-100608922D01*
X167640487Y-100656541D01*
X167545249Y-100704160D01*
X167259535Y-100704160D01*
X167164297Y-100656541D01*
X167116678Y-100608922D01*
X167069059Y-100513684D01*
X167069059Y-100323208D01*
X167116678Y-100227970D01*
X167069059Y-99323208D02*
X167735725Y-99323208D01*
X167069059Y-99751779D02*
X167592868Y-99751779D01*
X167688106Y-99704160D01*
X167735725Y-99608922D01*
X167735725Y-99466065D01*
X167688106Y-99370827D01*
X167640487Y-99323208D01*
X167735725Y-98704160D02*
X167688106Y-98799398D01*
X167592868Y-98847018D01*
X166735725Y-98847018D01*
X167688106Y-97942256D02*
X167735725Y-98037494D01*
X167735725Y-98227970D01*
X167688106Y-98323208D01*
X167592868Y-98370827D01*
X167211916Y-98370827D01*
X167116678Y-98323208D01*
X167069059Y-98227970D01*
X167069059Y-98037494D01*
X167116678Y-97942256D01*
X167211916Y-97894637D01*
X167307154Y-97894637D01*
X167402392Y-98370827D01*
X167735725Y-96942256D02*
X167735725Y-97513684D01*
X167735725Y-97227970D02*
X166735725Y-97227970D01*
X166878583Y-97323208D01*
X166973821Y-97418446D01*
X167021440Y-97513684D01*
D12*
%TO.C,CR1*%
X168699400Y-111500000D02*
X169461400Y-111754000D01*
X169461400Y-110865000D02*
X169461400Y-112135000D01*
X175925700Y-109391800D02*
X171074300Y-109391800D01*
X171074300Y-109391800D02*
X171074300Y-110036960D01*
X171074300Y-112963040D02*
X171074300Y-113608200D01*
X168699400Y-111500000D02*
X169461400Y-111119000D01*
X168699400Y-111500000D02*
X169461400Y-112135000D01*
X168699400Y-111500000D02*
X169461400Y-110992000D01*
X171074300Y-113608200D02*
X175925700Y-113608200D01*
X175925700Y-113608200D02*
X175925700Y-112963040D01*
X168699400Y-111500000D02*
X169461400Y-110865000D01*
X169715400Y-111500000D02*
X168445400Y-111500000D01*
X168699400Y-111500000D02*
X169461400Y-111246000D01*
X168699400Y-111500000D02*
X169461400Y-111627000D01*
X168699400Y-111500000D02*
X169461400Y-111373000D01*
X168699400Y-110865000D02*
X168699400Y-112135000D01*
X168699400Y-111500000D02*
X169461400Y-112008000D01*
X168699400Y-111500000D02*
X169461400Y-111881000D01*
X175925700Y-110036960D02*
X175925700Y-109391800D01*
%TO.C,U1*%
X165869700Y-84616297D02*
X165869700Y-85583703D01*
X167139459Y-84350700D02*
X166860541Y-84350700D01*
X168130300Y-85583703D02*
X168130300Y-84616297D01*
D13*
%TO.C,R2*%
X170680000Y-86100000D02*
X170680000Y-86300000D01*
X169320000Y-86100000D02*
X169320000Y-86300000D01*
D12*
%TO.C,LED1*%
X172818900Y-85127700D02*
X172818900Y-85426660D01*
X175181100Y-85426660D02*
X175181100Y-85127700D01*
X175181100Y-85127700D02*
X172818900Y-85127700D01*
X173782040Y-86372300D02*
X174217960Y-86372300D01*
D13*
%TO.C,R4*%
X170680000Y-82100000D02*
X170680000Y-82300000D01*
X169320000Y-82100000D02*
X169320000Y-82300000D01*
%TO.C,R3*%
X171100000Y-93430000D02*
X170900000Y-93430000D01*
X171100000Y-92070000D02*
X170900000Y-92070000D01*
D14*
%TO.C,J1*%
X172297500Y-97030000D02*
X173507500Y-97030000D01*
X177717500Y-105970000D02*
X177717500Y-97030000D01*
X172297500Y-105970000D02*
X173507500Y-105970000D01*
X176227500Y-105970000D02*
X177717500Y-105970000D01*
X177717500Y-97030000D02*
X176227500Y-97030000D01*
X169307500Y-105280000D02*
G75*
G03*
X169307500Y-105280000I-100000J0D01*
G01*
D13*
%TO.C,R1*%
X171100000Y-89820000D02*
X170900000Y-89820000D01*
X171100000Y-91180000D02*
X170900000Y-91180000D01*
D12*
%TO.C,LED2*%
X175181100Y-81594500D02*
X172818900Y-81594500D01*
X173782040Y-82839100D02*
X174217960Y-82839100D01*
X172818900Y-81594500D02*
X172818900Y-81893460D01*
X175181100Y-81893460D02*
X175181100Y-81594500D01*
%TO.C,Module1*%
X161610000Y-88500000D02*
X161610000Y-89500000D01*
X165390000Y-88500000D02*
X165390000Y-89500000D01*
X165390000Y-111300000D02*
X161610000Y-111300000D01*
X165390000Y-88500000D02*
X161610000Y-88500000D01*
%TD*%
M02*
