%TF.GenerationSoftware,KiCad,Pcbnew,(5.99.0-11661-g1332208ab1)*%
%TF.CreationDate,2021-08-26T20:26:43-05:00*%
%TF.ProjectId,rpi-cm4-carrier-template,7270692d-636d-4342-9d63-617272696572,v01*%
%TF.SameCoordinates,Original*%
%TF.FileFunction,Soldermask,Top*%
%TF.FilePolarity,Negative*%
%FSLAX46Y46*%
G04 Gerber Fmt 4.6, Leading zero omitted, Abs format (unit mm)*
G04 Created by KiCad (PCBNEW (5.99.0-11661-g1332208ab1)) date 2021-08-26 20:26:43*
%MOMM*%
%LPD*%
G01*
G04 APERTURE LIST*
%ADD10R,2.209800X2.260600*%
%ADD11R,0.355600X0.833300*%
%ADD12R,1.380000X1.040000*%
%ADD13R,1.498600X0.990600*%
%ADD14R,1.040000X1.380000*%
%ADD15R,1.150000X0.600000*%
%ADD16R,1.150000X0.300000*%
%ADD17C,0.650000*%
%ADD18R,2.000000X2.180000*%
%ADD19R,0.700000X0.200000*%
G04 APERTURE END LIST*
D10*
%TO.C,CR1*%
X171455300Y-111500000D03*
X175544700Y-111500000D03*
%TD*%
D11*
%TO.C,U1*%
X166350001Y-86138949D03*
X167000000Y-86138949D03*
X167649999Y-86138949D03*
X167649999Y-84061051D03*
X166350001Y-84061051D03*
%TD*%
D12*
%TO.C,R2*%
X170000000Y-85260000D03*
X170000000Y-87140000D03*
%TD*%
D13*
%TO.C,LED1*%
X175300000Y-86254700D03*
X172700000Y-86254700D03*
%TD*%
D12*
%TO.C,R4*%
X170000000Y-81260000D03*
X170000000Y-83140000D03*
%TD*%
D14*
%TO.C,R3*%
X171940000Y-92750000D03*
X170060000Y-92750000D03*
%TD*%
D15*
%TO.C,J1*%
X170362500Y-104700000D03*
X170362500Y-103900000D03*
D16*
X170362500Y-102750000D03*
X170362500Y-101750000D03*
X170362500Y-101250000D03*
X170362500Y-100250000D03*
D15*
X170362500Y-98300000D03*
X170362500Y-99100000D03*
D16*
X170362500Y-99750000D03*
X170362500Y-100750000D03*
X170362500Y-102250000D03*
X170362500Y-103250000D03*
D17*
X171437500Y-98610000D03*
X171437500Y-104390000D03*
D18*
X170937500Y-106610000D03*
X170937500Y-96390000D03*
X174867500Y-106610000D03*
X174867500Y-96390000D03*
%TD*%
D14*
%TO.C,R1*%
X171940000Y-90500000D03*
X170060000Y-90500000D03*
%TD*%
D13*
%TO.C,LED2*%
X175300000Y-82721500D03*
X172700000Y-82721500D03*
%TD*%
D19*
%TO.C,Module1*%
X165256655Y-109852982D03*
X162176655Y-109852982D03*
X165256655Y-109452982D03*
X162176655Y-109452982D03*
X165256655Y-109052982D03*
X162176655Y-109052982D03*
X165256655Y-108652982D03*
X162176655Y-108652982D03*
X165256655Y-108252982D03*
X162176655Y-108252982D03*
X165256655Y-107852982D03*
X162176655Y-107852982D03*
X165256655Y-107452982D03*
X162176655Y-107452982D03*
X165256655Y-107052982D03*
X162176655Y-107052982D03*
X165256655Y-106652982D03*
X162176655Y-106652982D03*
X165256655Y-106252982D03*
X162176655Y-106252982D03*
X165256655Y-105852982D03*
X162176655Y-105852982D03*
X165256655Y-105452982D03*
X162176655Y-105452982D03*
X165256655Y-105052982D03*
X162176655Y-105052982D03*
X165256655Y-104652982D03*
X162176655Y-104652982D03*
X165256655Y-104252982D03*
X162176655Y-104252982D03*
X165256655Y-103852982D03*
X162176655Y-103852982D03*
X165256655Y-103452982D03*
X162176655Y-103452982D03*
X165256655Y-103052982D03*
X162176655Y-103052982D03*
X165256655Y-102652982D03*
X162176655Y-102652982D03*
X165256655Y-102252982D03*
X162176655Y-102252982D03*
X165256655Y-101852982D03*
X162176655Y-101852982D03*
X165256655Y-101452982D03*
X162176655Y-101452982D03*
X165256655Y-101052982D03*
X162176655Y-101052982D03*
X165256655Y-100652982D03*
X162176655Y-100652982D03*
X165256655Y-100252982D03*
X162176655Y-100252982D03*
X165256655Y-99852982D03*
X162176655Y-99852982D03*
X165256655Y-99452982D03*
X162176655Y-99452982D03*
X165256655Y-99052982D03*
X162176655Y-99052982D03*
X165256655Y-98652982D03*
X162176655Y-98652982D03*
X165256655Y-98252982D03*
X162176655Y-98252982D03*
X165256655Y-97852982D03*
X162176655Y-97852982D03*
X165256655Y-97452982D03*
X162176655Y-97452982D03*
X165256655Y-97052982D03*
X162176655Y-97052982D03*
X165256655Y-96652982D03*
X162176655Y-96652982D03*
X165256655Y-96252982D03*
X162176655Y-96252982D03*
X165256655Y-95852982D03*
X162176655Y-95852982D03*
X165256655Y-95452982D03*
X162176655Y-95452982D03*
X165256655Y-95052982D03*
X162176655Y-95052982D03*
X165256655Y-94652982D03*
X162176655Y-94652982D03*
X165256655Y-94252982D03*
X162176655Y-94252982D03*
X165256655Y-93852982D03*
X162176655Y-93852982D03*
X165256655Y-93452982D03*
X162176655Y-93452982D03*
X165256655Y-93052982D03*
X162176655Y-93052982D03*
X165256655Y-92652982D03*
X162176655Y-92652982D03*
X165256655Y-92252982D03*
X162176655Y-92252982D03*
X165256655Y-91852982D03*
X162176655Y-91852982D03*
X165256655Y-91452982D03*
X162176655Y-91452982D03*
X165256655Y-91052982D03*
X162176655Y-91052982D03*
X165256655Y-90652982D03*
X162176655Y-90652982D03*
X165256655Y-90252982D03*
X162176655Y-90252982D03*
%TD*%
M02*
